G04 #@! TF.GenerationSoftware,KiCad,Pcbnew,5.1.9-73d0e3b20d~88~ubuntu20.04.1*
G04 #@! TF.CreationDate,2021-05-05T00:04:50+02:00*
G04 #@! TF.ProjectId,DAC ADC PWM IO,44414320-4144-4432-9050-574d20494f2e,rev?*
G04 #@! TF.SameCoordinates,Original*
G04 #@! TF.FileFunction,Paste,Top*
G04 #@! TF.FilePolarity,Positive*
%FSLAX46Y46*%
G04 Gerber Fmt 4.6, Leading zero omitted, Abs format (unit mm)*
G04 Created by KiCad (PCBNEW 5.1.9-73d0e3b20d~88~ubuntu20.04.1) date 2021-05-05 00:04:50*
%MOMM*%
%LPD*%
G01*
G04 APERTURE LIST*
%ADD10R,0.800000X0.900000*%
%ADD11R,1.100000X1.050000*%
%ADD12R,2.400000X3.500000*%
%ADD13R,0.600000X0.900000*%
%ADD14R,0.900000X0.600000*%
%ADD15R,1.050000X0.600000*%
%ADD16R,0.900000X0.800000*%
%ADD17R,0.650000X1.060000*%
%ADD18R,2.180000X1.600000*%
%ADD19R,5.100000X5.100000*%
G04 APERTURE END LIST*
G36*
G01*
X131400000Y-63525000D02*
X131400000Y-62975000D01*
G75*
G02*
X131600000Y-62775000I200000J0D01*
G01*
X132000000Y-62775000D01*
G75*
G02*
X132200000Y-62975000I0J-200000D01*
G01*
X132200000Y-63525000D01*
G75*
G02*
X132000000Y-63725000I-200000J0D01*
G01*
X131600000Y-63725000D01*
G75*
G02*
X131400000Y-63525000I0J200000D01*
G01*
G37*
G36*
G01*
X129750000Y-63525000D02*
X129750000Y-62975000D01*
G75*
G02*
X129950000Y-62775000I200000J0D01*
G01*
X130350000Y-62775000D01*
G75*
G02*
X130550000Y-62975000I0J-200000D01*
G01*
X130550000Y-63525000D01*
G75*
G02*
X130350000Y-63725000I-200000J0D01*
G01*
X129950000Y-63725000D01*
G75*
G02*
X129750000Y-63525000I0J200000D01*
G01*
G37*
G36*
G01*
X131375000Y-65175000D02*
X131375000Y-64625000D01*
G75*
G02*
X131575000Y-64425000I200000J0D01*
G01*
X131975000Y-64425000D01*
G75*
G02*
X132175000Y-64625000I0J-200000D01*
G01*
X132175000Y-65175000D01*
G75*
G02*
X131975000Y-65375000I-200000J0D01*
G01*
X131575000Y-65375000D01*
G75*
G02*
X131375000Y-65175000I0J200000D01*
G01*
G37*
G36*
G01*
X129725000Y-65175000D02*
X129725000Y-64625000D01*
G75*
G02*
X129925000Y-64425000I200000J0D01*
G01*
X130325000Y-64425000D01*
G75*
G02*
X130525000Y-64625000I0J-200000D01*
G01*
X130525000Y-65175000D01*
G75*
G02*
X130325000Y-65375000I-200000J0D01*
G01*
X129925000Y-65375000D01*
G75*
G02*
X129725000Y-65175000I0J200000D01*
G01*
G37*
G36*
G01*
X126525000Y-65175000D02*
X126525000Y-64625000D01*
G75*
G02*
X126725000Y-64425000I200000J0D01*
G01*
X127125000Y-64425000D01*
G75*
G02*
X127325000Y-64625000I0J-200000D01*
G01*
X127325000Y-65175000D01*
G75*
G02*
X127125000Y-65375000I-200000J0D01*
G01*
X126725000Y-65375000D01*
G75*
G02*
X126525000Y-65175000I0J200000D01*
G01*
G37*
G36*
G01*
X124875000Y-65175000D02*
X124875000Y-64625000D01*
G75*
G02*
X125075000Y-64425000I200000J0D01*
G01*
X125475000Y-64425000D01*
G75*
G02*
X125675000Y-64625000I0J-200000D01*
G01*
X125675000Y-65175000D01*
G75*
G02*
X125475000Y-65375000I-200000J0D01*
G01*
X125075000Y-65375000D01*
G75*
G02*
X124875000Y-65175000I0J200000D01*
G01*
G37*
G36*
G01*
X126525000Y-63525000D02*
X126525000Y-62975000D01*
G75*
G02*
X126725000Y-62775000I200000J0D01*
G01*
X127125000Y-62775000D01*
G75*
G02*
X127325000Y-62975000I0J-200000D01*
G01*
X127325000Y-63525000D01*
G75*
G02*
X127125000Y-63725000I-200000J0D01*
G01*
X126725000Y-63725000D01*
G75*
G02*
X126525000Y-63525000I0J200000D01*
G01*
G37*
G36*
G01*
X124875000Y-63525000D02*
X124875000Y-62975000D01*
G75*
G02*
X125075000Y-62775000I200000J0D01*
G01*
X125475000Y-62775000D01*
G75*
G02*
X125675000Y-62975000I0J-200000D01*
G01*
X125675000Y-63525000D01*
G75*
G02*
X125475000Y-63725000I-200000J0D01*
G01*
X125075000Y-63725000D01*
G75*
G02*
X124875000Y-63525000I0J200000D01*
G01*
G37*
G36*
G01*
X146685000Y-75710000D02*
X146315000Y-75710000D01*
G75*
G02*
X146180000Y-75575000I0J135000D01*
G01*
X146180000Y-75305000D01*
G75*
G02*
X146315000Y-75170000I135000J0D01*
G01*
X146685000Y-75170000D01*
G75*
G02*
X146820000Y-75305000I0J-135000D01*
G01*
X146820000Y-75575000D01*
G75*
G02*
X146685000Y-75710000I-135000J0D01*
G01*
G37*
G36*
G01*
X146685000Y-76730000D02*
X146315000Y-76730000D01*
G75*
G02*
X146180000Y-76595000I0J135000D01*
G01*
X146180000Y-76325000D01*
G75*
G02*
X146315000Y-76190000I135000J0D01*
G01*
X146685000Y-76190000D01*
G75*
G02*
X146820000Y-76325000I0J-135000D01*
G01*
X146820000Y-76595000D01*
G75*
G02*
X146685000Y-76730000I-135000J0D01*
G01*
G37*
G36*
G01*
X148985000Y-75710000D02*
X148615000Y-75710000D01*
G75*
G02*
X148480000Y-75575000I0J135000D01*
G01*
X148480000Y-75305000D01*
G75*
G02*
X148615000Y-75170000I135000J0D01*
G01*
X148985000Y-75170000D01*
G75*
G02*
X149120000Y-75305000I0J-135000D01*
G01*
X149120000Y-75575000D01*
G75*
G02*
X148985000Y-75710000I-135000J0D01*
G01*
G37*
G36*
G01*
X148985000Y-76730000D02*
X148615000Y-76730000D01*
G75*
G02*
X148480000Y-76595000I0J135000D01*
G01*
X148480000Y-76325000D01*
G75*
G02*
X148615000Y-76190000I135000J0D01*
G01*
X148985000Y-76190000D01*
G75*
G02*
X149120000Y-76325000I0J-135000D01*
G01*
X149120000Y-76595000D01*
G75*
G02*
X148985000Y-76730000I-135000J0D01*
G01*
G37*
G36*
G01*
X151235000Y-75710000D02*
X150865000Y-75710000D01*
G75*
G02*
X150730000Y-75575000I0J135000D01*
G01*
X150730000Y-75305000D01*
G75*
G02*
X150865000Y-75170000I135000J0D01*
G01*
X151235000Y-75170000D01*
G75*
G02*
X151370000Y-75305000I0J-135000D01*
G01*
X151370000Y-75575000D01*
G75*
G02*
X151235000Y-75710000I-135000J0D01*
G01*
G37*
G36*
G01*
X151235000Y-76730000D02*
X150865000Y-76730000D01*
G75*
G02*
X150730000Y-76595000I0J135000D01*
G01*
X150730000Y-76325000D01*
G75*
G02*
X150865000Y-76190000I135000J0D01*
G01*
X151235000Y-76190000D01*
G75*
G02*
X151370000Y-76325000I0J-135000D01*
G01*
X151370000Y-76595000D01*
G75*
G02*
X151235000Y-76730000I-135000J0D01*
G01*
G37*
G36*
G01*
X153535000Y-75710000D02*
X153165000Y-75710000D01*
G75*
G02*
X153030000Y-75575000I0J135000D01*
G01*
X153030000Y-75305000D01*
G75*
G02*
X153165000Y-75170000I135000J0D01*
G01*
X153535000Y-75170000D01*
G75*
G02*
X153670000Y-75305000I0J-135000D01*
G01*
X153670000Y-75575000D01*
G75*
G02*
X153535000Y-75710000I-135000J0D01*
G01*
G37*
G36*
G01*
X153535000Y-76730000D02*
X153165000Y-76730000D01*
G75*
G02*
X153030000Y-76595000I0J135000D01*
G01*
X153030000Y-76325000D01*
G75*
G02*
X153165000Y-76190000I135000J0D01*
G01*
X153535000Y-76190000D01*
G75*
G02*
X153670000Y-76325000I0J-135000D01*
G01*
X153670000Y-76595000D01*
G75*
G02*
X153535000Y-76730000I-135000J0D01*
G01*
G37*
G36*
G01*
X155835000Y-75710000D02*
X155465000Y-75710000D01*
G75*
G02*
X155330000Y-75575000I0J135000D01*
G01*
X155330000Y-75305000D01*
G75*
G02*
X155465000Y-75170000I135000J0D01*
G01*
X155835000Y-75170000D01*
G75*
G02*
X155970000Y-75305000I0J-135000D01*
G01*
X155970000Y-75575000D01*
G75*
G02*
X155835000Y-75710000I-135000J0D01*
G01*
G37*
G36*
G01*
X155835000Y-76730000D02*
X155465000Y-76730000D01*
G75*
G02*
X155330000Y-76595000I0J135000D01*
G01*
X155330000Y-76325000D01*
G75*
G02*
X155465000Y-76190000I135000J0D01*
G01*
X155835000Y-76190000D01*
G75*
G02*
X155970000Y-76325000I0J-135000D01*
G01*
X155970000Y-76595000D01*
G75*
G02*
X155835000Y-76730000I-135000J0D01*
G01*
G37*
G36*
G01*
X145793750Y-72050000D02*
X146306250Y-72050000D01*
G75*
G02*
X146525000Y-72268750I0J-218750D01*
G01*
X146525000Y-72706250D01*
G75*
G02*
X146306250Y-72925000I-218750J0D01*
G01*
X145793750Y-72925000D01*
G75*
G02*
X145575000Y-72706250I0J218750D01*
G01*
X145575000Y-72268750D01*
G75*
G02*
X145793750Y-72050000I218750J0D01*
G01*
G37*
G36*
G01*
X145793750Y-70475000D02*
X146306250Y-70475000D01*
G75*
G02*
X146525000Y-70693750I0J-218750D01*
G01*
X146525000Y-71131250D01*
G75*
G02*
X146306250Y-71350000I-218750J0D01*
G01*
X145793750Y-71350000D01*
G75*
G02*
X145575000Y-71131250I0J218750D01*
G01*
X145575000Y-70693750D01*
G75*
G02*
X145793750Y-70475000I218750J0D01*
G01*
G37*
G36*
G01*
X148393750Y-72050000D02*
X148906250Y-72050000D01*
G75*
G02*
X149125000Y-72268750I0J-218750D01*
G01*
X149125000Y-72706250D01*
G75*
G02*
X148906250Y-72925000I-218750J0D01*
G01*
X148393750Y-72925000D01*
G75*
G02*
X148175000Y-72706250I0J218750D01*
G01*
X148175000Y-72268750D01*
G75*
G02*
X148393750Y-72050000I218750J0D01*
G01*
G37*
G36*
G01*
X148393750Y-70475000D02*
X148906250Y-70475000D01*
G75*
G02*
X149125000Y-70693750I0J-218750D01*
G01*
X149125000Y-71131250D01*
G75*
G02*
X148906250Y-71350000I-218750J0D01*
G01*
X148393750Y-71350000D01*
G75*
G02*
X148175000Y-71131250I0J218750D01*
G01*
X148175000Y-70693750D01*
G75*
G02*
X148393750Y-70475000I218750J0D01*
G01*
G37*
G36*
G01*
X150793750Y-72050000D02*
X151306250Y-72050000D01*
G75*
G02*
X151525000Y-72268750I0J-218750D01*
G01*
X151525000Y-72706250D01*
G75*
G02*
X151306250Y-72925000I-218750J0D01*
G01*
X150793750Y-72925000D01*
G75*
G02*
X150575000Y-72706250I0J218750D01*
G01*
X150575000Y-72268750D01*
G75*
G02*
X150793750Y-72050000I218750J0D01*
G01*
G37*
G36*
G01*
X150793750Y-70475000D02*
X151306250Y-70475000D01*
G75*
G02*
X151525000Y-70693750I0J-218750D01*
G01*
X151525000Y-71131250D01*
G75*
G02*
X151306250Y-71350000I-218750J0D01*
G01*
X150793750Y-71350000D01*
G75*
G02*
X150575000Y-71131250I0J218750D01*
G01*
X150575000Y-70693750D01*
G75*
G02*
X150793750Y-70475000I218750J0D01*
G01*
G37*
G36*
G01*
X153243750Y-72050000D02*
X153756250Y-72050000D01*
G75*
G02*
X153975000Y-72268750I0J-218750D01*
G01*
X153975000Y-72706250D01*
G75*
G02*
X153756250Y-72925000I-218750J0D01*
G01*
X153243750Y-72925000D01*
G75*
G02*
X153025000Y-72706250I0J218750D01*
G01*
X153025000Y-72268750D01*
G75*
G02*
X153243750Y-72050000I218750J0D01*
G01*
G37*
G36*
G01*
X153243750Y-70475000D02*
X153756250Y-70475000D01*
G75*
G02*
X153975000Y-70693750I0J-218750D01*
G01*
X153975000Y-71131250D01*
G75*
G02*
X153756250Y-71350000I-218750J0D01*
G01*
X153243750Y-71350000D01*
G75*
G02*
X153025000Y-71131250I0J218750D01*
G01*
X153025000Y-70693750D01*
G75*
G02*
X153243750Y-70475000I218750J0D01*
G01*
G37*
G36*
G01*
X156093750Y-72050000D02*
X156606250Y-72050000D01*
G75*
G02*
X156825000Y-72268750I0J-218750D01*
G01*
X156825000Y-72706250D01*
G75*
G02*
X156606250Y-72925000I-218750J0D01*
G01*
X156093750Y-72925000D01*
G75*
G02*
X155875000Y-72706250I0J218750D01*
G01*
X155875000Y-72268750D01*
G75*
G02*
X156093750Y-72050000I218750J0D01*
G01*
G37*
G36*
G01*
X156093750Y-70475000D02*
X156606250Y-70475000D01*
G75*
G02*
X156825000Y-70693750I0J-218750D01*
G01*
X156825000Y-71131250D01*
G75*
G02*
X156606250Y-71350000I-218750J0D01*
G01*
X156093750Y-71350000D01*
G75*
G02*
X155875000Y-71131250I0J218750D01*
G01*
X155875000Y-70693750D01*
G75*
G02*
X156093750Y-70475000I218750J0D01*
G01*
G37*
G36*
G01*
X131915000Y-68240000D02*
X132285000Y-68240000D01*
G75*
G02*
X132420000Y-68375000I0J-135000D01*
G01*
X132420000Y-68645000D01*
G75*
G02*
X132285000Y-68780000I-135000J0D01*
G01*
X131915000Y-68780000D01*
G75*
G02*
X131780000Y-68645000I0J135000D01*
G01*
X131780000Y-68375000D01*
G75*
G02*
X131915000Y-68240000I135000J0D01*
G01*
G37*
G36*
G01*
X131915000Y-67220000D02*
X132285000Y-67220000D01*
G75*
G02*
X132420000Y-67355000I0J-135000D01*
G01*
X132420000Y-67625000D01*
G75*
G02*
X132285000Y-67760000I-135000J0D01*
G01*
X131915000Y-67760000D01*
G75*
G02*
X131780000Y-67625000I0J135000D01*
G01*
X131780000Y-67355000D01*
G75*
G02*
X131915000Y-67220000I135000J0D01*
G01*
G37*
G36*
G01*
X125185000Y-67760000D02*
X124815000Y-67760000D01*
G75*
G02*
X124680000Y-67625000I0J135000D01*
G01*
X124680000Y-67355000D01*
G75*
G02*
X124815000Y-67220000I135000J0D01*
G01*
X125185000Y-67220000D01*
G75*
G02*
X125320000Y-67355000I0J-135000D01*
G01*
X125320000Y-67625000D01*
G75*
G02*
X125185000Y-67760000I-135000J0D01*
G01*
G37*
G36*
G01*
X125185000Y-68780000D02*
X124815000Y-68780000D01*
G75*
G02*
X124680000Y-68645000I0J135000D01*
G01*
X124680000Y-68375000D01*
G75*
G02*
X124815000Y-68240000I135000J0D01*
G01*
X125185000Y-68240000D01*
G75*
G02*
X125320000Y-68375000I0J-135000D01*
G01*
X125320000Y-68645000D01*
G75*
G02*
X125185000Y-68780000I-135000J0D01*
G01*
G37*
D10*
X128550000Y-66450000D03*
X129500000Y-68450000D03*
X127600000Y-68450000D03*
G36*
G01*
X128300000Y-64375000D02*
X128800000Y-64375000D01*
G75*
G02*
X129025000Y-64600000I0J-225000D01*
G01*
X129025000Y-65050000D01*
G75*
G02*
X128800000Y-65275000I-225000J0D01*
G01*
X128300000Y-65275000D01*
G75*
G02*
X128075000Y-65050000I0J225000D01*
G01*
X128075000Y-64600000D01*
G75*
G02*
X128300000Y-64375000I225000J0D01*
G01*
G37*
G36*
G01*
X128300000Y-62825000D02*
X128800000Y-62825000D01*
G75*
G02*
X129025000Y-63050000I0J-225000D01*
G01*
X129025000Y-63500000D01*
G75*
G02*
X128800000Y-63725000I-225000J0D01*
G01*
X128300000Y-63725000D01*
G75*
G02*
X128075000Y-63500000I0J225000D01*
G01*
X128075000Y-63050000D01*
G75*
G02*
X128300000Y-62825000I225000J0D01*
G01*
G37*
G36*
G01*
X133175000Y-70200000D02*
X133175000Y-69700000D01*
G75*
G02*
X133400000Y-69475000I225000J0D01*
G01*
X133850000Y-69475000D01*
G75*
G02*
X134075000Y-69700000I0J-225000D01*
G01*
X134075000Y-70200000D01*
G75*
G02*
X133850000Y-70425000I-225000J0D01*
G01*
X133400000Y-70425000D01*
G75*
G02*
X133175000Y-70200000I0J225000D01*
G01*
G37*
G36*
G01*
X131625000Y-70200000D02*
X131625000Y-69700000D01*
G75*
G02*
X131850000Y-69475000I225000J0D01*
G01*
X132300000Y-69475000D01*
G75*
G02*
X132525000Y-69700000I0J-225000D01*
G01*
X132525000Y-70200000D01*
G75*
G02*
X132300000Y-70425000I-225000J0D01*
G01*
X131850000Y-70425000D01*
G75*
G02*
X131625000Y-70200000I0J225000D01*
G01*
G37*
G36*
G01*
X124575000Y-70200000D02*
X124575000Y-69700000D01*
G75*
G02*
X124800000Y-69475000I225000J0D01*
G01*
X125250000Y-69475000D01*
G75*
G02*
X125475000Y-69700000I0J-225000D01*
G01*
X125475000Y-70200000D01*
G75*
G02*
X125250000Y-70425000I-225000J0D01*
G01*
X124800000Y-70425000D01*
G75*
G02*
X124575000Y-70200000I0J225000D01*
G01*
G37*
G36*
G01*
X123025000Y-70200000D02*
X123025000Y-69700000D01*
G75*
G02*
X123250000Y-69475000I225000J0D01*
G01*
X123700000Y-69475000D01*
G75*
G02*
X123925000Y-69700000I0J-225000D01*
G01*
X123925000Y-70200000D01*
G75*
G02*
X123700000Y-70425000I-225000J0D01*
G01*
X123250000Y-70425000D01*
G75*
G02*
X123025000Y-70200000I0J225000D01*
G01*
G37*
G36*
G01*
X142825000Y-77650000D02*
X142825000Y-78150000D01*
G75*
G02*
X142600000Y-78375000I-225000J0D01*
G01*
X142150000Y-78375000D01*
G75*
G02*
X141925000Y-78150000I0J225000D01*
G01*
X141925000Y-77650000D01*
G75*
G02*
X142150000Y-77425000I225000J0D01*
G01*
X142600000Y-77425000D01*
G75*
G02*
X142825000Y-77650000I0J-225000D01*
G01*
G37*
G36*
G01*
X144375000Y-77650000D02*
X144375000Y-78150000D01*
G75*
G02*
X144150000Y-78375000I-225000J0D01*
G01*
X143700000Y-78375000D01*
G75*
G02*
X143475000Y-78150000I0J225000D01*
G01*
X143475000Y-77650000D01*
G75*
G02*
X143700000Y-77425000I225000J0D01*
G01*
X144150000Y-77425000D01*
G75*
G02*
X144375000Y-77650000I0J-225000D01*
G01*
G37*
D11*
X137200000Y-82175000D03*
X137200000Y-84025000D03*
D12*
X134100000Y-91950000D03*
X134100000Y-86750000D03*
G36*
G01*
X122975000Y-126725000D02*
X122975000Y-127275000D01*
G75*
G02*
X122775000Y-127475000I-200000J0D01*
G01*
X122375000Y-127475000D01*
G75*
G02*
X122175000Y-127275000I0J200000D01*
G01*
X122175000Y-126725000D01*
G75*
G02*
X122375000Y-126525000I200000J0D01*
G01*
X122775000Y-126525000D01*
G75*
G02*
X122975000Y-126725000I0J-200000D01*
G01*
G37*
G36*
G01*
X124625000Y-126725000D02*
X124625000Y-127275000D01*
G75*
G02*
X124425000Y-127475000I-200000J0D01*
G01*
X124025000Y-127475000D01*
G75*
G02*
X123825000Y-127275000I0J200000D01*
G01*
X123825000Y-126725000D01*
G75*
G02*
X124025000Y-126525000I200000J0D01*
G01*
X124425000Y-126525000D01*
G75*
G02*
X124625000Y-126725000I0J-200000D01*
G01*
G37*
G36*
G01*
X122975000Y-113075000D02*
X122975000Y-113625000D01*
G75*
G02*
X122775000Y-113825000I-200000J0D01*
G01*
X122375000Y-113825000D01*
G75*
G02*
X122175000Y-113625000I0J200000D01*
G01*
X122175000Y-113075000D01*
G75*
G02*
X122375000Y-112875000I200000J0D01*
G01*
X122775000Y-112875000D01*
G75*
G02*
X122975000Y-113075000I0J-200000D01*
G01*
G37*
G36*
G01*
X124625000Y-113075000D02*
X124625000Y-113625000D01*
G75*
G02*
X124425000Y-113825000I-200000J0D01*
G01*
X124025000Y-113825000D01*
G75*
G02*
X123825000Y-113625000I0J200000D01*
G01*
X123825000Y-113075000D01*
G75*
G02*
X124025000Y-112875000I200000J0D01*
G01*
X124425000Y-112875000D01*
G75*
G02*
X124625000Y-113075000I0J-200000D01*
G01*
G37*
G36*
G01*
X122975000Y-92575000D02*
X122975000Y-93125000D01*
G75*
G02*
X122775000Y-93325000I-200000J0D01*
G01*
X122375000Y-93325000D01*
G75*
G02*
X122175000Y-93125000I0J200000D01*
G01*
X122175000Y-92575000D01*
G75*
G02*
X122375000Y-92375000I200000J0D01*
G01*
X122775000Y-92375000D01*
G75*
G02*
X122975000Y-92575000I0J-200000D01*
G01*
G37*
G36*
G01*
X124625000Y-92575000D02*
X124625000Y-93125000D01*
G75*
G02*
X124425000Y-93325000I-200000J0D01*
G01*
X124025000Y-93325000D01*
G75*
G02*
X123825000Y-93125000I0J200000D01*
G01*
X123825000Y-92575000D01*
G75*
G02*
X124025000Y-92375000I200000J0D01*
G01*
X124425000Y-92375000D01*
G75*
G02*
X124625000Y-92575000I0J-200000D01*
G01*
G37*
G36*
G01*
X122325000Y-85625000D02*
X122875000Y-85625000D01*
G75*
G02*
X123075000Y-85825000I0J-200000D01*
G01*
X123075000Y-86225000D01*
G75*
G02*
X122875000Y-86425000I-200000J0D01*
G01*
X122325000Y-86425000D01*
G75*
G02*
X122125000Y-86225000I0J200000D01*
G01*
X122125000Y-85825000D01*
G75*
G02*
X122325000Y-85625000I200000J0D01*
G01*
G37*
G36*
G01*
X122325000Y-83975000D02*
X122875000Y-83975000D01*
G75*
G02*
X123075000Y-84175000I0J-200000D01*
G01*
X123075000Y-84575000D01*
G75*
G02*
X122875000Y-84775000I-200000J0D01*
G01*
X122325000Y-84775000D01*
G75*
G02*
X122125000Y-84575000I0J200000D01*
G01*
X122125000Y-84175000D01*
G75*
G02*
X122325000Y-83975000I200000J0D01*
G01*
G37*
G36*
G01*
X122975000Y-119875000D02*
X122975000Y-120425000D01*
G75*
G02*
X122775000Y-120625000I-200000J0D01*
G01*
X122375000Y-120625000D01*
G75*
G02*
X122175000Y-120425000I0J200000D01*
G01*
X122175000Y-119875000D01*
G75*
G02*
X122375000Y-119675000I200000J0D01*
G01*
X122775000Y-119675000D01*
G75*
G02*
X122975000Y-119875000I0J-200000D01*
G01*
G37*
G36*
G01*
X124625000Y-119875000D02*
X124625000Y-120425000D01*
G75*
G02*
X124425000Y-120625000I-200000J0D01*
G01*
X124025000Y-120625000D01*
G75*
G02*
X123825000Y-120425000I0J200000D01*
G01*
X123825000Y-119875000D01*
G75*
G02*
X124025000Y-119675000I200000J0D01*
G01*
X124425000Y-119675000D01*
G75*
G02*
X124625000Y-119875000I0J-200000D01*
G01*
G37*
G36*
G01*
X122975000Y-106225000D02*
X122975000Y-106775000D01*
G75*
G02*
X122775000Y-106975000I-200000J0D01*
G01*
X122375000Y-106975000D01*
G75*
G02*
X122175000Y-106775000I0J200000D01*
G01*
X122175000Y-106225000D01*
G75*
G02*
X122375000Y-106025000I200000J0D01*
G01*
X122775000Y-106025000D01*
G75*
G02*
X122975000Y-106225000I0J-200000D01*
G01*
G37*
G36*
G01*
X124625000Y-106225000D02*
X124625000Y-106775000D01*
G75*
G02*
X124425000Y-106975000I-200000J0D01*
G01*
X124025000Y-106975000D01*
G75*
G02*
X123825000Y-106775000I0J200000D01*
G01*
X123825000Y-106225000D01*
G75*
G02*
X124025000Y-106025000I200000J0D01*
G01*
X124425000Y-106025000D01*
G75*
G02*
X124625000Y-106225000I0J-200000D01*
G01*
G37*
G36*
G01*
X122975000Y-99375000D02*
X122975000Y-99925000D01*
G75*
G02*
X122775000Y-100125000I-200000J0D01*
G01*
X122375000Y-100125000D01*
G75*
G02*
X122175000Y-99925000I0J200000D01*
G01*
X122175000Y-99375000D01*
G75*
G02*
X122375000Y-99175000I200000J0D01*
G01*
X122775000Y-99175000D01*
G75*
G02*
X122975000Y-99375000I0J-200000D01*
G01*
G37*
G36*
G01*
X124625000Y-99375000D02*
X124625000Y-99925000D01*
G75*
G02*
X124425000Y-100125000I-200000J0D01*
G01*
X124025000Y-100125000D01*
G75*
G02*
X123825000Y-99925000I0J200000D01*
G01*
X123825000Y-99375000D01*
G75*
G02*
X124025000Y-99175000I200000J0D01*
G01*
X124425000Y-99175000D01*
G75*
G02*
X124625000Y-99375000I0J-200000D01*
G01*
G37*
D13*
X116615000Y-115250000D03*
D14*
X113915000Y-114650000D03*
D15*
X119635000Y-113340000D03*
X119635000Y-114610000D03*
X119635000Y-117160000D03*
X119635000Y-115890000D03*
D14*
X113915000Y-115850000D03*
X113915000Y-113370000D03*
X113915000Y-117130000D03*
D13*
X117465000Y-115250000D03*
X115765000Y-115250000D03*
X115765000Y-114100000D03*
X117465000Y-114100000D03*
X116615000Y-114100000D03*
X115765000Y-116400000D03*
X117465000Y-116400000D03*
X116615000Y-116400000D03*
X116615000Y-94750000D03*
D14*
X113915000Y-94150000D03*
D15*
X119635000Y-92840000D03*
X119635000Y-94110000D03*
X119635000Y-96660000D03*
X119635000Y-95390000D03*
D14*
X113915000Y-95350000D03*
X113915000Y-92870000D03*
X113915000Y-96630000D03*
D13*
X117465000Y-94750000D03*
X115765000Y-94750000D03*
X115765000Y-93600000D03*
X117465000Y-93600000D03*
X116615000Y-93600000D03*
X115765000Y-95900000D03*
X117465000Y-95900000D03*
X116615000Y-95900000D03*
X116615000Y-87950000D03*
D14*
X113915000Y-87350000D03*
D15*
X119635000Y-86040000D03*
X119635000Y-87310000D03*
X119635000Y-89860000D03*
X119635000Y-88590000D03*
D14*
X113915000Y-88550000D03*
X113915000Y-86070000D03*
X113915000Y-89830000D03*
D13*
X117465000Y-87950000D03*
X115765000Y-87950000D03*
X115765000Y-86800000D03*
X117465000Y-86800000D03*
X116615000Y-86800000D03*
X115765000Y-89100000D03*
X117465000Y-89100000D03*
X116615000Y-89100000D03*
X116615000Y-122050000D03*
D14*
X113915000Y-121450000D03*
D15*
X119635000Y-120140000D03*
X119635000Y-121410000D03*
X119635000Y-123960000D03*
X119635000Y-122690000D03*
D14*
X113915000Y-122650000D03*
X113915000Y-120170000D03*
X113915000Y-123930000D03*
D13*
X117465000Y-122050000D03*
X115765000Y-122050000D03*
X115765000Y-120900000D03*
X117465000Y-120900000D03*
X116615000Y-120900000D03*
X115765000Y-123200000D03*
X117465000Y-123200000D03*
X116615000Y-123200000D03*
X116615000Y-101550000D03*
D14*
X113915000Y-100950000D03*
D15*
X119635000Y-99640000D03*
X119635000Y-100910000D03*
X119635000Y-103460000D03*
X119635000Y-102190000D03*
D14*
X113915000Y-102150000D03*
X113915000Y-99670000D03*
X113915000Y-103430000D03*
D13*
X117465000Y-101550000D03*
X115765000Y-101550000D03*
X115765000Y-100400000D03*
X117465000Y-100400000D03*
X116615000Y-100400000D03*
X115765000Y-102700000D03*
X117465000Y-102700000D03*
X116615000Y-102700000D03*
G36*
G01*
X110375000Y-116325000D02*
X110375000Y-114175000D01*
G75*
G02*
X110625000Y-113925000I250000J0D01*
G01*
X111375000Y-113925000D01*
G75*
G02*
X111625000Y-114175000I0J-250000D01*
G01*
X111625000Y-116325000D01*
G75*
G02*
X111375000Y-116575000I-250000J0D01*
G01*
X110625000Y-116575000D01*
G75*
G02*
X110375000Y-116325000I0J250000D01*
G01*
G37*
G36*
G01*
X107575000Y-116325000D02*
X107575000Y-114175000D01*
G75*
G02*
X107825000Y-113925000I250000J0D01*
G01*
X108575000Y-113925000D01*
G75*
G02*
X108825000Y-114175000I0J-250000D01*
G01*
X108825000Y-116325000D01*
G75*
G02*
X108575000Y-116575000I-250000J0D01*
G01*
X107825000Y-116575000D01*
G75*
G02*
X107575000Y-116325000I0J250000D01*
G01*
G37*
G36*
G01*
X110375000Y-95825000D02*
X110375000Y-93675000D01*
G75*
G02*
X110625000Y-93425000I250000J0D01*
G01*
X111375000Y-93425000D01*
G75*
G02*
X111625000Y-93675000I0J-250000D01*
G01*
X111625000Y-95825000D01*
G75*
G02*
X111375000Y-96075000I-250000J0D01*
G01*
X110625000Y-96075000D01*
G75*
G02*
X110375000Y-95825000I0J250000D01*
G01*
G37*
G36*
G01*
X107575000Y-95825000D02*
X107575000Y-93675000D01*
G75*
G02*
X107825000Y-93425000I250000J0D01*
G01*
X108575000Y-93425000D01*
G75*
G02*
X108825000Y-93675000I0J-250000D01*
G01*
X108825000Y-95825000D01*
G75*
G02*
X108575000Y-96075000I-250000J0D01*
G01*
X107825000Y-96075000D01*
G75*
G02*
X107575000Y-95825000I0J250000D01*
G01*
G37*
G36*
G01*
X110375000Y-89025000D02*
X110375000Y-86875000D01*
G75*
G02*
X110625000Y-86625000I250000J0D01*
G01*
X111375000Y-86625000D01*
G75*
G02*
X111625000Y-86875000I0J-250000D01*
G01*
X111625000Y-89025000D01*
G75*
G02*
X111375000Y-89275000I-250000J0D01*
G01*
X110625000Y-89275000D01*
G75*
G02*
X110375000Y-89025000I0J250000D01*
G01*
G37*
G36*
G01*
X107575000Y-89025000D02*
X107575000Y-86875000D01*
G75*
G02*
X107825000Y-86625000I250000J0D01*
G01*
X108575000Y-86625000D01*
G75*
G02*
X108825000Y-86875000I0J-250000D01*
G01*
X108825000Y-89025000D01*
G75*
G02*
X108575000Y-89275000I-250000J0D01*
G01*
X107825000Y-89275000D01*
G75*
G02*
X107575000Y-89025000I0J250000D01*
G01*
G37*
G36*
G01*
X110375000Y-123125000D02*
X110375000Y-120975000D01*
G75*
G02*
X110625000Y-120725000I250000J0D01*
G01*
X111375000Y-120725000D01*
G75*
G02*
X111625000Y-120975000I0J-250000D01*
G01*
X111625000Y-123125000D01*
G75*
G02*
X111375000Y-123375000I-250000J0D01*
G01*
X110625000Y-123375000D01*
G75*
G02*
X110375000Y-123125000I0J250000D01*
G01*
G37*
G36*
G01*
X107575000Y-123125000D02*
X107575000Y-120975000D01*
G75*
G02*
X107825000Y-120725000I250000J0D01*
G01*
X108575000Y-120725000D01*
G75*
G02*
X108825000Y-120975000I0J-250000D01*
G01*
X108825000Y-123125000D01*
G75*
G02*
X108575000Y-123375000I-250000J0D01*
G01*
X107825000Y-123375000D01*
G75*
G02*
X107575000Y-123125000I0J250000D01*
G01*
G37*
G36*
G01*
X110375000Y-102625000D02*
X110375000Y-100475000D01*
G75*
G02*
X110625000Y-100225000I250000J0D01*
G01*
X111375000Y-100225000D01*
G75*
G02*
X111625000Y-100475000I0J-250000D01*
G01*
X111625000Y-102625000D01*
G75*
G02*
X111375000Y-102875000I-250000J0D01*
G01*
X110625000Y-102875000D01*
G75*
G02*
X110375000Y-102625000I0J250000D01*
G01*
G37*
G36*
G01*
X107575000Y-102625000D02*
X107575000Y-100475000D01*
G75*
G02*
X107825000Y-100225000I250000J0D01*
G01*
X108575000Y-100225000D01*
G75*
G02*
X108825000Y-100475000I0J-250000D01*
G01*
X108825000Y-102625000D01*
G75*
G02*
X108575000Y-102875000I-250000J0D01*
G01*
X107825000Y-102875000D01*
G75*
G02*
X107575000Y-102625000I0J250000D01*
G01*
G37*
D10*
X179100000Y-82750000D03*
X180050000Y-84750000D03*
X178150000Y-84750000D03*
G36*
G01*
X142475000Y-134175000D02*
X141925000Y-134175000D01*
G75*
G02*
X141725000Y-133975000I0J200000D01*
G01*
X141725000Y-133575000D01*
G75*
G02*
X141925000Y-133375000I200000J0D01*
G01*
X142475000Y-133375000D01*
G75*
G02*
X142675000Y-133575000I0J-200000D01*
G01*
X142675000Y-133975000D01*
G75*
G02*
X142475000Y-134175000I-200000J0D01*
G01*
G37*
G36*
G01*
X142475000Y-135825000D02*
X141925000Y-135825000D01*
G75*
G02*
X141725000Y-135625000I0J200000D01*
G01*
X141725000Y-135225000D01*
G75*
G02*
X141925000Y-135025000I200000J0D01*
G01*
X142475000Y-135025000D01*
G75*
G02*
X142675000Y-135225000I0J-200000D01*
G01*
X142675000Y-135625000D01*
G75*
G02*
X142475000Y-135825000I-200000J0D01*
G01*
G37*
G36*
G01*
X139125000Y-138625000D02*
X139675000Y-138625000D01*
G75*
G02*
X139875000Y-138825000I0J-200000D01*
G01*
X139875000Y-139225000D01*
G75*
G02*
X139675000Y-139425000I-200000J0D01*
G01*
X139125000Y-139425000D01*
G75*
G02*
X138925000Y-139225000I0J200000D01*
G01*
X138925000Y-138825000D01*
G75*
G02*
X139125000Y-138625000I200000J0D01*
G01*
G37*
G36*
G01*
X139125000Y-136975000D02*
X139675000Y-136975000D01*
G75*
G02*
X139875000Y-137175000I0J-200000D01*
G01*
X139875000Y-137575000D01*
G75*
G02*
X139675000Y-137775000I-200000J0D01*
G01*
X139125000Y-137775000D01*
G75*
G02*
X138925000Y-137575000I0J200000D01*
G01*
X138925000Y-137175000D01*
G75*
G02*
X139125000Y-136975000I200000J0D01*
G01*
G37*
G36*
G01*
X122325000Y-78675000D02*
X122875000Y-78675000D01*
G75*
G02*
X123075000Y-78875000I0J-200000D01*
G01*
X123075000Y-79275000D01*
G75*
G02*
X122875000Y-79475000I-200000J0D01*
G01*
X122325000Y-79475000D01*
G75*
G02*
X122125000Y-79275000I0J200000D01*
G01*
X122125000Y-78875000D01*
G75*
G02*
X122325000Y-78675000I200000J0D01*
G01*
G37*
G36*
G01*
X122325000Y-77025000D02*
X122875000Y-77025000D01*
G75*
G02*
X123075000Y-77225000I0J-200000D01*
G01*
X123075000Y-77625000D01*
G75*
G02*
X122875000Y-77825000I-200000J0D01*
G01*
X122325000Y-77825000D01*
G75*
G02*
X122125000Y-77625000I0J200000D01*
G01*
X122125000Y-77225000D01*
G75*
G02*
X122325000Y-77025000I200000J0D01*
G01*
G37*
D13*
X116615000Y-128900000D03*
D14*
X113915000Y-128300000D03*
D15*
X119635000Y-126990000D03*
X119635000Y-128260000D03*
X119635000Y-130810000D03*
X119635000Y-129540000D03*
D14*
X113915000Y-129500000D03*
X113915000Y-127020000D03*
X113915000Y-130780000D03*
D13*
X117465000Y-128900000D03*
X115765000Y-128900000D03*
X115765000Y-127750000D03*
X117465000Y-127750000D03*
X116615000Y-127750000D03*
X115765000Y-130050000D03*
X117465000Y-130050000D03*
X116615000Y-130050000D03*
X116615000Y-108400000D03*
D14*
X113915000Y-107800000D03*
D15*
X119635000Y-106490000D03*
X119635000Y-107760000D03*
X119635000Y-110310000D03*
X119635000Y-109040000D03*
D14*
X113915000Y-109000000D03*
X113915000Y-106520000D03*
X113915000Y-110280000D03*
D13*
X117465000Y-108400000D03*
X115765000Y-108400000D03*
X115765000Y-107250000D03*
X117465000Y-107250000D03*
X116615000Y-107250000D03*
X115765000Y-109550000D03*
X117465000Y-109550000D03*
X116615000Y-109550000D03*
X116615000Y-81100000D03*
D14*
X113915000Y-80500000D03*
D15*
X119635000Y-79190000D03*
X119635000Y-80460000D03*
X119635000Y-83010000D03*
X119635000Y-81740000D03*
D14*
X113915000Y-81700000D03*
X113915000Y-79220000D03*
X113915000Y-82980000D03*
D13*
X117465000Y-81100000D03*
X115765000Y-81100000D03*
X115765000Y-79950000D03*
X117465000Y-79950000D03*
X116615000Y-79950000D03*
X115765000Y-82250000D03*
X117465000Y-82250000D03*
X116615000Y-82250000D03*
G36*
G01*
X110375000Y-129975000D02*
X110375000Y-127825000D01*
G75*
G02*
X110625000Y-127575000I250000J0D01*
G01*
X111375000Y-127575000D01*
G75*
G02*
X111625000Y-127825000I0J-250000D01*
G01*
X111625000Y-129975000D01*
G75*
G02*
X111375000Y-130225000I-250000J0D01*
G01*
X110625000Y-130225000D01*
G75*
G02*
X110375000Y-129975000I0J250000D01*
G01*
G37*
G36*
G01*
X107575000Y-129975000D02*
X107575000Y-127825000D01*
G75*
G02*
X107825000Y-127575000I250000J0D01*
G01*
X108575000Y-127575000D01*
G75*
G02*
X108825000Y-127825000I0J-250000D01*
G01*
X108825000Y-129975000D01*
G75*
G02*
X108575000Y-130225000I-250000J0D01*
G01*
X107825000Y-130225000D01*
G75*
G02*
X107575000Y-129975000I0J250000D01*
G01*
G37*
G36*
G01*
X110375000Y-109475000D02*
X110375000Y-107325000D01*
G75*
G02*
X110625000Y-107075000I250000J0D01*
G01*
X111375000Y-107075000D01*
G75*
G02*
X111625000Y-107325000I0J-250000D01*
G01*
X111625000Y-109475000D01*
G75*
G02*
X111375000Y-109725000I-250000J0D01*
G01*
X110625000Y-109725000D01*
G75*
G02*
X110375000Y-109475000I0J250000D01*
G01*
G37*
G36*
G01*
X107575000Y-109475000D02*
X107575000Y-107325000D01*
G75*
G02*
X107825000Y-107075000I250000J0D01*
G01*
X108575000Y-107075000D01*
G75*
G02*
X108825000Y-107325000I0J-250000D01*
G01*
X108825000Y-109475000D01*
G75*
G02*
X108575000Y-109725000I-250000J0D01*
G01*
X107825000Y-109725000D01*
G75*
G02*
X107575000Y-109475000I0J250000D01*
G01*
G37*
G36*
G01*
X110375000Y-82175000D02*
X110375000Y-80025000D01*
G75*
G02*
X110625000Y-79775000I250000J0D01*
G01*
X111375000Y-79775000D01*
G75*
G02*
X111625000Y-80025000I0J-250000D01*
G01*
X111625000Y-82175000D01*
G75*
G02*
X111375000Y-82425000I-250000J0D01*
G01*
X110625000Y-82425000D01*
G75*
G02*
X110375000Y-82175000I0J250000D01*
G01*
G37*
G36*
G01*
X107575000Y-82175000D02*
X107575000Y-80025000D01*
G75*
G02*
X107825000Y-79775000I250000J0D01*
G01*
X108575000Y-79775000D01*
G75*
G02*
X108825000Y-80025000I0J-250000D01*
G01*
X108825000Y-82175000D01*
G75*
G02*
X108575000Y-82425000I-250000J0D01*
G01*
X107825000Y-82425000D01*
G75*
G02*
X107575000Y-82175000I0J250000D01*
G01*
G37*
D16*
X146000000Y-134300000D03*
X144000000Y-135250000D03*
X144000000Y-133350000D03*
X134800000Y-134300000D03*
X132800000Y-135250000D03*
X132800000Y-133350000D03*
X129200000Y-134300000D03*
X127200000Y-135250000D03*
X127200000Y-133350000D03*
G36*
G01*
X126795000Y-71400000D02*
X126495000Y-71400000D01*
G75*
G02*
X126345000Y-71250000I0J150000D01*
G01*
X126345000Y-69600000D01*
G75*
G02*
X126495000Y-69450000I150000J0D01*
G01*
X126795000Y-69450000D01*
G75*
G02*
X126945000Y-69600000I0J-150000D01*
G01*
X126945000Y-71250000D01*
G75*
G02*
X126795000Y-71400000I-150000J0D01*
G01*
G37*
G36*
G01*
X128065000Y-71400000D02*
X127765000Y-71400000D01*
G75*
G02*
X127615000Y-71250000I0J150000D01*
G01*
X127615000Y-69600000D01*
G75*
G02*
X127765000Y-69450000I150000J0D01*
G01*
X128065000Y-69450000D01*
G75*
G02*
X128215000Y-69600000I0J-150000D01*
G01*
X128215000Y-71250000D01*
G75*
G02*
X128065000Y-71400000I-150000J0D01*
G01*
G37*
G36*
G01*
X129335000Y-71400000D02*
X129035000Y-71400000D01*
G75*
G02*
X128885000Y-71250000I0J150000D01*
G01*
X128885000Y-69600000D01*
G75*
G02*
X129035000Y-69450000I150000J0D01*
G01*
X129335000Y-69450000D01*
G75*
G02*
X129485000Y-69600000I0J-150000D01*
G01*
X129485000Y-71250000D01*
G75*
G02*
X129335000Y-71400000I-150000J0D01*
G01*
G37*
G36*
G01*
X130605000Y-71400000D02*
X130305000Y-71400000D01*
G75*
G02*
X130155000Y-71250000I0J150000D01*
G01*
X130155000Y-69600000D01*
G75*
G02*
X130305000Y-69450000I150000J0D01*
G01*
X130605000Y-69450000D01*
G75*
G02*
X130755000Y-69600000I0J-150000D01*
G01*
X130755000Y-71250000D01*
G75*
G02*
X130605000Y-71400000I-150000J0D01*
G01*
G37*
G36*
G01*
X130605000Y-76350000D02*
X130305000Y-76350000D01*
G75*
G02*
X130155000Y-76200000I0J150000D01*
G01*
X130155000Y-74550000D01*
G75*
G02*
X130305000Y-74400000I150000J0D01*
G01*
X130605000Y-74400000D01*
G75*
G02*
X130755000Y-74550000I0J-150000D01*
G01*
X130755000Y-76200000D01*
G75*
G02*
X130605000Y-76350000I-150000J0D01*
G01*
G37*
G36*
G01*
X129335000Y-76350000D02*
X129035000Y-76350000D01*
G75*
G02*
X128885000Y-76200000I0J150000D01*
G01*
X128885000Y-74550000D01*
G75*
G02*
X129035000Y-74400000I150000J0D01*
G01*
X129335000Y-74400000D01*
G75*
G02*
X129485000Y-74550000I0J-150000D01*
G01*
X129485000Y-76200000D01*
G75*
G02*
X129335000Y-76350000I-150000J0D01*
G01*
G37*
G36*
G01*
X128065000Y-76350000D02*
X127765000Y-76350000D01*
G75*
G02*
X127615000Y-76200000I0J150000D01*
G01*
X127615000Y-74550000D01*
G75*
G02*
X127765000Y-74400000I150000J0D01*
G01*
X128065000Y-74400000D01*
G75*
G02*
X128215000Y-74550000I0J-150000D01*
G01*
X128215000Y-76200000D01*
G75*
G02*
X128065000Y-76350000I-150000J0D01*
G01*
G37*
G36*
G01*
X126795000Y-76350000D02*
X126495000Y-76350000D01*
G75*
G02*
X126345000Y-76200000I0J150000D01*
G01*
X126345000Y-74550000D01*
G75*
G02*
X126495000Y-74400000I150000J0D01*
G01*
X126795000Y-74400000D01*
G75*
G02*
X126945000Y-74550000I0J-150000D01*
G01*
X126945000Y-76200000D01*
G75*
G02*
X126795000Y-76350000I-150000J0D01*
G01*
G37*
D17*
X190000000Y-74050000D03*
X188100000Y-74050000D03*
X188100000Y-71850000D03*
X189050000Y-71850000D03*
X190000000Y-71850000D03*
D18*
X139240000Y-96100000D03*
X130060000Y-96100000D03*
G36*
G01*
X178975000Y-97525000D02*
X178975000Y-98075000D01*
G75*
G02*
X178775000Y-98275000I-200000J0D01*
G01*
X178375000Y-98275000D01*
G75*
G02*
X178175000Y-98075000I0J200000D01*
G01*
X178175000Y-97525000D01*
G75*
G02*
X178375000Y-97325000I200000J0D01*
G01*
X178775000Y-97325000D01*
G75*
G02*
X178975000Y-97525000I0J-200000D01*
G01*
G37*
G36*
G01*
X180625000Y-97525000D02*
X180625000Y-98075000D01*
G75*
G02*
X180425000Y-98275000I-200000J0D01*
G01*
X180025000Y-98275000D01*
G75*
G02*
X179825000Y-98075000I0J200000D01*
G01*
X179825000Y-97525000D01*
G75*
G02*
X180025000Y-97325000I200000J0D01*
G01*
X180425000Y-97325000D01*
G75*
G02*
X180625000Y-97525000I0J-200000D01*
G01*
G37*
G36*
G01*
X178975000Y-86325000D02*
X178975000Y-86875000D01*
G75*
G02*
X178775000Y-87075000I-200000J0D01*
G01*
X178375000Y-87075000D01*
G75*
G02*
X178175000Y-86875000I0J200000D01*
G01*
X178175000Y-86325000D01*
G75*
G02*
X178375000Y-86125000I200000J0D01*
G01*
X178775000Y-86125000D01*
G75*
G02*
X178975000Y-86325000I0J-200000D01*
G01*
G37*
G36*
G01*
X180625000Y-86325000D02*
X180625000Y-86875000D01*
G75*
G02*
X180425000Y-87075000I-200000J0D01*
G01*
X180025000Y-87075000D01*
G75*
G02*
X179825000Y-86875000I0J200000D01*
G01*
X179825000Y-86325000D01*
G75*
G02*
X180025000Y-86125000I200000J0D01*
G01*
X180425000Y-86125000D01*
G75*
G02*
X180625000Y-86325000I0J-200000D01*
G01*
G37*
G36*
G01*
X183725000Y-98075000D02*
X183725000Y-97525000D01*
G75*
G02*
X183925000Y-97325000I200000J0D01*
G01*
X184325000Y-97325000D01*
G75*
G02*
X184525000Y-97525000I0J-200000D01*
G01*
X184525000Y-98075000D01*
G75*
G02*
X184325000Y-98275000I-200000J0D01*
G01*
X183925000Y-98275000D01*
G75*
G02*
X183725000Y-98075000I0J200000D01*
G01*
G37*
G36*
G01*
X182075000Y-98075000D02*
X182075000Y-97525000D01*
G75*
G02*
X182275000Y-97325000I200000J0D01*
G01*
X182675000Y-97325000D01*
G75*
G02*
X182875000Y-97525000I0J-200000D01*
G01*
X182875000Y-98075000D01*
G75*
G02*
X182675000Y-98275000I-200000J0D01*
G01*
X182275000Y-98275000D01*
G75*
G02*
X182075000Y-98075000I0J200000D01*
G01*
G37*
G36*
G01*
X183725000Y-86875000D02*
X183725000Y-86325000D01*
G75*
G02*
X183925000Y-86125000I200000J0D01*
G01*
X184325000Y-86125000D01*
G75*
G02*
X184525000Y-86325000I0J-200000D01*
G01*
X184525000Y-86875000D01*
G75*
G02*
X184325000Y-87075000I-200000J0D01*
G01*
X183925000Y-87075000D01*
G75*
G02*
X183725000Y-86875000I0J200000D01*
G01*
G37*
G36*
G01*
X182075000Y-86875000D02*
X182075000Y-86325000D01*
G75*
G02*
X182275000Y-86125000I200000J0D01*
G01*
X182675000Y-86125000D01*
G75*
G02*
X182875000Y-86325000I0J-200000D01*
G01*
X182875000Y-86875000D01*
G75*
G02*
X182675000Y-87075000I-200000J0D01*
G01*
X182275000Y-87075000D01*
G75*
G02*
X182075000Y-86875000I0J200000D01*
G01*
G37*
G36*
G01*
X179275000Y-119925000D02*
X179275000Y-120475000D01*
G75*
G02*
X179075000Y-120675000I-200000J0D01*
G01*
X178675000Y-120675000D01*
G75*
G02*
X178475000Y-120475000I0J200000D01*
G01*
X178475000Y-119925000D01*
G75*
G02*
X178675000Y-119725000I200000J0D01*
G01*
X179075000Y-119725000D01*
G75*
G02*
X179275000Y-119925000I0J-200000D01*
G01*
G37*
G36*
G01*
X180925000Y-119925000D02*
X180925000Y-120475000D01*
G75*
G02*
X180725000Y-120675000I-200000J0D01*
G01*
X180325000Y-120675000D01*
G75*
G02*
X180125000Y-120475000I0J200000D01*
G01*
X180125000Y-119925000D01*
G75*
G02*
X180325000Y-119725000I200000J0D01*
G01*
X180725000Y-119725000D01*
G75*
G02*
X180925000Y-119925000I0J-200000D01*
G01*
G37*
G36*
G01*
X178875000Y-80675000D02*
X178875000Y-81225000D01*
G75*
G02*
X178675000Y-81425000I-200000J0D01*
G01*
X178275000Y-81425000D01*
G75*
G02*
X178075000Y-81225000I0J200000D01*
G01*
X178075000Y-80675000D01*
G75*
G02*
X178275000Y-80475000I200000J0D01*
G01*
X178675000Y-80475000D01*
G75*
G02*
X178875000Y-80675000I0J-200000D01*
G01*
G37*
G36*
G01*
X180525000Y-80675000D02*
X180525000Y-81225000D01*
G75*
G02*
X180325000Y-81425000I-200000J0D01*
G01*
X179925000Y-81425000D01*
G75*
G02*
X179725000Y-81225000I0J200000D01*
G01*
X179725000Y-80675000D01*
G75*
G02*
X179925000Y-80475000I200000J0D01*
G01*
X180325000Y-80475000D01*
G75*
G02*
X180525000Y-80675000I0J-200000D01*
G01*
G37*
G36*
G01*
X179275000Y-125525000D02*
X179275000Y-126075000D01*
G75*
G02*
X179075000Y-126275000I-200000J0D01*
G01*
X178675000Y-126275000D01*
G75*
G02*
X178475000Y-126075000I0J200000D01*
G01*
X178475000Y-125525000D01*
G75*
G02*
X178675000Y-125325000I200000J0D01*
G01*
X179075000Y-125325000D01*
G75*
G02*
X179275000Y-125525000I0J-200000D01*
G01*
G37*
G36*
G01*
X180925000Y-125525000D02*
X180925000Y-126075000D01*
G75*
G02*
X180725000Y-126275000I-200000J0D01*
G01*
X180325000Y-126275000D01*
G75*
G02*
X180125000Y-126075000I0J200000D01*
G01*
X180125000Y-125525000D01*
G75*
G02*
X180325000Y-125325000I200000J0D01*
G01*
X180725000Y-125325000D01*
G75*
G02*
X180925000Y-125525000I0J-200000D01*
G01*
G37*
G36*
G01*
X178975000Y-91925000D02*
X178975000Y-92475000D01*
G75*
G02*
X178775000Y-92675000I-200000J0D01*
G01*
X178375000Y-92675000D01*
G75*
G02*
X178175000Y-92475000I0J200000D01*
G01*
X178175000Y-91925000D01*
G75*
G02*
X178375000Y-91725000I200000J0D01*
G01*
X178775000Y-91725000D01*
G75*
G02*
X178975000Y-91925000I0J-200000D01*
G01*
G37*
G36*
G01*
X180625000Y-91925000D02*
X180625000Y-92475000D01*
G75*
G02*
X180425000Y-92675000I-200000J0D01*
G01*
X180025000Y-92675000D01*
G75*
G02*
X179825000Y-92475000I0J200000D01*
G01*
X179825000Y-91925000D01*
G75*
G02*
X180025000Y-91725000I200000J0D01*
G01*
X180425000Y-91725000D01*
G75*
G02*
X180625000Y-91925000I0J-200000D01*
G01*
G37*
G36*
G01*
X183725000Y-120475000D02*
X183725000Y-119925000D01*
G75*
G02*
X183925000Y-119725000I200000J0D01*
G01*
X184325000Y-119725000D01*
G75*
G02*
X184525000Y-119925000I0J-200000D01*
G01*
X184525000Y-120475000D01*
G75*
G02*
X184325000Y-120675000I-200000J0D01*
G01*
X183925000Y-120675000D01*
G75*
G02*
X183725000Y-120475000I0J200000D01*
G01*
G37*
G36*
G01*
X182075000Y-120475000D02*
X182075000Y-119925000D01*
G75*
G02*
X182275000Y-119725000I200000J0D01*
G01*
X182675000Y-119725000D01*
G75*
G02*
X182875000Y-119925000I0J-200000D01*
G01*
X182875000Y-120475000D01*
G75*
G02*
X182675000Y-120675000I-200000J0D01*
G01*
X182275000Y-120675000D01*
G75*
G02*
X182075000Y-120475000I0J200000D01*
G01*
G37*
G36*
G01*
X183725000Y-81225000D02*
X183725000Y-80675000D01*
G75*
G02*
X183925000Y-80475000I200000J0D01*
G01*
X184325000Y-80475000D01*
G75*
G02*
X184525000Y-80675000I0J-200000D01*
G01*
X184525000Y-81225000D01*
G75*
G02*
X184325000Y-81425000I-200000J0D01*
G01*
X183925000Y-81425000D01*
G75*
G02*
X183725000Y-81225000I0J200000D01*
G01*
G37*
G36*
G01*
X182075000Y-81225000D02*
X182075000Y-80675000D01*
G75*
G02*
X182275000Y-80475000I200000J0D01*
G01*
X182675000Y-80475000D01*
G75*
G02*
X182875000Y-80675000I0J-200000D01*
G01*
X182875000Y-81225000D01*
G75*
G02*
X182675000Y-81425000I-200000J0D01*
G01*
X182275000Y-81425000D01*
G75*
G02*
X182075000Y-81225000I0J200000D01*
G01*
G37*
G36*
G01*
X107975000Y-64425000D02*
X107975000Y-64975000D01*
G75*
G02*
X107775000Y-65175000I-200000J0D01*
G01*
X107375000Y-65175000D01*
G75*
G02*
X107175000Y-64975000I0J200000D01*
G01*
X107175000Y-64425000D01*
G75*
G02*
X107375000Y-64225000I200000J0D01*
G01*
X107775000Y-64225000D01*
G75*
G02*
X107975000Y-64425000I0J-200000D01*
G01*
G37*
G36*
G01*
X109625000Y-64425000D02*
X109625000Y-64975000D01*
G75*
G02*
X109425000Y-65175000I-200000J0D01*
G01*
X109025000Y-65175000D01*
G75*
G02*
X108825000Y-64975000I0J200000D01*
G01*
X108825000Y-64425000D01*
G75*
G02*
X109025000Y-64225000I200000J0D01*
G01*
X109425000Y-64225000D01*
G75*
G02*
X109625000Y-64425000I0J-200000D01*
G01*
G37*
G36*
G01*
X108425000Y-52950000D02*
X107875000Y-52950000D01*
G75*
G02*
X107675000Y-52750000I0J200000D01*
G01*
X107675000Y-52350000D01*
G75*
G02*
X107875000Y-52150000I200000J0D01*
G01*
X108425000Y-52150000D01*
G75*
G02*
X108625000Y-52350000I0J-200000D01*
G01*
X108625000Y-52750000D01*
G75*
G02*
X108425000Y-52950000I-200000J0D01*
G01*
G37*
G36*
G01*
X108425000Y-54600000D02*
X107875000Y-54600000D01*
G75*
G02*
X107675000Y-54400000I0J200000D01*
G01*
X107675000Y-54000000D01*
G75*
G02*
X107875000Y-53800000I200000J0D01*
G01*
X108425000Y-53800000D01*
G75*
G02*
X108625000Y-54000000I0J-200000D01*
G01*
X108625000Y-54400000D01*
G75*
G02*
X108425000Y-54600000I-200000J0D01*
G01*
G37*
G36*
G01*
X141375000Y-64625000D02*
X141925000Y-64625000D01*
G75*
G02*
X142125000Y-64825000I0J-200000D01*
G01*
X142125000Y-65225000D01*
G75*
G02*
X141925000Y-65425000I-200000J0D01*
G01*
X141375000Y-65425000D01*
G75*
G02*
X141175000Y-65225000I0J200000D01*
G01*
X141175000Y-64825000D01*
G75*
G02*
X141375000Y-64625000I200000J0D01*
G01*
G37*
G36*
G01*
X141375000Y-62975000D02*
X141925000Y-62975000D01*
G75*
G02*
X142125000Y-63175000I0J-200000D01*
G01*
X142125000Y-63575000D01*
G75*
G02*
X141925000Y-63775000I-200000J0D01*
G01*
X141375000Y-63775000D01*
G75*
G02*
X141175000Y-63575000I0J200000D01*
G01*
X141175000Y-63175000D01*
G75*
G02*
X141375000Y-62975000I200000J0D01*
G01*
G37*
G36*
G01*
X152675000Y-64625000D02*
X153225000Y-64625000D01*
G75*
G02*
X153425000Y-64825000I0J-200000D01*
G01*
X153425000Y-65225000D01*
G75*
G02*
X153225000Y-65425000I-200000J0D01*
G01*
X152675000Y-65425000D01*
G75*
G02*
X152475000Y-65225000I0J200000D01*
G01*
X152475000Y-64825000D01*
G75*
G02*
X152675000Y-64625000I200000J0D01*
G01*
G37*
G36*
G01*
X152675000Y-62975000D02*
X153225000Y-62975000D01*
G75*
G02*
X153425000Y-63175000I0J-200000D01*
G01*
X153425000Y-63575000D01*
G75*
G02*
X153225000Y-63775000I-200000J0D01*
G01*
X152675000Y-63775000D01*
G75*
G02*
X152475000Y-63575000I0J200000D01*
G01*
X152475000Y-63175000D01*
G75*
G02*
X152675000Y-62975000I200000J0D01*
G01*
G37*
G36*
G01*
X108000000Y-70225000D02*
X108000000Y-70775000D01*
G75*
G02*
X107800000Y-70975000I-200000J0D01*
G01*
X107400000Y-70975000D01*
G75*
G02*
X107200000Y-70775000I0J200000D01*
G01*
X107200000Y-70225000D01*
G75*
G02*
X107400000Y-70025000I200000J0D01*
G01*
X107800000Y-70025000D01*
G75*
G02*
X108000000Y-70225000I0J-200000D01*
G01*
G37*
G36*
G01*
X109650000Y-70225000D02*
X109650000Y-70775000D01*
G75*
G02*
X109450000Y-70975000I-200000J0D01*
G01*
X109050000Y-70975000D01*
G75*
G02*
X108850000Y-70775000I0J200000D01*
G01*
X108850000Y-70225000D01*
G75*
G02*
X109050000Y-70025000I200000J0D01*
G01*
X109450000Y-70025000D01*
G75*
G02*
X109650000Y-70225000I0J-200000D01*
G01*
G37*
G36*
G01*
X107875000Y-57575000D02*
X108425000Y-57575000D01*
G75*
G02*
X108625000Y-57775000I0J-200000D01*
G01*
X108625000Y-58175000D01*
G75*
G02*
X108425000Y-58375000I-200000J0D01*
G01*
X107875000Y-58375000D01*
G75*
G02*
X107675000Y-58175000I0J200000D01*
G01*
X107675000Y-57775000D01*
G75*
G02*
X107875000Y-57575000I200000J0D01*
G01*
G37*
G36*
G01*
X107875000Y-55925000D02*
X108425000Y-55925000D01*
G75*
G02*
X108625000Y-56125000I0J-200000D01*
G01*
X108625000Y-56525000D01*
G75*
G02*
X108425000Y-56725000I-200000J0D01*
G01*
X107875000Y-56725000D01*
G75*
G02*
X107675000Y-56525000I0J200000D01*
G01*
X107675000Y-56125000D01*
G75*
G02*
X107875000Y-55925000I200000J0D01*
G01*
G37*
G36*
G01*
X171475000Y-83075000D02*
X170925000Y-83075000D01*
G75*
G02*
X170725000Y-82875000I0J200000D01*
G01*
X170725000Y-82475000D01*
G75*
G02*
X170925000Y-82275000I200000J0D01*
G01*
X171475000Y-82275000D01*
G75*
G02*
X171675000Y-82475000I0J-200000D01*
G01*
X171675000Y-82875000D01*
G75*
G02*
X171475000Y-83075000I-200000J0D01*
G01*
G37*
G36*
G01*
X171475000Y-84725000D02*
X170925000Y-84725000D01*
G75*
G02*
X170725000Y-84525000I0J200000D01*
G01*
X170725000Y-84125000D01*
G75*
G02*
X170925000Y-83925000I200000J0D01*
G01*
X171475000Y-83925000D01*
G75*
G02*
X171675000Y-84125000I0J-200000D01*
G01*
X171675000Y-84525000D01*
G75*
G02*
X171475000Y-84725000I-200000J0D01*
G01*
G37*
G36*
G01*
X138575000Y-64625000D02*
X139125000Y-64625000D01*
G75*
G02*
X139325000Y-64825000I0J-200000D01*
G01*
X139325000Y-65225000D01*
G75*
G02*
X139125000Y-65425000I-200000J0D01*
G01*
X138575000Y-65425000D01*
G75*
G02*
X138375000Y-65225000I0J200000D01*
G01*
X138375000Y-64825000D01*
G75*
G02*
X138575000Y-64625000I200000J0D01*
G01*
G37*
G36*
G01*
X138575000Y-62975000D02*
X139125000Y-62975000D01*
G75*
G02*
X139325000Y-63175000I0J-200000D01*
G01*
X139325000Y-63575000D01*
G75*
G02*
X139125000Y-63775000I-200000J0D01*
G01*
X138575000Y-63775000D01*
G75*
G02*
X138375000Y-63575000I0J200000D01*
G01*
X138375000Y-63175000D01*
G75*
G02*
X138575000Y-62975000I200000J0D01*
G01*
G37*
G36*
G01*
X155525000Y-64625000D02*
X156075000Y-64625000D01*
G75*
G02*
X156275000Y-64825000I0J-200000D01*
G01*
X156275000Y-65225000D01*
G75*
G02*
X156075000Y-65425000I-200000J0D01*
G01*
X155525000Y-65425000D01*
G75*
G02*
X155325000Y-65225000I0J200000D01*
G01*
X155325000Y-64825000D01*
G75*
G02*
X155525000Y-64625000I200000J0D01*
G01*
G37*
G36*
G01*
X155525000Y-62975000D02*
X156075000Y-62975000D01*
G75*
G02*
X156275000Y-63175000I0J-200000D01*
G01*
X156275000Y-63575000D01*
G75*
G02*
X156075000Y-63775000I-200000J0D01*
G01*
X155525000Y-63775000D01*
G75*
G02*
X155325000Y-63575000I0J200000D01*
G01*
X155325000Y-63175000D01*
G75*
G02*
X155525000Y-62975000I200000J0D01*
G01*
G37*
G36*
G01*
X144125000Y-64625000D02*
X144675000Y-64625000D01*
G75*
G02*
X144875000Y-64825000I0J-200000D01*
G01*
X144875000Y-65225000D01*
G75*
G02*
X144675000Y-65425000I-200000J0D01*
G01*
X144125000Y-65425000D01*
G75*
G02*
X143925000Y-65225000I0J200000D01*
G01*
X143925000Y-64825000D01*
G75*
G02*
X144125000Y-64625000I200000J0D01*
G01*
G37*
G36*
G01*
X144125000Y-62975000D02*
X144675000Y-62975000D01*
G75*
G02*
X144875000Y-63175000I0J-200000D01*
G01*
X144875000Y-63575000D01*
G75*
G02*
X144675000Y-63775000I-200000J0D01*
G01*
X144125000Y-63775000D01*
G75*
G02*
X143925000Y-63575000I0J200000D01*
G01*
X143925000Y-63175000D01*
G75*
G02*
X144125000Y-62975000I200000J0D01*
G01*
G37*
G36*
G01*
X149825000Y-64625000D02*
X150375000Y-64625000D01*
G75*
G02*
X150575000Y-64825000I0J-200000D01*
G01*
X150575000Y-65225000D01*
G75*
G02*
X150375000Y-65425000I-200000J0D01*
G01*
X149825000Y-65425000D01*
G75*
G02*
X149625000Y-65225000I0J200000D01*
G01*
X149625000Y-64825000D01*
G75*
G02*
X149825000Y-64625000I200000J0D01*
G01*
G37*
G36*
G01*
X149825000Y-62975000D02*
X150375000Y-62975000D01*
G75*
G02*
X150575000Y-63175000I0J-200000D01*
G01*
X150575000Y-63575000D01*
G75*
G02*
X150375000Y-63775000I-200000J0D01*
G01*
X149825000Y-63775000D01*
G75*
G02*
X149625000Y-63575000I0J200000D01*
G01*
X149625000Y-63175000D01*
G75*
G02*
X149825000Y-62975000I200000J0D01*
G01*
G37*
G36*
G01*
X146975000Y-64625000D02*
X147525000Y-64625000D01*
G75*
G02*
X147725000Y-64825000I0J-200000D01*
G01*
X147725000Y-65225000D01*
G75*
G02*
X147525000Y-65425000I-200000J0D01*
G01*
X146975000Y-65425000D01*
G75*
G02*
X146775000Y-65225000I0J200000D01*
G01*
X146775000Y-64825000D01*
G75*
G02*
X146975000Y-64625000I200000J0D01*
G01*
G37*
G36*
G01*
X146975000Y-62975000D02*
X147525000Y-62975000D01*
G75*
G02*
X147725000Y-63175000I0J-200000D01*
G01*
X147725000Y-63575000D01*
G75*
G02*
X147525000Y-63775000I-200000J0D01*
G01*
X146975000Y-63775000D01*
G75*
G02*
X146775000Y-63575000I0J200000D01*
G01*
X146775000Y-63175000D01*
G75*
G02*
X146975000Y-62975000I200000J0D01*
G01*
G37*
G36*
G01*
X183725000Y-126075000D02*
X183725000Y-125525000D01*
G75*
G02*
X183925000Y-125325000I200000J0D01*
G01*
X184325000Y-125325000D01*
G75*
G02*
X184525000Y-125525000I0J-200000D01*
G01*
X184525000Y-126075000D01*
G75*
G02*
X184325000Y-126275000I-200000J0D01*
G01*
X183925000Y-126275000D01*
G75*
G02*
X183725000Y-126075000I0J200000D01*
G01*
G37*
G36*
G01*
X182075000Y-126075000D02*
X182075000Y-125525000D01*
G75*
G02*
X182275000Y-125325000I200000J0D01*
G01*
X182675000Y-125325000D01*
G75*
G02*
X182875000Y-125525000I0J-200000D01*
G01*
X182875000Y-126075000D01*
G75*
G02*
X182675000Y-126275000I-200000J0D01*
G01*
X182275000Y-126275000D01*
G75*
G02*
X182075000Y-126075000I0J200000D01*
G01*
G37*
G36*
G01*
X148075000Y-134175000D02*
X147525000Y-134175000D01*
G75*
G02*
X147325000Y-133975000I0J200000D01*
G01*
X147325000Y-133575000D01*
G75*
G02*
X147525000Y-133375000I200000J0D01*
G01*
X148075000Y-133375000D01*
G75*
G02*
X148275000Y-133575000I0J-200000D01*
G01*
X148275000Y-133975000D01*
G75*
G02*
X148075000Y-134175000I-200000J0D01*
G01*
G37*
G36*
G01*
X148075000Y-135825000D02*
X147525000Y-135825000D01*
G75*
G02*
X147325000Y-135625000I0J200000D01*
G01*
X147325000Y-135225000D01*
G75*
G02*
X147525000Y-135025000I200000J0D01*
G01*
X148075000Y-135025000D01*
G75*
G02*
X148275000Y-135225000I0J-200000D01*
G01*
X148275000Y-135625000D01*
G75*
G02*
X148075000Y-135825000I-200000J0D01*
G01*
G37*
G36*
G01*
X183725000Y-92475000D02*
X183725000Y-91925000D01*
G75*
G02*
X183925000Y-91725000I200000J0D01*
G01*
X184325000Y-91725000D01*
G75*
G02*
X184525000Y-91925000I0J-200000D01*
G01*
X184525000Y-92475000D01*
G75*
G02*
X184325000Y-92675000I-200000J0D01*
G01*
X183925000Y-92675000D01*
G75*
G02*
X183725000Y-92475000I0J200000D01*
G01*
G37*
G36*
G01*
X182075000Y-92475000D02*
X182075000Y-91925000D01*
G75*
G02*
X182275000Y-91725000I200000J0D01*
G01*
X182675000Y-91725000D01*
G75*
G02*
X182875000Y-91925000I0J-200000D01*
G01*
X182875000Y-92475000D01*
G75*
G02*
X182675000Y-92675000I-200000J0D01*
G01*
X182275000Y-92675000D01*
G75*
G02*
X182075000Y-92475000I0J200000D01*
G01*
G37*
G36*
G01*
X179075000Y-103125000D02*
X179075000Y-103675000D01*
G75*
G02*
X178875000Y-103875000I-200000J0D01*
G01*
X178475000Y-103875000D01*
G75*
G02*
X178275000Y-103675000I0J200000D01*
G01*
X178275000Y-103125000D01*
G75*
G02*
X178475000Y-102925000I200000J0D01*
G01*
X178875000Y-102925000D01*
G75*
G02*
X179075000Y-103125000I0J-200000D01*
G01*
G37*
G36*
G01*
X180725000Y-103125000D02*
X180725000Y-103675000D01*
G75*
G02*
X180525000Y-103875000I-200000J0D01*
G01*
X180125000Y-103875000D01*
G75*
G02*
X179925000Y-103675000I0J200000D01*
G01*
X179925000Y-103125000D01*
G75*
G02*
X180125000Y-102925000I200000J0D01*
G01*
X180525000Y-102925000D01*
G75*
G02*
X180725000Y-103125000I0J-200000D01*
G01*
G37*
G36*
G01*
X179275000Y-114325000D02*
X179275000Y-114875000D01*
G75*
G02*
X179075000Y-115075000I-200000J0D01*
G01*
X178675000Y-115075000D01*
G75*
G02*
X178475000Y-114875000I0J200000D01*
G01*
X178475000Y-114325000D01*
G75*
G02*
X178675000Y-114125000I200000J0D01*
G01*
X179075000Y-114125000D01*
G75*
G02*
X179275000Y-114325000I0J-200000D01*
G01*
G37*
G36*
G01*
X180925000Y-114325000D02*
X180925000Y-114875000D01*
G75*
G02*
X180725000Y-115075000I-200000J0D01*
G01*
X180325000Y-115075000D01*
G75*
G02*
X180125000Y-114875000I0J200000D01*
G01*
X180125000Y-114325000D01*
G75*
G02*
X180325000Y-114125000I200000J0D01*
G01*
X180725000Y-114125000D01*
G75*
G02*
X180925000Y-114325000I0J-200000D01*
G01*
G37*
G36*
G01*
X179175000Y-108725000D02*
X179175000Y-109275000D01*
G75*
G02*
X178975000Y-109475000I-200000J0D01*
G01*
X178575000Y-109475000D01*
G75*
G02*
X178375000Y-109275000I0J200000D01*
G01*
X178375000Y-108725000D01*
G75*
G02*
X178575000Y-108525000I200000J0D01*
G01*
X178975000Y-108525000D01*
G75*
G02*
X179175000Y-108725000I0J-200000D01*
G01*
G37*
G36*
G01*
X180825000Y-108725000D02*
X180825000Y-109275000D01*
G75*
G02*
X180625000Y-109475000I-200000J0D01*
G01*
X180225000Y-109475000D01*
G75*
G02*
X180025000Y-109275000I0J200000D01*
G01*
X180025000Y-108725000D01*
G75*
G02*
X180225000Y-108525000I200000J0D01*
G01*
X180625000Y-108525000D01*
G75*
G02*
X180825000Y-108725000I0J-200000D01*
G01*
G37*
G36*
G01*
X131275000Y-134175000D02*
X130725000Y-134175000D01*
G75*
G02*
X130525000Y-133975000I0J200000D01*
G01*
X130525000Y-133575000D01*
G75*
G02*
X130725000Y-133375000I200000J0D01*
G01*
X131275000Y-133375000D01*
G75*
G02*
X131475000Y-133575000I0J-200000D01*
G01*
X131475000Y-133975000D01*
G75*
G02*
X131275000Y-134175000I-200000J0D01*
G01*
G37*
G36*
G01*
X131275000Y-135825000D02*
X130725000Y-135825000D01*
G75*
G02*
X130525000Y-135625000I0J200000D01*
G01*
X130525000Y-135225000D01*
G75*
G02*
X130725000Y-135025000I200000J0D01*
G01*
X131275000Y-135025000D01*
G75*
G02*
X131475000Y-135225000I0J-200000D01*
G01*
X131475000Y-135625000D01*
G75*
G02*
X131275000Y-135825000I-200000J0D01*
G01*
G37*
G36*
G01*
X178975000Y-75025000D02*
X178975000Y-75575000D01*
G75*
G02*
X178775000Y-75775000I-200000J0D01*
G01*
X178375000Y-75775000D01*
G75*
G02*
X178175000Y-75575000I0J200000D01*
G01*
X178175000Y-75025000D01*
G75*
G02*
X178375000Y-74825000I200000J0D01*
G01*
X178775000Y-74825000D01*
G75*
G02*
X178975000Y-75025000I0J-200000D01*
G01*
G37*
G36*
G01*
X180625000Y-75025000D02*
X180625000Y-75575000D01*
G75*
G02*
X180425000Y-75775000I-200000J0D01*
G01*
X180025000Y-75775000D01*
G75*
G02*
X179825000Y-75575000I0J200000D01*
G01*
X179825000Y-75025000D01*
G75*
G02*
X180025000Y-74825000I200000J0D01*
G01*
X180425000Y-74825000D01*
G75*
G02*
X180625000Y-75025000I0J-200000D01*
G01*
G37*
G36*
G01*
X183725000Y-103675000D02*
X183725000Y-103125000D01*
G75*
G02*
X183925000Y-102925000I200000J0D01*
G01*
X184325000Y-102925000D01*
G75*
G02*
X184525000Y-103125000I0J-200000D01*
G01*
X184525000Y-103675000D01*
G75*
G02*
X184325000Y-103875000I-200000J0D01*
G01*
X183925000Y-103875000D01*
G75*
G02*
X183725000Y-103675000I0J200000D01*
G01*
G37*
G36*
G01*
X182075000Y-103675000D02*
X182075000Y-103125000D01*
G75*
G02*
X182275000Y-102925000I200000J0D01*
G01*
X182675000Y-102925000D01*
G75*
G02*
X182875000Y-103125000I0J-200000D01*
G01*
X182875000Y-103675000D01*
G75*
G02*
X182675000Y-103875000I-200000J0D01*
G01*
X182275000Y-103875000D01*
G75*
G02*
X182075000Y-103675000I0J200000D01*
G01*
G37*
G36*
G01*
X183725000Y-114875000D02*
X183725000Y-114325000D01*
G75*
G02*
X183925000Y-114125000I200000J0D01*
G01*
X184325000Y-114125000D01*
G75*
G02*
X184525000Y-114325000I0J-200000D01*
G01*
X184525000Y-114875000D01*
G75*
G02*
X184325000Y-115075000I-200000J0D01*
G01*
X183925000Y-115075000D01*
G75*
G02*
X183725000Y-114875000I0J200000D01*
G01*
G37*
G36*
G01*
X182075000Y-114875000D02*
X182075000Y-114325000D01*
G75*
G02*
X182275000Y-114125000I200000J0D01*
G01*
X182675000Y-114125000D01*
G75*
G02*
X182875000Y-114325000I0J-200000D01*
G01*
X182875000Y-114875000D01*
G75*
G02*
X182675000Y-115075000I-200000J0D01*
G01*
X182275000Y-115075000D01*
G75*
G02*
X182075000Y-114875000I0J200000D01*
G01*
G37*
G36*
G01*
X183725000Y-109275000D02*
X183725000Y-108725000D01*
G75*
G02*
X183925000Y-108525000I200000J0D01*
G01*
X184325000Y-108525000D01*
G75*
G02*
X184525000Y-108725000I0J-200000D01*
G01*
X184525000Y-109275000D01*
G75*
G02*
X184325000Y-109475000I-200000J0D01*
G01*
X183925000Y-109475000D01*
G75*
G02*
X183725000Y-109275000I0J200000D01*
G01*
G37*
G36*
G01*
X182075000Y-109275000D02*
X182075000Y-108725000D01*
G75*
G02*
X182275000Y-108525000I200000J0D01*
G01*
X182675000Y-108525000D01*
G75*
G02*
X182875000Y-108725000I0J-200000D01*
G01*
X182875000Y-109275000D01*
G75*
G02*
X182675000Y-109475000I-200000J0D01*
G01*
X182275000Y-109475000D01*
G75*
G02*
X182075000Y-109275000I0J200000D01*
G01*
G37*
G36*
G01*
X183725000Y-75575000D02*
X183725000Y-75025000D01*
G75*
G02*
X183925000Y-74825000I200000J0D01*
G01*
X184325000Y-74825000D01*
G75*
G02*
X184525000Y-75025000I0J-200000D01*
G01*
X184525000Y-75575000D01*
G75*
G02*
X184325000Y-75775000I-200000J0D01*
G01*
X183925000Y-75775000D01*
G75*
G02*
X183725000Y-75575000I0J200000D01*
G01*
G37*
G36*
G01*
X182075000Y-75575000D02*
X182075000Y-75025000D01*
G75*
G02*
X182275000Y-74825000I200000J0D01*
G01*
X182675000Y-74825000D01*
G75*
G02*
X182875000Y-75025000I0J-200000D01*
G01*
X182875000Y-75575000D01*
G75*
G02*
X182675000Y-75775000I-200000J0D01*
G01*
X182275000Y-75775000D01*
G75*
G02*
X182075000Y-75575000I0J200000D01*
G01*
G37*
G36*
G01*
X107975000Y-67325000D02*
X107975000Y-67875000D01*
G75*
G02*
X107775000Y-68075000I-200000J0D01*
G01*
X107375000Y-68075000D01*
G75*
G02*
X107175000Y-67875000I0J200000D01*
G01*
X107175000Y-67325000D01*
G75*
G02*
X107375000Y-67125000I200000J0D01*
G01*
X107775000Y-67125000D01*
G75*
G02*
X107975000Y-67325000I0J-200000D01*
G01*
G37*
G36*
G01*
X109625000Y-67325000D02*
X109625000Y-67875000D01*
G75*
G02*
X109425000Y-68075000I-200000J0D01*
G01*
X109025000Y-68075000D01*
G75*
G02*
X108825000Y-67875000I0J200000D01*
G01*
X108825000Y-67325000D01*
G75*
G02*
X109025000Y-67125000I200000J0D01*
G01*
X109425000Y-67125000D01*
G75*
G02*
X109625000Y-67325000I0J-200000D01*
G01*
G37*
G36*
G01*
X108825000Y-76375000D02*
X108825000Y-75825000D01*
G75*
G02*
X109025000Y-75625000I200000J0D01*
G01*
X109425000Y-75625000D01*
G75*
G02*
X109625000Y-75825000I0J-200000D01*
G01*
X109625000Y-76375000D01*
G75*
G02*
X109425000Y-76575000I-200000J0D01*
G01*
X109025000Y-76575000D01*
G75*
G02*
X108825000Y-76375000I0J200000D01*
G01*
G37*
G36*
G01*
X107175000Y-76375000D02*
X107175000Y-75825000D01*
G75*
G02*
X107375000Y-75625000I200000J0D01*
G01*
X107775000Y-75625000D01*
G75*
G02*
X107975000Y-75825000I0J-200000D01*
G01*
X107975000Y-76375000D01*
G75*
G02*
X107775000Y-76575000I-200000J0D01*
G01*
X107375000Y-76575000D01*
G75*
G02*
X107175000Y-76375000I0J200000D01*
G01*
G37*
G36*
G01*
X107975000Y-73025000D02*
X107975000Y-73575000D01*
G75*
G02*
X107775000Y-73775000I-200000J0D01*
G01*
X107375000Y-73775000D01*
G75*
G02*
X107175000Y-73575000I0J200000D01*
G01*
X107175000Y-73025000D01*
G75*
G02*
X107375000Y-72825000I200000J0D01*
G01*
X107775000Y-72825000D01*
G75*
G02*
X107975000Y-73025000I0J-200000D01*
G01*
G37*
G36*
G01*
X109625000Y-73025000D02*
X109625000Y-73575000D01*
G75*
G02*
X109425000Y-73775000I-200000J0D01*
G01*
X109025000Y-73775000D01*
G75*
G02*
X108825000Y-73575000I0J200000D01*
G01*
X108825000Y-73025000D01*
G75*
G02*
X109025000Y-72825000I200000J0D01*
G01*
X109425000Y-72825000D01*
G75*
G02*
X109625000Y-73025000I0J-200000D01*
G01*
G37*
G36*
G01*
X108425000Y-60425000D02*
X107875000Y-60425000D01*
G75*
G02*
X107675000Y-60225000I0J200000D01*
G01*
X107675000Y-59825000D01*
G75*
G02*
X107875000Y-59625000I200000J0D01*
G01*
X108425000Y-59625000D01*
G75*
G02*
X108625000Y-59825000I0J-200000D01*
G01*
X108625000Y-60225000D01*
G75*
G02*
X108425000Y-60425000I-200000J0D01*
G01*
G37*
G36*
G01*
X108425000Y-62075000D02*
X107875000Y-62075000D01*
G75*
G02*
X107675000Y-61875000I0J200000D01*
G01*
X107675000Y-61475000D01*
G75*
G02*
X107875000Y-61275000I200000J0D01*
G01*
X108425000Y-61275000D01*
G75*
G02*
X108625000Y-61475000I0J-200000D01*
G01*
X108625000Y-61875000D01*
G75*
G02*
X108425000Y-62075000I-200000J0D01*
G01*
G37*
G36*
G01*
X138475000Y-89625000D02*
X138475000Y-89075000D01*
G75*
G02*
X138675000Y-88875000I200000J0D01*
G01*
X139075000Y-88875000D01*
G75*
G02*
X139275000Y-89075000I0J-200000D01*
G01*
X139275000Y-89625000D01*
G75*
G02*
X139075000Y-89825000I-200000J0D01*
G01*
X138675000Y-89825000D01*
G75*
G02*
X138475000Y-89625000I0J200000D01*
G01*
G37*
G36*
G01*
X136825000Y-89625000D02*
X136825000Y-89075000D01*
G75*
G02*
X137025000Y-88875000I200000J0D01*
G01*
X137425000Y-88875000D01*
G75*
G02*
X137625000Y-89075000I0J-200000D01*
G01*
X137625000Y-89625000D01*
G75*
G02*
X137425000Y-89825000I-200000J0D01*
G01*
X137025000Y-89825000D01*
G75*
G02*
X136825000Y-89625000I0J200000D01*
G01*
G37*
G36*
G01*
X183638000Y-100856250D02*
X183638000Y-100343750D01*
G75*
G02*
X183856750Y-100125000I218750J0D01*
G01*
X184294250Y-100125000D01*
G75*
G02*
X184513000Y-100343750I0J-218750D01*
G01*
X184513000Y-100856250D01*
G75*
G02*
X184294250Y-101075000I-218750J0D01*
G01*
X183856750Y-101075000D01*
G75*
G02*
X183638000Y-100856250I0J218750D01*
G01*
G37*
G36*
G01*
X182063000Y-100856250D02*
X182063000Y-100343750D01*
G75*
G02*
X182281750Y-100125000I218750J0D01*
G01*
X182719250Y-100125000D01*
G75*
G02*
X182938000Y-100343750I0J-218750D01*
G01*
X182938000Y-100856250D01*
G75*
G02*
X182719250Y-101075000I-218750J0D01*
G01*
X182281750Y-101075000D01*
G75*
G02*
X182063000Y-100856250I0J218750D01*
G01*
G37*
G36*
G01*
X183650000Y-89656250D02*
X183650000Y-89143750D01*
G75*
G02*
X183868750Y-88925000I218750J0D01*
G01*
X184306250Y-88925000D01*
G75*
G02*
X184525000Y-89143750I0J-218750D01*
G01*
X184525000Y-89656250D01*
G75*
G02*
X184306250Y-89875000I-218750J0D01*
G01*
X183868750Y-89875000D01*
G75*
G02*
X183650000Y-89656250I0J218750D01*
G01*
G37*
G36*
G01*
X182075000Y-89656250D02*
X182075000Y-89143750D01*
G75*
G02*
X182293750Y-88925000I218750J0D01*
G01*
X182731250Y-88925000D01*
G75*
G02*
X182950000Y-89143750I0J-218750D01*
G01*
X182950000Y-89656250D01*
G75*
G02*
X182731250Y-89875000I-218750J0D01*
G01*
X182293750Y-89875000D01*
G75*
G02*
X182075000Y-89656250I0J218750D01*
G01*
G37*
G36*
G01*
X183650000Y-123256250D02*
X183650000Y-122743750D01*
G75*
G02*
X183868750Y-122525000I218750J0D01*
G01*
X184306250Y-122525000D01*
G75*
G02*
X184525000Y-122743750I0J-218750D01*
G01*
X184525000Y-123256250D01*
G75*
G02*
X184306250Y-123475000I-218750J0D01*
G01*
X183868750Y-123475000D01*
G75*
G02*
X183650000Y-123256250I0J218750D01*
G01*
G37*
G36*
G01*
X182075000Y-123256250D02*
X182075000Y-122743750D01*
G75*
G02*
X182293750Y-122525000I218750J0D01*
G01*
X182731250Y-122525000D01*
G75*
G02*
X182950000Y-122743750I0J-218750D01*
G01*
X182950000Y-123256250D01*
G75*
G02*
X182731250Y-123475000I-218750J0D01*
G01*
X182293750Y-123475000D01*
G75*
G02*
X182075000Y-123256250I0J218750D01*
G01*
G37*
G36*
G01*
X183650000Y-84006250D02*
X183650000Y-83493750D01*
G75*
G02*
X183868750Y-83275000I218750J0D01*
G01*
X184306250Y-83275000D01*
G75*
G02*
X184525000Y-83493750I0J-218750D01*
G01*
X184525000Y-84006250D01*
G75*
G02*
X184306250Y-84225000I-218750J0D01*
G01*
X183868750Y-84225000D01*
G75*
G02*
X183650000Y-84006250I0J218750D01*
G01*
G37*
G36*
G01*
X182075000Y-84006250D02*
X182075000Y-83493750D01*
G75*
G02*
X182293750Y-83275000I218750J0D01*
G01*
X182731250Y-83275000D01*
G75*
G02*
X182950000Y-83493750I0J-218750D01*
G01*
X182950000Y-84006250D01*
G75*
G02*
X182731250Y-84225000I-218750J0D01*
G01*
X182293750Y-84225000D01*
G75*
G02*
X182075000Y-84006250I0J218750D01*
G01*
G37*
G36*
G01*
X183650000Y-128856250D02*
X183650000Y-128343750D01*
G75*
G02*
X183868750Y-128125000I218750J0D01*
G01*
X184306250Y-128125000D01*
G75*
G02*
X184525000Y-128343750I0J-218750D01*
G01*
X184525000Y-128856250D01*
G75*
G02*
X184306250Y-129075000I-218750J0D01*
G01*
X183868750Y-129075000D01*
G75*
G02*
X183650000Y-128856250I0J218750D01*
G01*
G37*
G36*
G01*
X182075000Y-128856250D02*
X182075000Y-128343750D01*
G75*
G02*
X182293750Y-128125000I218750J0D01*
G01*
X182731250Y-128125000D01*
G75*
G02*
X182950000Y-128343750I0J-218750D01*
G01*
X182950000Y-128856250D01*
G75*
G02*
X182731250Y-129075000I-218750J0D01*
G01*
X182293750Y-129075000D01*
G75*
G02*
X182075000Y-128856250I0J218750D01*
G01*
G37*
G36*
G01*
X183650000Y-95256250D02*
X183650000Y-94743750D01*
G75*
G02*
X183868750Y-94525000I218750J0D01*
G01*
X184306250Y-94525000D01*
G75*
G02*
X184525000Y-94743750I0J-218750D01*
G01*
X184525000Y-95256250D01*
G75*
G02*
X184306250Y-95475000I-218750J0D01*
G01*
X183868750Y-95475000D01*
G75*
G02*
X183650000Y-95256250I0J218750D01*
G01*
G37*
G36*
G01*
X182075000Y-95256250D02*
X182075000Y-94743750D01*
G75*
G02*
X182293750Y-94525000I218750J0D01*
G01*
X182731250Y-94525000D01*
G75*
G02*
X182950000Y-94743750I0J-218750D01*
G01*
X182950000Y-95256250D01*
G75*
G02*
X182731250Y-95475000I-218750J0D01*
G01*
X182293750Y-95475000D01*
G75*
G02*
X182075000Y-95256250I0J218750D01*
G01*
G37*
G36*
G01*
X141943750Y-138550000D02*
X142456250Y-138550000D01*
G75*
G02*
X142675000Y-138768750I0J-218750D01*
G01*
X142675000Y-139206250D01*
G75*
G02*
X142456250Y-139425000I-218750J0D01*
G01*
X141943750Y-139425000D01*
G75*
G02*
X141725000Y-139206250I0J218750D01*
G01*
X141725000Y-138768750D01*
G75*
G02*
X141943750Y-138550000I218750J0D01*
G01*
G37*
G36*
G01*
X141943750Y-136975000D02*
X142456250Y-136975000D01*
G75*
G02*
X142675000Y-137193750I0J-218750D01*
G01*
X142675000Y-137631250D01*
G75*
G02*
X142456250Y-137850000I-218750J0D01*
G01*
X141943750Y-137850000D01*
G75*
G02*
X141725000Y-137631250I0J218750D01*
G01*
X141725000Y-137193750D01*
G75*
G02*
X141943750Y-136975000I218750J0D01*
G01*
G37*
G36*
G01*
X183650000Y-106456250D02*
X183650000Y-105943750D01*
G75*
G02*
X183868750Y-105725000I218750J0D01*
G01*
X184306250Y-105725000D01*
G75*
G02*
X184525000Y-105943750I0J-218750D01*
G01*
X184525000Y-106456250D01*
G75*
G02*
X184306250Y-106675000I-218750J0D01*
G01*
X183868750Y-106675000D01*
G75*
G02*
X183650000Y-106456250I0J218750D01*
G01*
G37*
G36*
G01*
X182075000Y-106456250D02*
X182075000Y-105943750D01*
G75*
G02*
X182293750Y-105725000I218750J0D01*
G01*
X182731250Y-105725000D01*
G75*
G02*
X182950000Y-105943750I0J-218750D01*
G01*
X182950000Y-106456250D01*
G75*
G02*
X182731250Y-106675000I-218750J0D01*
G01*
X182293750Y-106675000D01*
G75*
G02*
X182075000Y-106456250I0J218750D01*
G01*
G37*
G36*
G01*
X183650000Y-117656250D02*
X183650000Y-117143750D01*
G75*
G02*
X183868750Y-116925000I218750J0D01*
G01*
X184306250Y-116925000D01*
G75*
G02*
X184525000Y-117143750I0J-218750D01*
G01*
X184525000Y-117656250D01*
G75*
G02*
X184306250Y-117875000I-218750J0D01*
G01*
X183868750Y-117875000D01*
G75*
G02*
X183650000Y-117656250I0J218750D01*
G01*
G37*
G36*
G01*
X182075000Y-117656250D02*
X182075000Y-117143750D01*
G75*
G02*
X182293750Y-116925000I218750J0D01*
G01*
X182731250Y-116925000D01*
G75*
G02*
X182950000Y-117143750I0J-218750D01*
G01*
X182950000Y-117656250D01*
G75*
G02*
X182731250Y-117875000I-218750J0D01*
G01*
X182293750Y-117875000D01*
G75*
G02*
X182075000Y-117656250I0J218750D01*
G01*
G37*
G36*
G01*
X183650000Y-112056250D02*
X183650000Y-111543750D01*
G75*
G02*
X183868750Y-111325000I218750J0D01*
G01*
X184306250Y-111325000D01*
G75*
G02*
X184525000Y-111543750I0J-218750D01*
G01*
X184525000Y-112056250D01*
G75*
G02*
X184306250Y-112275000I-218750J0D01*
G01*
X183868750Y-112275000D01*
G75*
G02*
X183650000Y-112056250I0J218750D01*
G01*
G37*
G36*
G01*
X182075000Y-112056250D02*
X182075000Y-111543750D01*
G75*
G02*
X182293750Y-111325000I218750J0D01*
G01*
X182731250Y-111325000D01*
G75*
G02*
X182950000Y-111543750I0J-218750D01*
G01*
X182950000Y-112056250D01*
G75*
G02*
X182731250Y-112275000I-218750J0D01*
G01*
X182293750Y-112275000D01*
G75*
G02*
X182075000Y-112056250I0J218750D01*
G01*
G37*
G36*
G01*
X183650000Y-78356250D02*
X183650000Y-77843750D01*
G75*
G02*
X183868750Y-77625000I218750J0D01*
G01*
X184306250Y-77625000D01*
G75*
G02*
X184525000Y-77843750I0J-218750D01*
G01*
X184525000Y-78356250D01*
G75*
G02*
X184306250Y-78575000I-218750J0D01*
G01*
X183868750Y-78575000D01*
G75*
G02*
X183650000Y-78356250I0J218750D01*
G01*
G37*
G36*
G01*
X182075000Y-78356250D02*
X182075000Y-77843750D01*
G75*
G02*
X182293750Y-77625000I218750J0D01*
G01*
X182731250Y-77625000D01*
G75*
G02*
X182950000Y-77843750I0J-218750D01*
G01*
X182950000Y-78356250D01*
G75*
G02*
X182731250Y-78575000I-218750J0D01*
G01*
X182293750Y-78575000D01*
G75*
G02*
X182075000Y-78356250I0J218750D01*
G01*
G37*
D10*
X179200000Y-99600000D03*
X180150000Y-101600000D03*
X178250000Y-101600000D03*
X179100000Y-88400000D03*
X180050000Y-90400000D03*
X178150000Y-90400000D03*
X179400000Y-122000000D03*
X180350000Y-124000000D03*
X178450000Y-124000000D03*
X179400000Y-127600000D03*
X180350000Y-129600000D03*
X178450000Y-129600000D03*
D16*
X190800000Y-134300000D03*
X188800000Y-135250000D03*
X188800000Y-133350000D03*
X185200000Y-134300000D03*
X183200000Y-135250000D03*
X183200000Y-133350000D03*
X179600000Y-134300000D03*
X177600000Y-135250000D03*
X177600000Y-133350000D03*
X174000000Y-134300000D03*
X172000000Y-135250000D03*
X172000000Y-133350000D03*
D10*
X179100000Y-94000000D03*
X180050000Y-96000000D03*
X178150000Y-96000000D03*
D16*
X136500000Y-65000000D03*
X134500000Y-65950000D03*
X134500000Y-64050000D03*
D10*
X159750000Y-64850000D03*
X160700000Y-66850000D03*
X158800000Y-66850000D03*
D16*
X140400000Y-134300000D03*
X138400000Y-135250000D03*
X138400000Y-133350000D03*
D10*
X179300000Y-105200000D03*
X180250000Y-107200000D03*
X178350000Y-107200000D03*
X179400000Y-116400000D03*
X180350000Y-118400000D03*
X178450000Y-118400000D03*
X179400000Y-110800000D03*
X180350000Y-112800000D03*
X178450000Y-112800000D03*
X179100000Y-77100000D03*
X180050000Y-79100000D03*
X178150000Y-79100000D03*
D16*
X116200000Y-64400000D03*
X118200000Y-63450000D03*
X118200000Y-65350000D03*
X122750000Y-65350000D03*
X122750000Y-63450000D03*
X120750000Y-64400000D03*
D10*
X144350000Y-66900000D03*
X145300000Y-68900000D03*
X143400000Y-68900000D03*
X154250000Y-66900000D03*
X155200000Y-68900000D03*
X153300000Y-68900000D03*
D16*
X111600000Y-69300000D03*
X113600000Y-68350000D03*
X113600000Y-70250000D03*
X116200000Y-69300000D03*
X118200000Y-68350000D03*
X118200000Y-70250000D03*
X111600000Y-64400000D03*
X113600000Y-63450000D03*
X113600000Y-65350000D03*
X116200000Y-74200000D03*
X118200000Y-73250000D03*
X118200000Y-75150000D03*
X140400000Y-67900000D03*
X138400000Y-68850000D03*
X138400000Y-66950000D03*
D10*
X159200000Y-68500000D03*
X160150000Y-70500000D03*
X158250000Y-70500000D03*
D16*
X120750000Y-74200000D03*
X122750000Y-73250000D03*
X122750000Y-75150000D03*
X111600000Y-74200000D03*
X113600000Y-73250000D03*
X113600000Y-75150000D03*
X168400000Y-134300000D03*
X166400000Y-135250000D03*
X166400000Y-133350000D03*
X162800000Y-134300000D03*
X160800000Y-135250000D03*
X160800000Y-133350000D03*
X157200000Y-134300000D03*
X155200000Y-135250000D03*
X155200000Y-133350000D03*
X151600000Y-134300000D03*
X149600000Y-135250000D03*
X149600000Y-133350000D03*
D10*
X149300000Y-66900000D03*
X150250000Y-68900000D03*
X148350000Y-68900000D03*
G36*
G01*
X131850000Y-79150000D02*
X131850000Y-78650000D01*
G75*
G02*
X132075000Y-78425000I225000J0D01*
G01*
X132525000Y-78425000D01*
G75*
G02*
X132750000Y-78650000I0J-225000D01*
G01*
X132750000Y-79150000D01*
G75*
G02*
X132525000Y-79375000I-225000J0D01*
G01*
X132075000Y-79375000D01*
G75*
G02*
X131850000Y-79150000I0J225000D01*
G01*
G37*
G36*
G01*
X130300000Y-79150000D02*
X130300000Y-78650000D01*
G75*
G02*
X130525000Y-78425000I225000J0D01*
G01*
X130975000Y-78425000D01*
G75*
G02*
X131200000Y-78650000I0J-225000D01*
G01*
X131200000Y-79150000D01*
G75*
G02*
X130975000Y-79375000I-225000J0D01*
G01*
X130525000Y-79375000D01*
G75*
G02*
X130300000Y-79150000I0J225000D01*
G01*
G37*
G36*
G01*
X125675000Y-79150000D02*
X125675000Y-78650000D01*
G75*
G02*
X125900000Y-78425000I225000J0D01*
G01*
X126350000Y-78425000D01*
G75*
G02*
X126575000Y-78650000I0J-225000D01*
G01*
X126575000Y-79150000D01*
G75*
G02*
X126350000Y-79375000I-225000J0D01*
G01*
X125900000Y-79375000D01*
G75*
G02*
X125675000Y-79150000I0J225000D01*
G01*
G37*
G36*
G01*
X124125000Y-79150000D02*
X124125000Y-78650000D01*
G75*
G02*
X124350000Y-78425000I225000J0D01*
G01*
X124800000Y-78425000D01*
G75*
G02*
X125025000Y-78650000I0J-225000D01*
G01*
X125025000Y-79150000D01*
G75*
G02*
X124800000Y-79375000I-225000J0D01*
G01*
X124350000Y-79375000D01*
G75*
G02*
X124125000Y-79150000I0J225000D01*
G01*
G37*
G36*
G01*
X165550000Y-78025000D02*
X165050000Y-78025000D01*
G75*
G02*
X164825000Y-77800000I0J225000D01*
G01*
X164825000Y-77350000D01*
G75*
G02*
X165050000Y-77125000I225000J0D01*
G01*
X165550000Y-77125000D01*
G75*
G02*
X165775000Y-77350000I0J-225000D01*
G01*
X165775000Y-77800000D01*
G75*
G02*
X165550000Y-78025000I-225000J0D01*
G01*
G37*
G36*
G01*
X165550000Y-79575000D02*
X165050000Y-79575000D01*
G75*
G02*
X164825000Y-79350000I0J225000D01*
G01*
X164825000Y-78900000D01*
G75*
G02*
X165050000Y-78675000I225000J0D01*
G01*
X165550000Y-78675000D01*
G75*
G02*
X165775000Y-78900000I0J-225000D01*
G01*
X165775000Y-79350000D01*
G75*
G02*
X165550000Y-79575000I-225000J0D01*
G01*
G37*
G36*
G01*
X167000000Y-81050000D02*
X166500000Y-81050000D01*
G75*
G02*
X166275000Y-80825000I0J225000D01*
G01*
X166275000Y-80375000D01*
G75*
G02*
X166500000Y-80150000I225000J0D01*
G01*
X167000000Y-80150000D01*
G75*
G02*
X167225000Y-80375000I0J-225000D01*
G01*
X167225000Y-80825000D01*
G75*
G02*
X167000000Y-81050000I-225000J0D01*
G01*
G37*
G36*
G01*
X167000000Y-82600000D02*
X166500000Y-82600000D01*
G75*
G02*
X166275000Y-82375000I0J225000D01*
G01*
X166275000Y-81925000D01*
G75*
G02*
X166500000Y-81700000I225000J0D01*
G01*
X167000000Y-81700000D01*
G75*
G02*
X167225000Y-81925000I0J-225000D01*
G01*
X167225000Y-82375000D01*
G75*
G02*
X167000000Y-82600000I-225000J0D01*
G01*
G37*
G36*
G01*
X128125000Y-78650000D02*
X128125000Y-79150000D01*
G75*
G02*
X127900000Y-79375000I-225000J0D01*
G01*
X127450000Y-79375000D01*
G75*
G02*
X127225000Y-79150000I0J225000D01*
G01*
X127225000Y-78650000D01*
G75*
G02*
X127450000Y-78425000I225000J0D01*
G01*
X127900000Y-78425000D01*
G75*
G02*
X128125000Y-78650000I0J-225000D01*
G01*
G37*
G36*
G01*
X129675000Y-78650000D02*
X129675000Y-79150000D01*
G75*
G02*
X129450000Y-79375000I-225000J0D01*
G01*
X129000000Y-79375000D01*
G75*
G02*
X128775000Y-79150000I0J225000D01*
G01*
X128775000Y-78650000D01*
G75*
G02*
X129000000Y-78425000I225000J0D01*
G01*
X129450000Y-78425000D01*
G75*
G02*
X129675000Y-78650000I0J-225000D01*
G01*
G37*
G36*
G01*
X139350000Y-84325000D02*
X138850000Y-84325000D01*
G75*
G02*
X138625000Y-84100000I0J225000D01*
G01*
X138625000Y-83650000D01*
G75*
G02*
X138850000Y-83425000I225000J0D01*
G01*
X139350000Y-83425000D01*
G75*
G02*
X139575000Y-83650000I0J-225000D01*
G01*
X139575000Y-84100000D01*
G75*
G02*
X139350000Y-84325000I-225000J0D01*
G01*
G37*
G36*
G01*
X139350000Y-85875000D02*
X138850000Y-85875000D01*
G75*
G02*
X138625000Y-85650000I0J225000D01*
G01*
X138625000Y-85200000D01*
G75*
G02*
X138850000Y-84975000I225000J0D01*
G01*
X139350000Y-84975000D01*
G75*
G02*
X139575000Y-85200000I0J-225000D01*
G01*
X139575000Y-85650000D01*
G75*
G02*
X139350000Y-85875000I-225000J0D01*
G01*
G37*
G36*
G01*
X164100000Y-81050000D02*
X163600000Y-81050000D01*
G75*
G02*
X163375000Y-80825000I0J225000D01*
G01*
X163375000Y-80375000D01*
G75*
G02*
X163600000Y-80150000I225000J0D01*
G01*
X164100000Y-80150000D01*
G75*
G02*
X164325000Y-80375000I0J-225000D01*
G01*
X164325000Y-80825000D01*
G75*
G02*
X164100000Y-81050000I-225000J0D01*
G01*
G37*
G36*
G01*
X164100000Y-82600000D02*
X163600000Y-82600000D01*
G75*
G02*
X163375000Y-82375000I0J225000D01*
G01*
X163375000Y-81925000D01*
G75*
G02*
X163600000Y-81700000I225000J0D01*
G01*
X164100000Y-81700000D01*
G75*
G02*
X164325000Y-81925000I0J-225000D01*
G01*
X164325000Y-82375000D01*
G75*
G02*
X164100000Y-82600000I-225000J0D01*
G01*
G37*
G36*
G01*
X138850000Y-81875000D02*
X139350000Y-81875000D01*
G75*
G02*
X139575000Y-82100000I0J-225000D01*
G01*
X139575000Y-82550000D01*
G75*
G02*
X139350000Y-82775000I-225000J0D01*
G01*
X138850000Y-82775000D01*
G75*
G02*
X138625000Y-82550000I0J225000D01*
G01*
X138625000Y-82100000D01*
G75*
G02*
X138850000Y-81875000I225000J0D01*
G01*
G37*
G36*
G01*
X138850000Y-80325000D02*
X139350000Y-80325000D01*
G75*
G02*
X139575000Y-80550000I0J-225000D01*
G01*
X139575000Y-81000000D01*
G75*
G02*
X139350000Y-81225000I-225000J0D01*
G01*
X138850000Y-81225000D01*
G75*
G02*
X138625000Y-81000000I0J225000D01*
G01*
X138625000Y-80550000D01*
G75*
G02*
X138850000Y-80325000I225000J0D01*
G01*
G37*
G36*
G01*
X141500000Y-98575000D02*
X142000000Y-98575000D01*
G75*
G02*
X142225000Y-98800000I0J-225000D01*
G01*
X142225000Y-99250000D01*
G75*
G02*
X142000000Y-99475000I-225000J0D01*
G01*
X141500000Y-99475000D01*
G75*
G02*
X141275000Y-99250000I0J225000D01*
G01*
X141275000Y-98800000D01*
G75*
G02*
X141500000Y-98575000I225000J0D01*
G01*
G37*
G36*
G01*
X141500000Y-97025000D02*
X142000000Y-97025000D01*
G75*
G02*
X142225000Y-97250000I0J-225000D01*
G01*
X142225000Y-97700000D01*
G75*
G02*
X142000000Y-97925000I-225000J0D01*
G01*
X141500000Y-97925000D01*
G75*
G02*
X141275000Y-97700000I0J225000D01*
G01*
X141275000Y-97250000D01*
G75*
G02*
X141500000Y-97025000I225000J0D01*
G01*
G37*
G36*
G01*
X157975000Y-101900000D02*
X157975000Y-102400000D01*
G75*
G02*
X157750000Y-102625000I-225000J0D01*
G01*
X157300000Y-102625000D01*
G75*
G02*
X157075000Y-102400000I0J225000D01*
G01*
X157075000Y-101900000D01*
G75*
G02*
X157300000Y-101675000I225000J0D01*
G01*
X157750000Y-101675000D01*
G75*
G02*
X157975000Y-101900000I0J-225000D01*
G01*
G37*
G36*
G01*
X159525000Y-101900000D02*
X159525000Y-102400000D01*
G75*
G02*
X159300000Y-102625000I-225000J0D01*
G01*
X158850000Y-102625000D01*
G75*
G02*
X158625000Y-102400000I0J225000D01*
G01*
X158625000Y-101900000D01*
G75*
G02*
X158850000Y-101675000I225000J0D01*
G01*
X159300000Y-101675000D01*
G75*
G02*
X159525000Y-101900000I0J-225000D01*
G01*
G37*
G36*
G01*
X144425000Y-97750000D02*
X144425000Y-97250000D01*
G75*
G02*
X144650000Y-97025000I225000J0D01*
G01*
X145100000Y-97025000D01*
G75*
G02*
X145325000Y-97250000I0J-225000D01*
G01*
X145325000Y-97750000D01*
G75*
G02*
X145100000Y-97975000I-225000J0D01*
G01*
X144650000Y-97975000D01*
G75*
G02*
X144425000Y-97750000I0J225000D01*
G01*
G37*
G36*
G01*
X142875000Y-97750000D02*
X142875000Y-97250000D01*
G75*
G02*
X143100000Y-97025000I225000J0D01*
G01*
X143550000Y-97025000D01*
G75*
G02*
X143775000Y-97250000I0J-225000D01*
G01*
X143775000Y-97750000D01*
G75*
G02*
X143550000Y-97975000I-225000J0D01*
G01*
X143100000Y-97975000D01*
G75*
G02*
X142875000Y-97750000I0J225000D01*
G01*
G37*
G36*
G01*
X157975000Y-99150000D02*
X157975000Y-99650000D01*
G75*
G02*
X157750000Y-99875000I-225000J0D01*
G01*
X157300000Y-99875000D01*
G75*
G02*
X157075000Y-99650000I0J225000D01*
G01*
X157075000Y-99150000D01*
G75*
G02*
X157300000Y-98925000I225000J0D01*
G01*
X157750000Y-98925000D01*
G75*
G02*
X157975000Y-99150000I0J-225000D01*
G01*
G37*
G36*
G01*
X159525000Y-99150000D02*
X159525000Y-99650000D01*
G75*
G02*
X159300000Y-99875000I-225000J0D01*
G01*
X158850000Y-99875000D01*
G75*
G02*
X158625000Y-99650000I0J225000D01*
G01*
X158625000Y-99150000D01*
G75*
G02*
X158850000Y-98925000I225000J0D01*
G01*
X159300000Y-98925000D01*
G75*
G02*
X159525000Y-99150000I0J-225000D01*
G01*
G37*
G36*
G01*
X139800000Y-76250000D02*
X139800000Y-76750000D01*
G75*
G02*
X139575000Y-76975000I-225000J0D01*
G01*
X139125000Y-76975000D01*
G75*
G02*
X138900000Y-76750000I0J225000D01*
G01*
X138900000Y-76250000D01*
G75*
G02*
X139125000Y-76025000I225000J0D01*
G01*
X139575000Y-76025000D01*
G75*
G02*
X139800000Y-76250000I0J-225000D01*
G01*
G37*
G36*
G01*
X141350000Y-76250000D02*
X141350000Y-76750000D01*
G75*
G02*
X141125000Y-76975000I-225000J0D01*
G01*
X140675000Y-76975000D01*
G75*
G02*
X140450000Y-76750000I0J225000D01*
G01*
X140450000Y-76250000D01*
G75*
G02*
X140675000Y-76025000I225000J0D01*
G01*
X141125000Y-76025000D01*
G75*
G02*
X141350000Y-76250000I0J-225000D01*
G01*
G37*
G36*
G01*
X142550000Y-90575000D02*
X142050000Y-90575000D01*
G75*
G02*
X141825000Y-90350000I0J225000D01*
G01*
X141825000Y-89900000D01*
G75*
G02*
X142050000Y-89675000I225000J0D01*
G01*
X142550000Y-89675000D01*
G75*
G02*
X142775000Y-89900000I0J-225000D01*
G01*
X142775000Y-90350000D01*
G75*
G02*
X142550000Y-90575000I-225000J0D01*
G01*
G37*
G36*
G01*
X142550000Y-92125000D02*
X142050000Y-92125000D01*
G75*
G02*
X141825000Y-91900000I0J225000D01*
G01*
X141825000Y-91450000D01*
G75*
G02*
X142050000Y-91225000I225000J0D01*
G01*
X142550000Y-91225000D01*
G75*
G02*
X142775000Y-91450000I0J-225000D01*
G01*
X142775000Y-91900000D01*
G75*
G02*
X142550000Y-92125000I-225000J0D01*
G01*
G37*
G36*
G01*
X142825000Y-74900000D02*
X142825000Y-75400000D01*
G75*
G02*
X142600000Y-75625000I-225000J0D01*
G01*
X142150000Y-75625000D01*
G75*
G02*
X141925000Y-75400000I0J225000D01*
G01*
X141925000Y-74900000D01*
G75*
G02*
X142150000Y-74675000I225000J0D01*
G01*
X142600000Y-74675000D01*
G75*
G02*
X142825000Y-74900000I0J-225000D01*
G01*
G37*
G36*
G01*
X144375000Y-74900000D02*
X144375000Y-75400000D01*
G75*
G02*
X144150000Y-75625000I-225000J0D01*
G01*
X143700000Y-75625000D01*
G75*
G02*
X143475000Y-75400000I0J225000D01*
G01*
X143475000Y-74900000D01*
G75*
G02*
X143700000Y-74675000I225000J0D01*
G01*
X144150000Y-74675000D01*
G75*
G02*
X144375000Y-74900000I0J-225000D01*
G01*
G37*
G36*
G01*
X142050000Y-94275000D02*
X142550000Y-94275000D01*
G75*
G02*
X142775000Y-94500000I0J-225000D01*
G01*
X142775000Y-94950000D01*
G75*
G02*
X142550000Y-95175000I-225000J0D01*
G01*
X142050000Y-95175000D01*
G75*
G02*
X141825000Y-94950000I0J225000D01*
G01*
X141825000Y-94500000D01*
G75*
G02*
X142050000Y-94275000I225000J0D01*
G01*
G37*
G36*
G01*
X142050000Y-92725000D02*
X142550000Y-92725000D01*
G75*
G02*
X142775000Y-92950000I0J-225000D01*
G01*
X142775000Y-93400000D01*
G75*
G02*
X142550000Y-93625000I-225000J0D01*
G01*
X142050000Y-93625000D01*
G75*
G02*
X141825000Y-93400000I0J225000D01*
G01*
X141825000Y-92950000D01*
G75*
G02*
X142050000Y-92725000I225000J0D01*
G01*
G37*
G36*
G01*
X163150000Y-95725000D02*
X163650000Y-95725000D01*
G75*
G02*
X163875000Y-95950000I0J-225000D01*
G01*
X163875000Y-96400000D01*
G75*
G02*
X163650000Y-96625000I-225000J0D01*
G01*
X163150000Y-96625000D01*
G75*
G02*
X162925000Y-96400000I0J225000D01*
G01*
X162925000Y-95950000D01*
G75*
G02*
X163150000Y-95725000I225000J0D01*
G01*
G37*
G36*
G01*
X163150000Y-94175000D02*
X163650000Y-94175000D01*
G75*
G02*
X163875000Y-94400000I0J-225000D01*
G01*
X163875000Y-94850000D01*
G75*
G02*
X163650000Y-95075000I-225000J0D01*
G01*
X163150000Y-95075000D01*
G75*
G02*
X162925000Y-94850000I0J225000D01*
G01*
X162925000Y-94400000D01*
G75*
G02*
X163150000Y-94175000I225000J0D01*
G01*
G37*
G36*
G01*
X165900000Y-95725000D02*
X166400000Y-95725000D01*
G75*
G02*
X166625000Y-95950000I0J-225000D01*
G01*
X166625000Y-96400000D01*
G75*
G02*
X166400000Y-96625000I-225000J0D01*
G01*
X165900000Y-96625000D01*
G75*
G02*
X165675000Y-96400000I0J225000D01*
G01*
X165675000Y-95950000D01*
G75*
G02*
X165900000Y-95725000I225000J0D01*
G01*
G37*
G36*
G01*
X165900000Y-94175000D02*
X166400000Y-94175000D01*
G75*
G02*
X166625000Y-94400000I0J-225000D01*
G01*
X166625000Y-94850000D01*
G75*
G02*
X166400000Y-95075000I-225000J0D01*
G01*
X165900000Y-95075000D01*
G75*
G02*
X165675000Y-94850000I0J225000D01*
G01*
X165675000Y-94400000D01*
G75*
G02*
X165900000Y-94175000I225000J0D01*
G01*
G37*
G36*
G01*
X143950000Y-100400000D02*
X143950000Y-100900000D01*
G75*
G02*
X143725000Y-101125000I-225000J0D01*
G01*
X143275000Y-101125000D01*
G75*
G02*
X143050000Y-100900000I0J225000D01*
G01*
X143050000Y-100400000D01*
G75*
G02*
X143275000Y-100175000I225000J0D01*
G01*
X143725000Y-100175000D01*
G75*
G02*
X143950000Y-100400000I0J-225000D01*
G01*
G37*
G36*
G01*
X145500000Y-100400000D02*
X145500000Y-100900000D01*
G75*
G02*
X145275000Y-101125000I-225000J0D01*
G01*
X144825000Y-101125000D01*
G75*
G02*
X144600000Y-100900000I0J225000D01*
G01*
X144600000Y-100400000D01*
G75*
G02*
X144825000Y-100175000I225000J0D01*
G01*
X145275000Y-100175000D01*
G75*
G02*
X145500000Y-100400000I0J-225000D01*
G01*
G37*
G36*
G01*
X146975000Y-101800000D02*
X146975000Y-102300000D01*
G75*
G02*
X146750000Y-102525000I-225000J0D01*
G01*
X146300000Y-102525000D01*
G75*
G02*
X146075000Y-102300000I0J225000D01*
G01*
X146075000Y-101800000D01*
G75*
G02*
X146300000Y-101575000I225000J0D01*
G01*
X146750000Y-101575000D01*
G75*
G02*
X146975000Y-101800000I0J-225000D01*
G01*
G37*
G36*
G01*
X148525000Y-101800000D02*
X148525000Y-102300000D01*
G75*
G02*
X148300000Y-102525000I-225000J0D01*
G01*
X147850000Y-102525000D01*
G75*
G02*
X147625000Y-102300000I0J225000D01*
G01*
X147625000Y-101800000D01*
G75*
G02*
X147850000Y-101575000I225000J0D01*
G01*
X148300000Y-101575000D01*
G75*
G02*
X148525000Y-101800000I0J-225000D01*
G01*
G37*
G36*
G01*
X146975000Y-99050000D02*
X146975000Y-99550000D01*
G75*
G02*
X146750000Y-99775000I-225000J0D01*
G01*
X146300000Y-99775000D01*
G75*
G02*
X146075000Y-99550000I0J225000D01*
G01*
X146075000Y-99050000D01*
G75*
G02*
X146300000Y-98825000I225000J0D01*
G01*
X146750000Y-98825000D01*
G75*
G02*
X146975000Y-99050000I0J-225000D01*
G01*
G37*
G36*
G01*
X148525000Y-99050000D02*
X148525000Y-99550000D01*
G75*
G02*
X148300000Y-99775000I-225000J0D01*
G01*
X147850000Y-99775000D01*
G75*
G02*
X147625000Y-99550000I0J225000D01*
G01*
X147625000Y-99050000D01*
G75*
G02*
X147850000Y-98825000I225000J0D01*
G01*
X148300000Y-98825000D01*
G75*
G02*
X148525000Y-99050000I0J-225000D01*
G01*
G37*
G36*
G01*
X191125000Y-78250000D02*
X191125000Y-77750000D01*
G75*
G02*
X191350000Y-77525000I225000J0D01*
G01*
X191800000Y-77525000D01*
G75*
G02*
X192025000Y-77750000I0J-225000D01*
G01*
X192025000Y-78250000D01*
G75*
G02*
X191800000Y-78475000I-225000J0D01*
G01*
X191350000Y-78475000D01*
G75*
G02*
X191125000Y-78250000I0J225000D01*
G01*
G37*
G36*
G01*
X189575000Y-78250000D02*
X189575000Y-77750000D01*
G75*
G02*
X189800000Y-77525000I225000J0D01*
G01*
X190250000Y-77525000D01*
G75*
G02*
X190475000Y-77750000I0J-225000D01*
G01*
X190475000Y-78250000D01*
G75*
G02*
X190250000Y-78475000I-225000J0D01*
G01*
X189800000Y-78475000D01*
G75*
G02*
X189575000Y-78250000I0J225000D01*
G01*
G37*
G36*
G01*
X188875000Y-68700000D02*
X188875000Y-69200000D01*
G75*
G02*
X188650000Y-69425000I-225000J0D01*
G01*
X188200000Y-69425000D01*
G75*
G02*
X187975000Y-69200000I0J225000D01*
G01*
X187975000Y-68700000D01*
G75*
G02*
X188200000Y-68475000I225000J0D01*
G01*
X188650000Y-68475000D01*
G75*
G02*
X188875000Y-68700000I0J-225000D01*
G01*
G37*
G36*
G01*
X190425000Y-68700000D02*
X190425000Y-69200000D01*
G75*
G02*
X190200000Y-69425000I-225000J0D01*
G01*
X189750000Y-69425000D01*
G75*
G02*
X189525000Y-69200000I0J225000D01*
G01*
X189525000Y-68700000D01*
G75*
G02*
X189750000Y-68475000I225000J0D01*
G01*
X190200000Y-68475000D01*
G75*
G02*
X190425000Y-68700000I0J-225000D01*
G01*
G37*
G36*
G01*
X137500000Y-91400000D02*
X137000000Y-91400000D01*
G75*
G02*
X136775000Y-91175000I0J225000D01*
G01*
X136775000Y-90725000D01*
G75*
G02*
X137000000Y-90500000I225000J0D01*
G01*
X137500000Y-90500000D01*
G75*
G02*
X137725000Y-90725000I0J-225000D01*
G01*
X137725000Y-91175000D01*
G75*
G02*
X137500000Y-91400000I-225000J0D01*
G01*
G37*
G36*
G01*
X137500000Y-92950000D02*
X137000000Y-92950000D01*
G75*
G02*
X136775000Y-92725000I0J225000D01*
G01*
X136775000Y-92275000D01*
G75*
G02*
X137000000Y-92050000I225000J0D01*
G01*
X137500000Y-92050000D01*
G75*
G02*
X137725000Y-92275000I0J-225000D01*
G01*
X137725000Y-92725000D01*
G75*
G02*
X137500000Y-92950000I-225000J0D01*
G01*
G37*
G36*
G01*
X137000000Y-87375000D02*
X137500000Y-87375000D01*
G75*
G02*
X137725000Y-87600000I0J-225000D01*
G01*
X137725000Y-88050000D01*
G75*
G02*
X137500000Y-88275000I-225000J0D01*
G01*
X137000000Y-88275000D01*
G75*
G02*
X136775000Y-88050000I0J225000D01*
G01*
X136775000Y-87600000D01*
G75*
G02*
X137000000Y-87375000I225000J0D01*
G01*
G37*
G36*
G01*
X137000000Y-85825000D02*
X137500000Y-85825000D01*
G75*
G02*
X137725000Y-86050000I0J-225000D01*
G01*
X137725000Y-86500000D01*
G75*
G02*
X137500000Y-86725000I-225000J0D01*
G01*
X137000000Y-86725000D01*
G75*
G02*
X136775000Y-86500000I0J225000D01*
G01*
X136775000Y-86050000D01*
G75*
G02*
X137000000Y-85825000I225000J0D01*
G01*
G37*
G36*
G01*
X139675000Y-93000000D02*
X139675000Y-93500000D01*
G75*
G02*
X139450000Y-93725000I-225000J0D01*
G01*
X139000000Y-93725000D01*
G75*
G02*
X138775000Y-93500000I0J225000D01*
G01*
X138775000Y-93000000D01*
G75*
G02*
X139000000Y-92775000I225000J0D01*
G01*
X139450000Y-92775000D01*
G75*
G02*
X139675000Y-93000000I0J-225000D01*
G01*
G37*
G36*
G01*
X141225000Y-93000000D02*
X141225000Y-93500000D01*
G75*
G02*
X141000000Y-93725000I-225000J0D01*
G01*
X140550000Y-93725000D01*
G75*
G02*
X140325000Y-93500000I0J225000D01*
G01*
X140325000Y-93000000D01*
G75*
G02*
X140550000Y-92775000I225000J0D01*
G01*
X141000000Y-92775000D01*
G75*
G02*
X141225000Y-93000000I0J-225000D01*
G01*
G37*
G36*
G01*
X192875000Y-134175000D02*
X192325000Y-134175000D01*
G75*
G02*
X192125000Y-133975000I0J200000D01*
G01*
X192125000Y-133575000D01*
G75*
G02*
X192325000Y-133375000I200000J0D01*
G01*
X192875000Y-133375000D01*
G75*
G02*
X193075000Y-133575000I0J-200000D01*
G01*
X193075000Y-133975000D01*
G75*
G02*
X192875000Y-134175000I-200000J0D01*
G01*
G37*
G36*
G01*
X192875000Y-135825000D02*
X192325000Y-135825000D01*
G75*
G02*
X192125000Y-135625000I0J200000D01*
G01*
X192125000Y-135225000D01*
G75*
G02*
X192325000Y-135025000I200000J0D01*
G01*
X192875000Y-135025000D01*
G75*
G02*
X193075000Y-135225000I0J-200000D01*
G01*
X193075000Y-135625000D01*
G75*
G02*
X192875000Y-135825000I-200000J0D01*
G01*
G37*
G36*
G01*
X187275000Y-134175000D02*
X186725000Y-134175000D01*
G75*
G02*
X186525000Y-133975000I0J200000D01*
G01*
X186525000Y-133575000D01*
G75*
G02*
X186725000Y-133375000I200000J0D01*
G01*
X187275000Y-133375000D01*
G75*
G02*
X187475000Y-133575000I0J-200000D01*
G01*
X187475000Y-133975000D01*
G75*
G02*
X187275000Y-134175000I-200000J0D01*
G01*
G37*
G36*
G01*
X187275000Y-135825000D02*
X186725000Y-135825000D01*
G75*
G02*
X186525000Y-135625000I0J200000D01*
G01*
X186525000Y-135225000D01*
G75*
G02*
X186725000Y-135025000I200000J0D01*
G01*
X187275000Y-135025000D01*
G75*
G02*
X187475000Y-135225000I0J-200000D01*
G01*
X187475000Y-135625000D01*
G75*
G02*
X187275000Y-135825000I-200000J0D01*
G01*
G37*
G36*
G01*
X181675000Y-134175000D02*
X181125000Y-134175000D01*
G75*
G02*
X180925000Y-133975000I0J200000D01*
G01*
X180925000Y-133575000D01*
G75*
G02*
X181125000Y-133375000I200000J0D01*
G01*
X181675000Y-133375000D01*
G75*
G02*
X181875000Y-133575000I0J-200000D01*
G01*
X181875000Y-133975000D01*
G75*
G02*
X181675000Y-134175000I-200000J0D01*
G01*
G37*
G36*
G01*
X181675000Y-135825000D02*
X181125000Y-135825000D01*
G75*
G02*
X180925000Y-135625000I0J200000D01*
G01*
X180925000Y-135225000D01*
G75*
G02*
X181125000Y-135025000I200000J0D01*
G01*
X181675000Y-135025000D01*
G75*
G02*
X181875000Y-135225000I0J-200000D01*
G01*
X181875000Y-135625000D01*
G75*
G02*
X181675000Y-135825000I-200000J0D01*
G01*
G37*
G36*
G01*
X176075000Y-134175000D02*
X175525000Y-134175000D01*
G75*
G02*
X175325000Y-133975000I0J200000D01*
G01*
X175325000Y-133575000D01*
G75*
G02*
X175525000Y-133375000I200000J0D01*
G01*
X176075000Y-133375000D01*
G75*
G02*
X176275000Y-133575000I0J-200000D01*
G01*
X176275000Y-133975000D01*
G75*
G02*
X176075000Y-134175000I-200000J0D01*
G01*
G37*
G36*
G01*
X176075000Y-135825000D02*
X175525000Y-135825000D01*
G75*
G02*
X175325000Y-135625000I0J200000D01*
G01*
X175325000Y-135225000D01*
G75*
G02*
X175525000Y-135025000I200000J0D01*
G01*
X176075000Y-135025000D01*
G75*
G02*
X176275000Y-135225000I0J-200000D01*
G01*
X176275000Y-135625000D01*
G75*
G02*
X176075000Y-135825000I-200000J0D01*
G01*
G37*
G36*
G01*
X189525000Y-138625000D02*
X190075000Y-138625000D01*
G75*
G02*
X190275000Y-138825000I0J-200000D01*
G01*
X190275000Y-139225000D01*
G75*
G02*
X190075000Y-139425000I-200000J0D01*
G01*
X189525000Y-139425000D01*
G75*
G02*
X189325000Y-139225000I0J200000D01*
G01*
X189325000Y-138825000D01*
G75*
G02*
X189525000Y-138625000I200000J0D01*
G01*
G37*
G36*
G01*
X189525000Y-136975000D02*
X190075000Y-136975000D01*
G75*
G02*
X190275000Y-137175000I0J-200000D01*
G01*
X190275000Y-137575000D01*
G75*
G02*
X190075000Y-137775000I-200000J0D01*
G01*
X189525000Y-137775000D01*
G75*
G02*
X189325000Y-137575000I0J200000D01*
G01*
X189325000Y-137175000D01*
G75*
G02*
X189525000Y-136975000I200000J0D01*
G01*
G37*
G36*
G01*
X183925000Y-138625000D02*
X184475000Y-138625000D01*
G75*
G02*
X184675000Y-138825000I0J-200000D01*
G01*
X184675000Y-139225000D01*
G75*
G02*
X184475000Y-139425000I-200000J0D01*
G01*
X183925000Y-139425000D01*
G75*
G02*
X183725000Y-139225000I0J200000D01*
G01*
X183725000Y-138825000D01*
G75*
G02*
X183925000Y-138625000I200000J0D01*
G01*
G37*
G36*
G01*
X183925000Y-136975000D02*
X184475000Y-136975000D01*
G75*
G02*
X184675000Y-137175000I0J-200000D01*
G01*
X184675000Y-137575000D01*
G75*
G02*
X184475000Y-137775000I-200000J0D01*
G01*
X183925000Y-137775000D01*
G75*
G02*
X183725000Y-137575000I0J200000D01*
G01*
X183725000Y-137175000D01*
G75*
G02*
X183925000Y-136975000I200000J0D01*
G01*
G37*
G36*
G01*
X144725000Y-138625000D02*
X145275000Y-138625000D01*
G75*
G02*
X145475000Y-138825000I0J-200000D01*
G01*
X145475000Y-139225000D01*
G75*
G02*
X145275000Y-139425000I-200000J0D01*
G01*
X144725000Y-139425000D01*
G75*
G02*
X144525000Y-139225000I0J200000D01*
G01*
X144525000Y-138825000D01*
G75*
G02*
X144725000Y-138625000I200000J0D01*
G01*
G37*
G36*
G01*
X144725000Y-136975000D02*
X145275000Y-136975000D01*
G75*
G02*
X145475000Y-137175000I0J-200000D01*
G01*
X145475000Y-137575000D01*
G75*
G02*
X145275000Y-137775000I-200000J0D01*
G01*
X144725000Y-137775000D01*
G75*
G02*
X144525000Y-137575000I0J200000D01*
G01*
X144525000Y-137175000D01*
G75*
G02*
X144725000Y-136975000I200000J0D01*
G01*
G37*
G36*
G01*
X136875000Y-134175000D02*
X136325000Y-134175000D01*
G75*
G02*
X136125000Y-133975000I0J200000D01*
G01*
X136125000Y-133575000D01*
G75*
G02*
X136325000Y-133375000I200000J0D01*
G01*
X136875000Y-133375000D01*
G75*
G02*
X137075000Y-133575000I0J-200000D01*
G01*
X137075000Y-133975000D01*
G75*
G02*
X136875000Y-134175000I-200000J0D01*
G01*
G37*
G36*
G01*
X136875000Y-135825000D02*
X136325000Y-135825000D01*
G75*
G02*
X136125000Y-135625000I0J200000D01*
G01*
X136125000Y-135225000D01*
G75*
G02*
X136325000Y-135025000I200000J0D01*
G01*
X136875000Y-135025000D01*
G75*
G02*
X137075000Y-135225000I0J-200000D01*
G01*
X137075000Y-135625000D01*
G75*
G02*
X136875000Y-135825000I-200000J0D01*
G01*
G37*
G36*
G01*
X133525000Y-138625000D02*
X134075000Y-138625000D01*
G75*
G02*
X134275000Y-138825000I0J-200000D01*
G01*
X134275000Y-139225000D01*
G75*
G02*
X134075000Y-139425000I-200000J0D01*
G01*
X133525000Y-139425000D01*
G75*
G02*
X133325000Y-139225000I0J200000D01*
G01*
X133325000Y-138825000D01*
G75*
G02*
X133525000Y-138625000I200000J0D01*
G01*
G37*
G36*
G01*
X133525000Y-136975000D02*
X134075000Y-136975000D01*
G75*
G02*
X134275000Y-137175000I0J-200000D01*
G01*
X134275000Y-137575000D01*
G75*
G02*
X134075000Y-137775000I-200000J0D01*
G01*
X133525000Y-137775000D01*
G75*
G02*
X133325000Y-137575000I0J200000D01*
G01*
X133325000Y-137175000D01*
G75*
G02*
X133525000Y-136975000I200000J0D01*
G01*
G37*
G36*
G01*
X127925000Y-138625000D02*
X128475000Y-138625000D01*
G75*
G02*
X128675000Y-138825000I0J-200000D01*
G01*
X128675000Y-139225000D01*
G75*
G02*
X128475000Y-139425000I-200000J0D01*
G01*
X127925000Y-139425000D01*
G75*
G02*
X127725000Y-139225000I0J200000D01*
G01*
X127725000Y-138825000D01*
G75*
G02*
X127925000Y-138625000I200000J0D01*
G01*
G37*
G36*
G01*
X127925000Y-136975000D02*
X128475000Y-136975000D01*
G75*
G02*
X128675000Y-137175000I0J-200000D01*
G01*
X128675000Y-137575000D01*
G75*
G02*
X128475000Y-137775000I-200000J0D01*
G01*
X127925000Y-137775000D01*
G75*
G02*
X127725000Y-137575000I0J200000D01*
G01*
X127725000Y-137175000D01*
G75*
G02*
X127925000Y-136975000I200000J0D01*
G01*
G37*
G36*
G01*
X178325000Y-138625000D02*
X178875000Y-138625000D01*
G75*
G02*
X179075000Y-138825000I0J-200000D01*
G01*
X179075000Y-139225000D01*
G75*
G02*
X178875000Y-139425000I-200000J0D01*
G01*
X178325000Y-139425000D01*
G75*
G02*
X178125000Y-139225000I0J200000D01*
G01*
X178125000Y-138825000D01*
G75*
G02*
X178325000Y-138625000I200000J0D01*
G01*
G37*
G36*
G01*
X178325000Y-136975000D02*
X178875000Y-136975000D01*
G75*
G02*
X179075000Y-137175000I0J-200000D01*
G01*
X179075000Y-137575000D01*
G75*
G02*
X178875000Y-137775000I-200000J0D01*
G01*
X178325000Y-137775000D01*
G75*
G02*
X178125000Y-137575000I0J200000D01*
G01*
X178125000Y-137175000D01*
G75*
G02*
X178325000Y-136975000I200000J0D01*
G01*
G37*
G36*
G01*
X172725000Y-138625000D02*
X173275000Y-138625000D01*
G75*
G02*
X173475000Y-138825000I0J-200000D01*
G01*
X173475000Y-139225000D01*
G75*
G02*
X173275000Y-139425000I-200000J0D01*
G01*
X172725000Y-139425000D01*
G75*
G02*
X172525000Y-139225000I0J200000D01*
G01*
X172525000Y-138825000D01*
G75*
G02*
X172725000Y-138625000I200000J0D01*
G01*
G37*
G36*
G01*
X172725000Y-136975000D02*
X173275000Y-136975000D01*
G75*
G02*
X173475000Y-137175000I0J-200000D01*
G01*
X173475000Y-137575000D01*
G75*
G02*
X173275000Y-137775000I-200000J0D01*
G01*
X172725000Y-137775000D01*
G75*
G02*
X172525000Y-137575000I0J200000D01*
G01*
X172525000Y-137175000D01*
G75*
G02*
X172725000Y-136975000I200000J0D01*
G01*
G37*
G36*
G01*
X170475000Y-134175000D02*
X169925000Y-134175000D01*
G75*
G02*
X169725000Y-133975000I0J200000D01*
G01*
X169725000Y-133575000D01*
G75*
G02*
X169925000Y-133375000I200000J0D01*
G01*
X170475000Y-133375000D01*
G75*
G02*
X170675000Y-133575000I0J-200000D01*
G01*
X170675000Y-133975000D01*
G75*
G02*
X170475000Y-134175000I-200000J0D01*
G01*
G37*
G36*
G01*
X170475000Y-135825000D02*
X169925000Y-135825000D01*
G75*
G02*
X169725000Y-135625000I0J200000D01*
G01*
X169725000Y-135225000D01*
G75*
G02*
X169925000Y-135025000I200000J0D01*
G01*
X170475000Y-135025000D01*
G75*
G02*
X170675000Y-135225000I0J-200000D01*
G01*
X170675000Y-135625000D01*
G75*
G02*
X170475000Y-135825000I-200000J0D01*
G01*
G37*
G36*
G01*
X164875000Y-134175000D02*
X164325000Y-134175000D01*
G75*
G02*
X164125000Y-133975000I0J200000D01*
G01*
X164125000Y-133575000D01*
G75*
G02*
X164325000Y-133375000I200000J0D01*
G01*
X164875000Y-133375000D01*
G75*
G02*
X165075000Y-133575000I0J-200000D01*
G01*
X165075000Y-133975000D01*
G75*
G02*
X164875000Y-134175000I-200000J0D01*
G01*
G37*
G36*
G01*
X164875000Y-135825000D02*
X164325000Y-135825000D01*
G75*
G02*
X164125000Y-135625000I0J200000D01*
G01*
X164125000Y-135225000D01*
G75*
G02*
X164325000Y-135025000I200000J0D01*
G01*
X164875000Y-135025000D01*
G75*
G02*
X165075000Y-135225000I0J-200000D01*
G01*
X165075000Y-135625000D01*
G75*
G02*
X164875000Y-135825000I-200000J0D01*
G01*
G37*
G36*
G01*
X159275000Y-134175000D02*
X158725000Y-134175000D01*
G75*
G02*
X158525000Y-133975000I0J200000D01*
G01*
X158525000Y-133575000D01*
G75*
G02*
X158725000Y-133375000I200000J0D01*
G01*
X159275000Y-133375000D01*
G75*
G02*
X159475000Y-133575000I0J-200000D01*
G01*
X159475000Y-133975000D01*
G75*
G02*
X159275000Y-134175000I-200000J0D01*
G01*
G37*
G36*
G01*
X159275000Y-135825000D02*
X158725000Y-135825000D01*
G75*
G02*
X158525000Y-135625000I0J200000D01*
G01*
X158525000Y-135225000D01*
G75*
G02*
X158725000Y-135025000I200000J0D01*
G01*
X159275000Y-135025000D01*
G75*
G02*
X159475000Y-135225000I0J-200000D01*
G01*
X159475000Y-135625000D01*
G75*
G02*
X159275000Y-135825000I-200000J0D01*
G01*
G37*
G36*
G01*
X153675000Y-134175000D02*
X153125000Y-134175000D01*
G75*
G02*
X152925000Y-133975000I0J200000D01*
G01*
X152925000Y-133575000D01*
G75*
G02*
X153125000Y-133375000I200000J0D01*
G01*
X153675000Y-133375000D01*
G75*
G02*
X153875000Y-133575000I0J-200000D01*
G01*
X153875000Y-133975000D01*
G75*
G02*
X153675000Y-134175000I-200000J0D01*
G01*
G37*
G36*
G01*
X153675000Y-135825000D02*
X153125000Y-135825000D01*
G75*
G02*
X152925000Y-135625000I0J200000D01*
G01*
X152925000Y-135225000D01*
G75*
G02*
X153125000Y-135025000I200000J0D01*
G01*
X153675000Y-135025000D01*
G75*
G02*
X153875000Y-135225000I0J-200000D01*
G01*
X153875000Y-135625000D01*
G75*
G02*
X153675000Y-135825000I-200000J0D01*
G01*
G37*
G36*
G01*
X167125000Y-138625000D02*
X167675000Y-138625000D01*
G75*
G02*
X167875000Y-138825000I0J-200000D01*
G01*
X167875000Y-139225000D01*
G75*
G02*
X167675000Y-139425000I-200000J0D01*
G01*
X167125000Y-139425000D01*
G75*
G02*
X166925000Y-139225000I0J200000D01*
G01*
X166925000Y-138825000D01*
G75*
G02*
X167125000Y-138625000I200000J0D01*
G01*
G37*
G36*
G01*
X167125000Y-136975000D02*
X167675000Y-136975000D01*
G75*
G02*
X167875000Y-137175000I0J-200000D01*
G01*
X167875000Y-137575000D01*
G75*
G02*
X167675000Y-137775000I-200000J0D01*
G01*
X167125000Y-137775000D01*
G75*
G02*
X166925000Y-137575000I0J200000D01*
G01*
X166925000Y-137175000D01*
G75*
G02*
X167125000Y-136975000I200000J0D01*
G01*
G37*
G36*
G01*
X161525000Y-138625000D02*
X162075000Y-138625000D01*
G75*
G02*
X162275000Y-138825000I0J-200000D01*
G01*
X162275000Y-139225000D01*
G75*
G02*
X162075000Y-139425000I-200000J0D01*
G01*
X161525000Y-139425000D01*
G75*
G02*
X161325000Y-139225000I0J200000D01*
G01*
X161325000Y-138825000D01*
G75*
G02*
X161525000Y-138625000I200000J0D01*
G01*
G37*
G36*
G01*
X161525000Y-136975000D02*
X162075000Y-136975000D01*
G75*
G02*
X162275000Y-137175000I0J-200000D01*
G01*
X162275000Y-137575000D01*
G75*
G02*
X162075000Y-137775000I-200000J0D01*
G01*
X161525000Y-137775000D01*
G75*
G02*
X161325000Y-137575000I0J200000D01*
G01*
X161325000Y-137175000D01*
G75*
G02*
X161525000Y-136975000I200000J0D01*
G01*
G37*
G36*
G01*
X155925000Y-138625000D02*
X156475000Y-138625000D01*
G75*
G02*
X156675000Y-138825000I0J-200000D01*
G01*
X156675000Y-139225000D01*
G75*
G02*
X156475000Y-139425000I-200000J0D01*
G01*
X155925000Y-139425000D01*
G75*
G02*
X155725000Y-139225000I0J200000D01*
G01*
X155725000Y-138825000D01*
G75*
G02*
X155925000Y-138625000I200000J0D01*
G01*
G37*
G36*
G01*
X155925000Y-136975000D02*
X156475000Y-136975000D01*
G75*
G02*
X156675000Y-137175000I0J-200000D01*
G01*
X156675000Y-137575000D01*
G75*
G02*
X156475000Y-137775000I-200000J0D01*
G01*
X155925000Y-137775000D01*
G75*
G02*
X155725000Y-137575000I0J200000D01*
G01*
X155725000Y-137175000D01*
G75*
G02*
X155925000Y-136975000I200000J0D01*
G01*
G37*
G36*
G01*
X150325000Y-138625000D02*
X150875000Y-138625000D01*
G75*
G02*
X151075000Y-138825000I0J-200000D01*
G01*
X151075000Y-139225000D01*
G75*
G02*
X150875000Y-139425000I-200000J0D01*
G01*
X150325000Y-139425000D01*
G75*
G02*
X150125000Y-139225000I0J200000D01*
G01*
X150125000Y-138825000D01*
G75*
G02*
X150325000Y-138625000I200000J0D01*
G01*
G37*
G36*
G01*
X150325000Y-136975000D02*
X150875000Y-136975000D01*
G75*
G02*
X151075000Y-137175000I0J-200000D01*
G01*
X151075000Y-137575000D01*
G75*
G02*
X150875000Y-137775000I-200000J0D01*
G01*
X150325000Y-137775000D01*
G75*
G02*
X150125000Y-137575000I0J200000D01*
G01*
X150125000Y-137175000D01*
G75*
G02*
X150325000Y-136975000I200000J0D01*
G01*
G37*
G36*
G01*
X192343750Y-138550000D02*
X192856250Y-138550000D01*
G75*
G02*
X193075000Y-138768750I0J-218750D01*
G01*
X193075000Y-139206250D01*
G75*
G02*
X192856250Y-139425000I-218750J0D01*
G01*
X192343750Y-139425000D01*
G75*
G02*
X192125000Y-139206250I0J218750D01*
G01*
X192125000Y-138768750D01*
G75*
G02*
X192343750Y-138550000I218750J0D01*
G01*
G37*
G36*
G01*
X192343750Y-136975000D02*
X192856250Y-136975000D01*
G75*
G02*
X193075000Y-137193750I0J-218750D01*
G01*
X193075000Y-137631250D01*
G75*
G02*
X192856250Y-137850000I-218750J0D01*
G01*
X192343750Y-137850000D01*
G75*
G02*
X192125000Y-137631250I0J218750D01*
G01*
X192125000Y-137193750D01*
G75*
G02*
X192343750Y-136975000I218750J0D01*
G01*
G37*
G36*
G01*
X186743750Y-138550000D02*
X187256250Y-138550000D01*
G75*
G02*
X187475000Y-138768750I0J-218750D01*
G01*
X187475000Y-139206250D01*
G75*
G02*
X187256250Y-139425000I-218750J0D01*
G01*
X186743750Y-139425000D01*
G75*
G02*
X186525000Y-139206250I0J218750D01*
G01*
X186525000Y-138768750D01*
G75*
G02*
X186743750Y-138550000I218750J0D01*
G01*
G37*
G36*
G01*
X186743750Y-136975000D02*
X187256250Y-136975000D01*
G75*
G02*
X187475000Y-137193750I0J-218750D01*
G01*
X187475000Y-137631250D01*
G75*
G02*
X187256250Y-137850000I-218750J0D01*
G01*
X186743750Y-137850000D01*
G75*
G02*
X186525000Y-137631250I0J218750D01*
G01*
X186525000Y-137193750D01*
G75*
G02*
X186743750Y-136975000I218750J0D01*
G01*
G37*
G36*
G01*
X181143750Y-138550000D02*
X181656250Y-138550000D01*
G75*
G02*
X181875000Y-138768750I0J-218750D01*
G01*
X181875000Y-139206250D01*
G75*
G02*
X181656250Y-139425000I-218750J0D01*
G01*
X181143750Y-139425000D01*
G75*
G02*
X180925000Y-139206250I0J218750D01*
G01*
X180925000Y-138768750D01*
G75*
G02*
X181143750Y-138550000I218750J0D01*
G01*
G37*
G36*
G01*
X181143750Y-136975000D02*
X181656250Y-136975000D01*
G75*
G02*
X181875000Y-137193750I0J-218750D01*
G01*
X181875000Y-137631250D01*
G75*
G02*
X181656250Y-137850000I-218750J0D01*
G01*
X181143750Y-137850000D01*
G75*
G02*
X180925000Y-137631250I0J218750D01*
G01*
X180925000Y-137193750D01*
G75*
G02*
X181143750Y-136975000I218750J0D01*
G01*
G37*
G36*
G01*
X175543750Y-138550000D02*
X176056250Y-138550000D01*
G75*
G02*
X176275000Y-138768750I0J-218750D01*
G01*
X176275000Y-139206250D01*
G75*
G02*
X176056250Y-139425000I-218750J0D01*
G01*
X175543750Y-139425000D01*
G75*
G02*
X175325000Y-139206250I0J218750D01*
G01*
X175325000Y-138768750D01*
G75*
G02*
X175543750Y-138550000I218750J0D01*
G01*
G37*
G36*
G01*
X175543750Y-136975000D02*
X176056250Y-136975000D01*
G75*
G02*
X176275000Y-137193750I0J-218750D01*
G01*
X176275000Y-137631250D01*
G75*
G02*
X176056250Y-137850000I-218750J0D01*
G01*
X175543750Y-137850000D01*
G75*
G02*
X175325000Y-137631250I0J218750D01*
G01*
X175325000Y-137193750D01*
G75*
G02*
X175543750Y-136975000I218750J0D01*
G01*
G37*
G36*
G01*
X147543750Y-138550000D02*
X148056250Y-138550000D01*
G75*
G02*
X148275000Y-138768750I0J-218750D01*
G01*
X148275000Y-139206250D01*
G75*
G02*
X148056250Y-139425000I-218750J0D01*
G01*
X147543750Y-139425000D01*
G75*
G02*
X147325000Y-139206250I0J218750D01*
G01*
X147325000Y-138768750D01*
G75*
G02*
X147543750Y-138550000I218750J0D01*
G01*
G37*
G36*
G01*
X147543750Y-136975000D02*
X148056250Y-136975000D01*
G75*
G02*
X148275000Y-137193750I0J-218750D01*
G01*
X148275000Y-137631250D01*
G75*
G02*
X148056250Y-137850000I-218750J0D01*
G01*
X147543750Y-137850000D01*
G75*
G02*
X147325000Y-137631250I0J218750D01*
G01*
X147325000Y-137193750D01*
G75*
G02*
X147543750Y-136975000I218750J0D01*
G01*
G37*
G36*
G01*
X136343750Y-138550000D02*
X136856250Y-138550000D01*
G75*
G02*
X137075000Y-138768750I0J-218750D01*
G01*
X137075000Y-139206250D01*
G75*
G02*
X136856250Y-139425000I-218750J0D01*
G01*
X136343750Y-139425000D01*
G75*
G02*
X136125000Y-139206250I0J218750D01*
G01*
X136125000Y-138768750D01*
G75*
G02*
X136343750Y-138550000I218750J0D01*
G01*
G37*
G36*
G01*
X136343750Y-136975000D02*
X136856250Y-136975000D01*
G75*
G02*
X137075000Y-137193750I0J-218750D01*
G01*
X137075000Y-137631250D01*
G75*
G02*
X136856250Y-137850000I-218750J0D01*
G01*
X136343750Y-137850000D01*
G75*
G02*
X136125000Y-137631250I0J218750D01*
G01*
X136125000Y-137193750D01*
G75*
G02*
X136343750Y-136975000I218750J0D01*
G01*
G37*
G36*
G01*
X130743750Y-138550000D02*
X131256250Y-138550000D01*
G75*
G02*
X131475000Y-138768750I0J-218750D01*
G01*
X131475000Y-139206250D01*
G75*
G02*
X131256250Y-139425000I-218750J0D01*
G01*
X130743750Y-139425000D01*
G75*
G02*
X130525000Y-139206250I0J218750D01*
G01*
X130525000Y-138768750D01*
G75*
G02*
X130743750Y-138550000I218750J0D01*
G01*
G37*
G36*
G01*
X130743750Y-136975000D02*
X131256250Y-136975000D01*
G75*
G02*
X131475000Y-137193750I0J-218750D01*
G01*
X131475000Y-137631250D01*
G75*
G02*
X131256250Y-137850000I-218750J0D01*
G01*
X130743750Y-137850000D01*
G75*
G02*
X130525000Y-137631250I0J218750D01*
G01*
X130525000Y-137193750D01*
G75*
G02*
X130743750Y-136975000I218750J0D01*
G01*
G37*
G36*
G01*
X169943750Y-138550000D02*
X170456250Y-138550000D01*
G75*
G02*
X170675000Y-138768750I0J-218750D01*
G01*
X170675000Y-139206250D01*
G75*
G02*
X170456250Y-139425000I-218750J0D01*
G01*
X169943750Y-139425000D01*
G75*
G02*
X169725000Y-139206250I0J218750D01*
G01*
X169725000Y-138768750D01*
G75*
G02*
X169943750Y-138550000I218750J0D01*
G01*
G37*
G36*
G01*
X169943750Y-136975000D02*
X170456250Y-136975000D01*
G75*
G02*
X170675000Y-137193750I0J-218750D01*
G01*
X170675000Y-137631250D01*
G75*
G02*
X170456250Y-137850000I-218750J0D01*
G01*
X169943750Y-137850000D01*
G75*
G02*
X169725000Y-137631250I0J218750D01*
G01*
X169725000Y-137193750D01*
G75*
G02*
X169943750Y-136975000I218750J0D01*
G01*
G37*
G36*
G01*
X164343750Y-138550000D02*
X164856250Y-138550000D01*
G75*
G02*
X165075000Y-138768750I0J-218750D01*
G01*
X165075000Y-139206250D01*
G75*
G02*
X164856250Y-139425000I-218750J0D01*
G01*
X164343750Y-139425000D01*
G75*
G02*
X164125000Y-139206250I0J218750D01*
G01*
X164125000Y-138768750D01*
G75*
G02*
X164343750Y-138550000I218750J0D01*
G01*
G37*
G36*
G01*
X164343750Y-136975000D02*
X164856250Y-136975000D01*
G75*
G02*
X165075000Y-137193750I0J-218750D01*
G01*
X165075000Y-137631250D01*
G75*
G02*
X164856250Y-137850000I-218750J0D01*
G01*
X164343750Y-137850000D01*
G75*
G02*
X164125000Y-137631250I0J218750D01*
G01*
X164125000Y-137193750D01*
G75*
G02*
X164343750Y-136975000I218750J0D01*
G01*
G37*
G36*
G01*
X158743750Y-138550000D02*
X159256250Y-138550000D01*
G75*
G02*
X159475000Y-138768750I0J-218750D01*
G01*
X159475000Y-139206250D01*
G75*
G02*
X159256250Y-139425000I-218750J0D01*
G01*
X158743750Y-139425000D01*
G75*
G02*
X158525000Y-139206250I0J218750D01*
G01*
X158525000Y-138768750D01*
G75*
G02*
X158743750Y-138550000I218750J0D01*
G01*
G37*
G36*
G01*
X158743750Y-136975000D02*
X159256250Y-136975000D01*
G75*
G02*
X159475000Y-137193750I0J-218750D01*
G01*
X159475000Y-137631250D01*
G75*
G02*
X159256250Y-137850000I-218750J0D01*
G01*
X158743750Y-137850000D01*
G75*
G02*
X158525000Y-137631250I0J218750D01*
G01*
X158525000Y-137193750D01*
G75*
G02*
X158743750Y-136975000I218750J0D01*
G01*
G37*
G36*
G01*
X153143750Y-138550000D02*
X153656250Y-138550000D01*
G75*
G02*
X153875000Y-138768750I0J-218750D01*
G01*
X153875000Y-139206250D01*
G75*
G02*
X153656250Y-139425000I-218750J0D01*
G01*
X153143750Y-139425000D01*
G75*
G02*
X152925000Y-139206250I0J218750D01*
G01*
X152925000Y-138768750D01*
G75*
G02*
X153143750Y-138550000I218750J0D01*
G01*
G37*
G36*
G01*
X153143750Y-136975000D02*
X153656250Y-136975000D01*
G75*
G02*
X153875000Y-137193750I0J-218750D01*
G01*
X153875000Y-137631250D01*
G75*
G02*
X153656250Y-137850000I-218750J0D01*
G01*
X153143750Y-137850000D01*
G75*
G02*
X152925000Y-137631250I0J218750D01*
G01*
X152925000Y-137193750D01*
G75*
G02*
X153143750Y-136975000I218750J0D01*
G01*
G37*
G36*
G01*
X98790000Y-137300000D02*
X98490000Y-137300000D01*
G75*
G02*
X98340000Y-137150000I0J150000D01*
G01*
X98340000Y-135500000D01*
G75*
G02*
X98490000Y-135350000I150000J0D01*
G01*
X98790000Y-135350000D01*
G75*
G02*
X98940000Y-135500000I0J-150000D01*
G01*
X98940000Y-137150000D01*
G75*
G02*
X98790000Y-137300000I-150000J0D01*
G01*
G37*
G36*
G01*
X100060000Y-137300000D02*
X99760000Y-137300000D01*
G75*
G02*
X99610000Y-137150000I0J150000D01*
G01*
X99610000Y-135500000D01*
G75*
G02*
X99760000Y-135350000I150000J0D01*
G01*
X100060000Y-135350000D01*
G75*
G02*
X100210000Y-135500000I0J-150000D01*
G01*
X100210000Y-137150000D01*
G75*
G02*
X100060000Y-137300000I-150000J0D01*
G01*
G37*
G36*
G01*
X101330000Y-137300000D02*
X101030000Y-137300000D01*
G75*
G02*
X100880000Y-137150000I0J150000D01*
G01*
X100880000Y-135500000D01*
G75*
G02*
X101030000Y-135350000I150000J0D01*
G01*
X101330000Y-135350000D01*
G75*
G02*
X101480000Y-135500000I0J-150000D01*
G01*
X101480000Y-137150000D01*
G75*
G02*
X101330000Y-137300000I-150000J0D01*
G01*
G37*
G36*
G01*
X102600000Y-137300000D02*
X102300000Y-137300000D01*
G75*
G02*
X102150000Y-137150000I0J150000D01*
G01*
X102150000Y-135500000D01*
G75*
G02*
X102300000Y-135350000I150000J0D01*
G01*
X102600000Y-135350000D01*
G75*
G02*
X102750000Y-135500000I0J-150000D01*
G01*
X102750000Y-137150000D01*
G75*
G02*
X102600000Y-137300000I-150000J0D01*
G01*
G37*
G36*
G01*
X103870000Y-137300000D02*
X103570000Y-137300000D01*
G75*
G02*
X103420000Y-137150000I0J150000D01*
G01*
X103420000Y-135500000D01*
G75*
G02*
X103570000Y-135350000I150000J0D01*
G01*
X103870000Y-135350000D01*
G75*
G02*
X104020000Y-135500000I0J-150000D01*
G01*
X104020000Y-137150000D01*
G75*
G02*
X103870000Y-137300000I-150000J0D01*
G01*
G37*
G36*
G01*
X105140000Y-137300000D02*
X104840000Y-137300000D01*
G75*
G02*
X104690000Y-137150000I0J150000D01*
G01*
X104690000Y-135500000D01*
G75*
G02*
X104840000Y-135350000I150000J0D01*
G01*
X105140000Y-135350000D01*
G75*
G02*
X105290000Y-135500000I0J-150000D01*
G01*
X105290000Y-137150000D01*
G75*
G02*
X105140000Y-137300000I-150000J0D01*
G01*
G37*
G36*
G01*
X106410000Y-137300000D02*
X106110000Y-137300000D01*
G75*
G02*
X105960000Y-137150000I0J150000D01*
G01*
X105960000Y-135500000D01*
G75*
G02*
X106110000Y-135350000I150000J0D01*
G01*
X106410000Y-135350000D01*
G75*
G02*
X106560000Y-135500000I0J-150000D01*
G01*
X106560000Y-137150000D01*
G75*
G02*
X106410000Y-137300000I-150000J0D01*
G01*
G37*
G36*
G01*
X106410000Y-142250000D02*
X106110000Y-142250000D01*
G75*
G02*
X105960000Y-142100000I0J150000D01*
G01*
X105960000Y-140450000D01*
G75*
G02*
X106110000Y-140300000I150000J0D01*
G01*
X106410000Y-140300000D01*
G75*
G02*
X106560000Y-140450000I0J-150000D01*
G01*
X106560000Y-142100000D01*
G75*
G02*
X106410000Y-142250000I-150000J0D01*
G01*
G37*
G36*
G01*
X105140000Y-142250000D02*
X104840000Y-142250000D01*
G75*
G02*
X104690000Y-142100000I0J150000D01*
G01*
X104690000Y-140450000D01*
G75*
G02*
X104840000Y-140300000I150000J0D01*
G01*
X105140000Y-140300000D01*
G75*
G02*
X105290000Y-140450000I0J-150000D01*
G01*
X105290000Y-142100000D01*
G75*
G02*
X105140000Y-142250000I-150000J0D01*
G01*
G37*
G36*
G01*
X103870000Y-142250000D02*
X103570000Y-142250000D01*
G75*
G02*
X103420000Y-142100000I0J150000D01*
G01*
X103420000Y-140450000D01*
G75*
G02*
X103570000Y-140300000I150000J0D01*
G01*
X103870000Y-140300000D01*
G75*
G02*
X104020000Y-140450000I0J-150000D01*
G01*
X104020000Y-142100000D01*
G75*
G02*
X103870000Y-142250000I-150000J0D01*
G01*
G37*
G36*
G01*
X102600000Y-142250000D02*
X102300000Y-142250000D01*
G75*
G02*
X102150000Y-142100000I0J150000D01*
G01*
X102150000Y-140450000D01*
G75*
G02*
X102300000Y-140300000I150000J0D01*
G01*
X102600000Y-140300000D01*
G75*
G02*
X102750000Y-140450000I0J-150000D01*
G01*
X102750000Y-142100000D01*
G75*
G02*
X102600000Y-142250000I-150000J0D01*
G01*
G37*
G36*
G01*
X101330000Y-142250000D02*
X101030000Y-142250000D01*
G75*
G02*
X100880000Y-142100000I0J150000D01*
G01*
X100880000Y-140450000D01*
G75*
G02*
X101030000Y-140300000I150000J0D01*
G01*
X101330000Y-140300000D01*
G75*
G02*
X101480000Y-140450000I0J-150000D01*
G01*
X101480000Y-142100000D01*
G75*
G02*
X101330000Y-142250000I-150000J0D01*
G01*
G37*
G36*
G01*
X100060000Y-142250000D02*
X99760000Y-142250000D01*
G75*
G02*
X99610000Y-142100000I0J150000D01*
G01*
X99610000Y-140450000D01*
G75*
G02*
X99760000Y-140300000I150000J0D01*
G01*
X100060000Y-140300000D01*
G75*
G02*
X100210000Y-140450000I0J-150000D01*
G01*
X100210000Y-142100000D01*
G75*
G02*
X100060000Y-142250000I-150000J0D01*
G01*
G37*
G36*
G01*
X98790000Y-142250000D02*
X98490000Y-142250000D01*
G75*
G02*
X98340000Y-142100000I0J150000D01*
G01*
X98340000Y-140450000D01*
G75*
G02*
X98490000Y-140300000I150000J0D01*
G01*
X98790000Y-140300000D01*
G75*
G02*
X98940000Y-140450000I0J-150000D01*
G01*
X98940000Y-142100000D01*
G75*
G02*
X98790000Y-142250000I-150000J0D01*
G01*
G37*
G36*
G01*
X113475000Y-133575000D02*
X112925000Y-133575000D01*
G75*
G02*
X112725000Y-133375000I0J200000D01*
G01*
X112725000Y-132975000D01*
G75*
G02*
X112925000Y-132775000I200000J0D01*
G01*
X113475000Y-132775000D01*
G75*
G02*
X113675000Y-132975000I0J-200000D01*
G01*
X113675000Y-133375000D01*
G75*
G02*
X113475000Y-133575000I-200000J0D01*
G01*
G37*
G36*
G01*
X113475000Y-135225000D02*
X112925000Y-135225000D01*
G75*
G02*
X112725000Y-135025000I0J200000D01*
G01*
X112725000Y-134625000D01*
G75*
G02*
X112925000Y-134425000I200000J0D01*
G01*
X113475000Y-134425000D01*
G75*
G02*
X113675000Y-134625000I0J-200000D01*
G01*
X113675000Y-135025000D01*
G75*
G02*
X113475000Y-135225000I-200000J0D01*
G01*
G37*
G36*
G01*
X106275000Y-144775000D02*
X106275000Y-144225000D01*
G75*
G02*
X106475000Y-144025000I200000J0D01*
G01*
X106875000Y-144025000D01*
G75*
G02*
X107075000Y-144225000I0J-200000D01*
G01*
X107075000Y-144775000D01*
G75*
G02*
X106875000Y-144975000I-200000J0D01*
G01*
X106475000Y-144975000D01*
G75*
G02*
X106275000Y-144775000I0J200000D01*
G01*
G37*
G36*
G01*
X104625000Y-144775000D02*
X104625000Y-144225000D01*
G75*
G02*
X104825000Y-144025000I200000J0D01*
G01*
X105225000Y-144025000D01*
G75*
G02*
X105425000Y-144225000I0J-200000D01*
G01*
X105425000Y-144775000D01*
G75*
G02*
X105225000Y-144975000I-200000J0D01*
G01*
X104825000Y-144975000D01*
G75*
G02*
X104625000Y-144775000I0J200000D01*
G01*
G37*
G36*
G01*
X98475000Y-144225000D02*
X98475000Y-144775000D01*
G75*
G02*
X98275000Y-144975000I-200000J0D01*
G01*
X97875000Y-144975000D01*
G75*
G02*
X97675000Y-144775000I0J200000D01*
G01*
X97675000Y-144225000D01*
G75*
G02*
X97875000Y-144025000I200000J0D01*
G01*
X98275000Y-144025000D01*
G75*
G02*
X98475000Y-144225000I0J-200000D01*
G01*
G37*
G36*
G01*
X100125000Y-144225000D02*
X100125000Y-144775000D01*
G75*
G02*
X99925000Y-144975000I-200000J0D01*
G01*
X99525000Y-144975000D01*
G75*
G02*
X99325000Y-144775000I0J200000D01*
G01*
X99325000Y-144225000D01*
G75*
G02*
X99525000Y-144025000I200000J0D01*
G01*
X99925000Y-144025000D01*
G75*
G02*
X100125000Y-144225000I0J-200000D01*
G01*
G37*
D16*
X125450000Y-134300000D03*
X123450000Y-135250000D03*
X123450000Y-133350000D03*
X119700000Y-138400000D03*
X117700000Y-139350000D03*
X117700000Y-137450000D03*
X121700000Y-134300000D03*
X119700000Y-135250000D03*
X119700000Y-133350000D03*
X115950000Y-138400000D03*
X113950000Y-139350000D03*
X113950000Y-137450000D03*
X103850000Y-147600000D03*
X101850000Y-148550000D03*
X101850000Y-146650000D03*
X107600000Y-147600000D03*
X105600000Y-148550000D03*
X105600000Y-146650000D03*
X117950000Y-134300000D03*
X115950000Y-135250000D03*
X115950000Y-133350000D03*
X100100000Y-147600000D03*
X98100000Y-148550000D03*
X98100000Y-146650000D03*
X112200000Y-138400000D03*
X110200000Y-139350000D03*
X110200000Y-137450000D03*
G36*
G01*
X102250000Y-144750000D02*
X102250000Y-144250000D01*
G75*
G02*
X102475000Y-144025000I225000J0D01*
G01*
X102925000Y-144025000D01*
G75*
G02*
X103150000Y-144250000I0J-225000D01*
G01*
X103150000Y-144750000D01*
G75*
G02*
X102925000Y-144975000I-225000J0D01*
G01*
X102475000Y-144975000D01*
G75*
G02*
X102250000Y-144750000I0J225000D01*
G01*
G37*
G36*
G01*
X100700000Y-144750000D02*
X100700000Y-144250000D01*
G75*
G02*
X100925000Y-144025000I225000J0D01*
G01*
X101375000Y-144025000D01*
G75*
G02*
X101600000Y-144250000I0J-225000D01*
G01*
X101600000Y-144750000D01*
G75*
G02*
X101375000Y-144975000I-225000J0D01*
G01*
X100925000Y-144975000D01*
G75*
G02*
X100700000Y-144750000I0J225000D01*
G01*
G37*
G36*
G01*
X112099999Y-149000000D02*
X113400001Y-149000000D01*
G75*
G02*
X113650000Y-149249999I0J-249999D01*
G01*
X113650000Y-149900001D01*
G75*
G02*
X113400001Y-150150000I-249999J0D01*
G01*
X112099999Y-150150000D01*
G75*
G02*
X111850000Y-149900001I0J249999D01*
G01*
X111850000Y-149249999D01*
G75*
G02*
X112099999Y-149000000I249999J0D01*
G01*
G37*
G36*
G01*
X112099999Y-146050000D02*
X113400001Y-146050000D01*
G75*
G02*
X113650000Y-146299999I0J-249999D01*
G01*
X113650000Y-146950001D01*
G75*
G02*
X113400001Y-147200000I-249999J0D01*
G01*
X112099999Y-147200000D01*
G75*
G02*
X111850000Y-146950001I0J249999D01*
G01*
X111850000Y-146299999D01*
G75*
G02*
X112099999Y-146050000I249999J0D01*
G01*
G37*
G36*
G01*
X125600000Y-137875000D02*
X125100000Y-137875000D01*
G75*
G02*
X124875000Y-137650000I0J225000D01*
G01*
X124875000Y-137200000D01*
G75*
G02*
X125100000Y-136975000I225000J0D01*
G01*
X125600000Y-136975000D01*
G75*
G02*
X125825000Y-137200000I0J-225000D01*
G01*
X125825000Y-137650000D01*
G75*
G02*
X125600000Y-137875000I-225000J0D01*
G01*
G37*
G36*
G01*
X125600000Y-139425000D02*
X125100000Y-139425000D01*
G75*
G02*
X124875000Y-139200000I0J225000D01*
G01*
X124875000Y-138750000D01*
G75*
G02*
X125100000Y-138525000I225000J0D01*
G01*
X125600000Y-138525000D01*
G75*
G02*
X125825000Y-138750000I0J-225000D01*
G01*
X125825000Y-139200000D01*
G75*
G02*
X125600000Y-139425000I-225000J0D01*
G01*
G37*
G36*
G01*
X122750000Y-137825000D02*
X122250000Y-137825000D01*
G75*
G02*
X122025000Y-137600000I0J225000D01*
G01*
X122025000Y-137150000D01*
G75*
G02*
X122250000Y-136925000I225000J0D01*
G01*
X122750000Y-136925000D01*
G75*
G02*
X122975000Y-137150000I0J-225000D01*
G01*
X122975000Y-137600000D01*
G75*
G02*
X122750000Y-137825000I-225000J0D01*
G01*
G37*
G36*
G01*
X122750000Y-139375000D02*
X122250000Y-139375000D01*
G75*
G02*
X122025000Y-139150000I0J225000D01*
G01*
X122025000Y-138700000D01*
G75*
G02*
X122250000Y-138475000I225000J0D01*
G01*
X122750000Y-138475000D01*
G75*
G02*
X122975000Y-138700000I0J-225000D01*
G01*
X122975000Y-139150000D01*
G75*
G02*
X122750000Y-139375000I-225000J0D01*
G01*
G37*
G36*
G01*
X113400000Y-142550000D02*
X112900000Y-142550000D01*
G75*
G02*
X112675000Y-142325000I0J225000D01*
G01*
X112675000Y-141875000D01*
G75*
G02*
X112900000Y-141650000I225000J0D01*
G01*
X113400000Y-141650000D01*
G75*
G02*
X113625000Y-141875000I0J-225000D01*
G01*
X113625000Y-142325000D01*
G75*
G02*
X113400000Y-142550000I-225000J0D01*
G01*
G37*
G36*
G01*
X113400000Y-144100000D02*
X112900000Y-144100000D01*
G75*
G02*
X112675000Y-143875000I0J225000D01*
G01*
X112675000Y-143425000D01*
G75*
G02*
X112900000Y-143200000I225000J0D01*
G01*
X113400000Y-143200000D01*
G75*
G02*
X113625000Y-143425000I0J-225000D01*
G01*
X113625000Y-143875000D01*
G75*
G02*
X113400000Y-144100000I-225000J0D01*
G01*
G37*
G36*
G01*
X102625000Y-133400000D02*
X102625000Y-133900000D01*
G75*
G02*
X102400000Y-134125000I-225000J0D01*
G01*
X101950000Y-134125000D01*
G75*
G02*
X101725000Y-133900000I0J225000D01*
G01*
X101725000Y-133400000D01*
G75*
G02*
X101950000Y-133175000I225000J0D01*
G01*
X102400000Y-133175000D01*
G75*
G02*
X102625000Y-133400000I0J-225000D01*
G01*
G37*
G36*
G01*
X104175000Y-133400000D02*
X104175000Y-133900000D01*
G75*
G02*
X103950000Y-134125000I-225000J0D01*
G01*
X103500000Y-134125000D01*
G75*
G02*
X103275000Y-133900000I0J225000D01*
G01*
X103275000Y-133400000D01*
G75*
G02*
X103500000Y-133175000I225000J0D01*
G01*
X103950000Y-133175000D01*
G75*
G02*
X104175000Y-133400000I0J-225000D01*
G01*
G37*
G36*
G01*
X110500000Y-133625000D02*
X110000000Y-133625000D01*
G75*
G02*
X109775000Y-133400000I0J225000D01*
G01*
X109775000Y-132950000D01*
G75*
G02*
X110000000Y-132725000I225000J0D01*
G01*
X110500000Y-132725000D01*
G75*
G02*
X110725000Y-132950000I0J-225000D01*
G01*
X110725000Y-133400000D01*
G75*
G02*
X110500000Y-133625000I-225000J0D01*
G01*
G37*
G36*
G01*
X110500000Y-135175000D02*
X110000000Y-135175000D01*
G75*
G02*
X109775000Y-134950000I0J225000D01*
G01*
X109775000Y-134500000D01*
G75*
G02*
X110000000Y-134275000I225000J0D01*
G01*
X110500000Y-134275000D01*
G75*
G02*
X110725000Y-134500000I0J-225000D01*
G01*
X110725000Y-134950000D01*
G75*
G02*
X110500000Y-135175000I-225000J0D01*
G01*
G37*
G36*
G01*
X146900000Y-81700000D02*
X146900000Y-80250000D01*
G75*
G02*
X146975000Y-80175000I75000J0D01*
G01*
X147125000Y-80175000D01*
G75*
G02*
X147200000Y-80250000I0J-75000D01*
G01*
X147200000Y-81700000D01*
G75*
G02*
X147125000Y-81775000I-75000J0D01*
G01*
X146975000Y-81775000D01*
G75*
G02*
X146900000Y-81700000I0J75000D01*
G01*
G37*
G36*
G01*
X147400000Y-81700000D02*
X147400000Y-80250000D01*
G75*
G02*
X147475000Y-80175000I75000J0D01*
G01*
X147625000Y-80175000D01*
G75*
G02*
X147700000Y-80250000I0J-75000D01*
G01*
X147700000Y-81700000D01*
G75*
G02*
X147625000Y-81775000I-75000J0D01*
G01*
X147475000Y-81775000D01*
G75*
G02*
X147400000Y-81700000I0J75000D01*
G01*
G37*
G36*
G01*
X147900000Y-81700000D02*
X147900000Y-80250000D01*
G75*
G02*
X147975000Y-80175000I75000J0D01*
G01*
X148125000Y-80175000D01*
G75*
G02*
X148200000Y-80250000I0J-75000D01*
G01*
X148200000Y-81700000D01*
G75*
G02*
X148125000Y-81775000I-75000J0D01*
G01*
X147975000Y-81775000D01*
G75*
G02*
X147900000Y-81700000I0J75000D01*
G01*
G37*
G36*
G01*
X148400000Y-81700000D02*
X148400000Y-80250000D01*
G75*
G02*
X148475000Y-80175000I75000J0D01*
G01*
X148625000Y-80175000D01*
G75*
G02*
X148700000Y-80250000I0J-75000D01*
G01*
X148700000Y-81700000D01*
G75*
G02*
X148625000Y-81775000I-75000J0D01*
G01*
X148475000Y-81775000D01*
G75*
G02*
X148400000Y-81700000I0J75000D01*
G01*
G37*
G36*
G01*
X148900000Y-81700000D02*
X148900000Y-80250000D01*
G75*
G02*
X148975000Y-80175000I75000J0D01*
G01*
X149125000Y-80175000D01*
G75*
G02*
X149200000Y-80250000I0J-75000D01*
G01*
X149200000Y-81700000D01*
G75*
G02*
X149125000Y-81775000I-75000J0D01*
G01*
X148975000Y-81775000D01*
G75*
G02*
X148900000Y-81700000I0J75000D01*
G01*
G37*
G36*
G01*
X149400000Y-81700000D02*
X149400000Y-80250000D01*
G75*
G02*
X149475000Y-80175000I75000J0D01*
G01*
X149625000Y-80175000D01*
G75*
G02*
X149700000Y-80250000I0J-75000D01*
G01*
X149700000Y-81700000D01*
G75*
G02*
X149625000Y-81775000I-75000J0D01*
G01*
X149475000Y-81775000D01*
G75*
G02*
X149400000Y-81700000I0J75000D01*
G01*
G37*
G36*
G01*
X149900000Y-81700000D02*
X149900000Y-80250000D01*
G75*
G02*
X149975000Y-80175000I75000J0D01*
G01*
X150125000Y-80175000D01*
G75*
G02*
X150200000Y-80250000I0J-75000D01*
G01*
X150200000Y-81700000D01*
G75*
G02*
X150125000Y-81775000I-75000J0D01*
G01*
X149975000Y-81775000D01*
G75*
G02*
X149900000Y-81700000I0J75000D01*
G01*
G37*
G36*
G01*
X150400000Y-81700000D02*
X150400000Y-80250000D01*
G75*
G02*
X150475000Y-80175000I75000J0D01*
G01*
X150625000Y-80175000D01*
G75*
G02*
X150700000Y-80250000I0J-75000D01*
G01*
X150700000Y-81700000D01*
G75*
G02*
X150625000Y-81775000I-75000J0D01*
G01*
X150475000Y-81775000D01*
G75*
G02*
X150400000Y-81700000I0J75000D01*
G01*
G37*
G36*
G01*
X150900000Y-81700000D02*
X150900000Y-80250000D01*
G75*
G02*
X150975000Y-80175000I75000J0D01*
G01*
X151125000Y-80175000D01*
G75*
G02*
X151200000Y-80250000I0J-75000D01*
G01*
X151200000Y-81700000D01*
G75*
G02*
X151125000Y-81775000I-75000J0D01*
G01*
X150975000Y-81775000D01*
G75*
G02*
X150900000Y-81700000I0J75000D01*
G01*
G37*
G36*
G01*
X151400000Y-81700000D02*
X151400000Y-80250000D01*
G75*
G02*
X151475000Y-80175000I75000J0D01*
G01*
X151625000Y-80175000D01*
G75*
G02*
X151700000Y-80250000I0J-75000D01*
G01*
X151700000Y-81700000D01*
G75*
G02*
X151625000Y-81775000I-75000J0D01*
G01*
X151475000Y-81775000D01*
G75*
G02*
X151400000Y-81700000I0J75000D01*
G01*
G37*
G36*
G01*
X151900000Y-81700000D02*
X151900000Y-80250000D01*
G75*
G02*
X151975000Y-80175000I75000J0D01*
G01*
X152125000Y-80175000D01*
G75*
G02*
X152200000Y-80250000I0J-75000D01*
G01*
X152200000Y-81700000D01*
G75*
G02*
X152125000Y-81775000I-75000J0D01*
G01*
X151975000Y-81775000D01*
G75*
G02*
X151900000Y-81700000I0J75000D01*
G01*
G37*
G36*
G01*
X152400000Y-81700000D02*
X152400000Y-80250000D01*
G75*
G02*
X152475000Y-80175000I75000J0D01*
G01*
X152625000Y-80175000D01*
G75*
G02*
X152700000Y-80250000I0J-75000D01*
G01*
X152700000Y-81700000D01*
G75*
G02*
X152625000Y-81775000I-75000J0D01*
G01*
X152475000Y-81775000D01*
G75*
G02*
X152400000Y-81700000I0J75000D01*
G01*
G37*
G36*
G01*
X152900000Y-81700000D02*
X152900000Y-80250000D01*
G75*
G02*
X152975000Y-80175000I75000J0D01*
G01*
X153125000Y-80175000D01*
G75*
G02*
X153200000Y-80250000I0J-75000D01*
G01*
X153200000Y-81700000D01*
G75*
G02*
X153125000Y-81775000I-75000J0D01*
G01*
X152975000Y-81775000D01*
G75*
G02*
X152900000Y-81700000I0J75000D01*
G01*
G37*
G36*
G01*
X153400000Y-81700000D02*
X153400000Y-80250000D01*
G75*
G02*
X153475000Y-80175000I75000J0D01*
G01*
X153625000Y-80175000D01*
G75*
G02*
X153700000Y-80250000I0J-75000D01*
G01*
X153700000Y-81700000D01*
G75*
G02*
X153625000Y-81775000I-75000J0D01*
G01*
X153475000Y-81775000D01*
G75*
G02*
X153400000Y-81700000I0J75000D01*
G01*
G37*
G36*
G01*
X153900000Y-81700000D02*
X153900000Y-80250000D01*
G75*
G02*
X153975000Y-80175000I75000J0D01*
G01*
X154125000Y-80175000D01*
G75*
G02*
X154200000Y-80250000I0J-75000D01*
G01*
X154200000Y-81700000D01*
G75*
G02*
X154125000Y-81775000I-75000J0D01*
G01*
X153975000Y-81775000D01*
G75*
G02*
X153900000Y-81700000I0J75000D01*
G01*
G37*
G36*
G01*
X154400000Y-81700000D02*
X154400000Y-80250000D01*
G75*
G02*
X154475000Y-80175000I75000J0D01*
G01*
X154625000Y-80175000D01*
G75*
G02*
X154700000Y-80250000I0J-75000D01*
G01*
X154700000Y-81700000D01*
G75*
G02*
X154625000Y-81775000I-75000J0D01*
G01*
X154475000Y-81775000D01*
G75*
G02*
X154400000Y-81700000I0J75000D01*
G01*
G37*
G36*
G01*
X154900000Y-81700000D02*
X154900000Y-80250000D01*
G75*
G02*
X154975000Y-80175000I75000J0D01*
G01*
X155125000Y-80175000D01*
G75*
G02*
X155200000Y-80250000I0J-75000D01*
G01*
X155200000Y-81700000D01*
G75*
G02*
X155125000Y-81775000I-75000J0D01*
G01*
X154975000Y-81775000D01*
G75*
G02*
X154900000Y-81700000I0J75000D01*
G01*
G37*
G36*
G01*
X155400000Y-81700000D02*
X155400000Y-80250000D01*
G75*
G02*
X155475000Y-80175000I75000J0D01*
G01*
X155625000Y-80175000D01*
G75*
G02*
X155700000Y-80250000I0J-75000D01*
G01*
X155700000Y-81700000D01*
G75*
G02*
X155625000Y-81775000I-75000J0D01*
G01*
X155475000Y-81775000D01*
G75*
G02*
X155400000Y-81700000I0J75000D01*
G01*
G37*
G36*
G01*
X155900000Y-81700000D02*
X155900000Y-80250000D01*
G75*
G02*
X155975000Y-80175000I75000J0D01*
G01*
X156125000Y-80175000D01*
G75*
G02*
X156200000Y-80250000I0J-75000D01*
G01*
X156200000Y-81700000D01*
G75*
G02*
X156125000Y-81775000I-75000J0D01*
G01*
X155975000Y-81775000D01*
G75*
G02*
X155900000Y-81700000I0J75000D01*
G01*
G37*
G36*
G01*
X156400000Y-81700000D02*
X156400000Y-80250000D01*
G75*
G02*
X156475000Y-80175000I75000J0D01*
G01*
X156625000Y-80175000D01*
G75*
G02*
X156700000Y-80250000I0J-75000D01*
G01*
X156700000Y-81700000D01*
G75*
G02*
X156625000Y-81775000I-75000J0D01*
G01*
X156475000Y-81775000D01*
G75*
G02*
X156400000Y-81700000I0J75000D01*
G01*
G37*
G36*
G01*
X156900000Y-81700000D02*
X156900000Y-80250000D01*
G75*
G02*
X156975000Y-80175000I75000J0D01*
G01*
X157125000Y-80175000D01*
G75*
G02*
X157200000Y-80250000I0J-75000D01*
G01*
X157200000Y-81700000D01*
G75*
G02*
X157125000Y-81775000I-75000J0D01*
G01*
X156975000Y-81775000D01*
G75*
G02*
X156900000Y-81700000I0J75000D01*
G01*
G37*
G36*
G01*
X157400000Y-81700000D02*
X157400000Y-80250000D01*
G75*
G02*
X157475000Y-80175000I75000J0D01*
G01*
X157625000Y-80175000D01*
G75*
G02*
X157700000Y-80250000I0J-75000D01*
G01*
X157700000Y-81700000D01*
G75*
G02*
X157625000Y-81775000I-75000J0D01*
G01*
X157475000Y-81775000D01*
G75*
G02*
X157400000Y-81700000I0J75000D01*
G01*
G37*
G36*
G01*
X157900000Y-81700000D02*
X157900000Y-80250000D01*
G75*
G02*
X157975000Y-80175000I75000J0D01*
G01*
X158125000Y-80175000D01*
G75*
G02*
X158200000Y-80250000I0J-75000D01*
G01*
X158200000Y-81700000D01*
G75*
G02*
X158125000Y-81775000I-75000J0D01*
G01*
X157975000Y-81775000D01*
G75*
G02*
X157900000Y-81700000I0J75000D01*
G01*
G37*
G36*
G01*
X158400000Y-81700000D02*
X158400000Y-80250000D01*
G75*
G02*
X158475000Y-80175000I75000J0D01*
G01*
X158625000Y-80175000D01*
G75*
G02*
X158700000Y-80250000I0J-75000D01*
G01*
X158700000Y-81700000D01*
G75*
G02*
X158625000Y-81775000I-75000J0D01*
G01*
X158475000Y-81775000D01*
G75*
G02*
X158400000Y-81700000I0J75000D01*
G01*
G37*
G36*
G01*
X158900000Y-81700000D02*
X158900000Y-80250000D01*
G75*
G02*
X158975000Y-80175000I75000J0D01*
G01*
X159125000Y-80175000D01*
G75*
G02*
X159200000Y-80250000I0J-75000D01*
G01*
X159200000Y-81700000D01*
G75*
G02*
X159125000Y-81775000I-75000J0D01*
G01*
X158975000Y-81775000D01*
G75*
G02*
X158900000Y-81700000I0J75000D01*
G01*
G37*
G36*
G01*
X159925000Y-82725000D02*
X159925000Y-82575000D01*
G75*
G02*
X160000000Y-82500000I75000J0D01*
G01*
X161450000Y-82500000D01*
G75*
G02*
X161525000Y-82575000I0J-75000D01*
G01*
X161525000Y-82725000D01*
G75*
G02*
X161450000Y-82800000I-75000J0D01*
G01*
X160000000Y-82800000D01*
G75*
G02*
X159925000Y-82725000I0J75000D01*
G01*
G37*
G36*
G01*
X159925000Y-83225000D02*
X159925000Y-83075000D01*
G75*
G02*
X160000000Y-83000000I75000J0D01*
G01*
X161450000Y-83000000D01*
G75*
G02*
X161525000Y-83075000I0J-75000D01*
G01*
X161525000Y-83225000D01*
G75*
G02*
X161450000Y-83300000I-75000J0D01*
G01*
X160000000Y-83300000D01*
G75*
G02*
X159925000Y-83225000I0J75000D01*
G01*
G37*
G36*
G01*
X159925000Y-83725000D02*
X159925000Y-83575000D01*
G75*
G02*
X160000000Y-83500000I75000J0D01*
G01*
X161450000Y-83500000D01*
G75*
G02*
X161525000Y-83575000I0J-75000D01*
G01*
X161525000Y-83725000D01*
G75*
G02*
X161450000Y-83800000I-75000J0D01*
G01*
X160000000Y-83800000D01*
G75*
G02*
X159925000Y-83725000I0J75000D01*
G01*
G37*
G36*
G01*
X159925000Y-84225000D02*
X159925000Y-84075000D01*
G75*
G02*
X160000000Y-84000000I75000J0D01*
G01*
X161450000Y-84000000D01*
G75*
G02*
X161525000Y-84075000I0J-75000D01*
G01*
X161525000Y-84225000D01*
G75*
G02*
X161450000Y-84300000I-75000J0D01*
G01*
X160000000Y-84300000D01*
G75*
G02*
X159925000Y-84225000I0J75000D01*
G01*
G37*
G36*
G01*
X159925000Y-84725000D02*
X159925000Y-84575000D01*
G75*
G02*
X160000000Y-84500000I75000J0D01*
G01*
X161450000Y-84500000D01*
G75*
G02*
X161525000Y-84575000I0J-75000D01*
G01*
X161525000Y-84725000D01*
G75*
G02*
X161450000Y-84800000I-75000J0D01*
G01*
X160000000Y-84800000D01*
G75*
G02*
X159925000Y-84725000I0J75000D01*
G01*
G37*
G36*
G01*
X159925000Y-85225000D02*
X159925000Y-85075000D01*
G75*
G02*
X160000000Y-85000000I75000J0D01*
G01*
X161450000Y-85000000D01*
G75*
G02*
X161525000Y-85075000I0J-75000D01*
G01*
X161525000Y-85225000D01*
G75*
G02*
X161450000Y-85300000I-75000J0D01*
G01*
X160000000Y-85300000D01*
G75*
G02*
X159925000Y-85225000I0J75000D01*
G01*
G37*
G36*
G01*
X159925000Y-85725000D02*
X159925000Y-85575000D01*
G75*
G02*
X160000000Y-85500000I75000J0D01*
G01*
X161450000Y-85500000D01*
G75*
G02*
X161525000Y-85575000I0J-75000D01*
G01*
X161525000Y-85725000D01*
G75*
G02*
X161450000Y-85800000I-75000J0D01*
G01*
X160000000Y-85800000D01*
G75*
G02*
X159925000Y-85725000I0J75000D01*
G01*
G37*
G36*
G01*
X159925000Y-86225000D02*
X159925000Y-86075000D01*
G75*
G02*
X160000000Y-86000000I75000J0D01*
G01*
X161450000Y-86000000D01*
G75*
G02*
X161525000Y-86075000I0J-75000D01*
G01*
X161525000Y-86225000D01*
G75*
G02*
X161450000Y-86300000I-75000J0D01*
G01*
X160000000Y-86300000D01*
G75*
G02*
X159925000Y-86225000I0J75000D01*
G01*
G37*
G36*
G01*
X159925000Y-86725000D02*
X159925000Y-86575000D01*
G75*
G02*
X160000000Y-86500000I75000J0D01*
G01*
X161450000Y-86500000D01*
G75*
G02*
X161525000Y-86575000I0J-75000D01*
G01*
X161525000Y-86725000D01*
G75*
G02*
X161450000Y-86800000I-75000J0D01*
G01*
X160000000Y-86800000D01*
G75*
G02*
X159925000Y-86725000I0J75000D01*
G01*
G37*
G36*
G01*
X159925000Y-87225000D02*
X159925000Y-87075000D01*
G75*
G02*
X160000000Y-87000000I75000J0D01*
G01*
X161450000Y-87000000D01*
G75*
G02*
X161525000Y-87075000I0J-75000D01*
G01*
X161525000Y-87225000D01*
G75*
G02*
X161450000Y-87300000I-75000J0D01*
G01*
X160000000Y-87300000D01*
G75*
G02*
X159925000Y-87225000I0J75000D01*
G01*
G37*
G36*
G01*
X159925000Y-87725000D02*
X159925000Y-87575000D01*
G75*
G02*
X160000000Y-87500000I75000J0D01*
G01*
X161450000Y-87500000D01*
G75*
G02*
X161525000Y-87575000I0J-75000D01*
G01*
X161525000Y-87725000D01*
G75*
G02*
X161450000Y-87800000I-75000J0D01*
G01*
X160000000Y-87800000D01*
G75*
G02*
X159925000Y-87725000I0J75000D01*
G01*
G37*
G36*
G01*
X159925000Y-88225000D02*
X159925000Y-88075000D01*
G75*
G02*
X160000000Y-88000000I75000J0D01*
G01*
X161450000Y-88000000D01*
G75*
G02*
X161525000Y-88075000I0J-75000D01*
G01*
X161525000Y-88225000D01*
G75*
G02*
X161450000Y-88300000I-75000J0D01*
G01*
X160000000Y-88300000D01*
G75*
G02*
X159925000Y-88225000I0J75000D01*
G01*
G37*
G36*
G01*
X159925000Y-88725000D02*
X159925000Y-88575000D01*
G75*
G02*
X160000000Y-88500000I75000J0D01*
G01*
X161450000Y-88500000D01*
G75*
G02*
X161525000Y-88575000I0J-75000D01*
G01*
X161525000Y-88725000D01*
G75*
G02*
X161450000Y-88800000I-75000J0D01*
G01*
X160000000Y-88800000D01*
G75*
G02*
X159925000Y-88725000I0J75000D01*
G01*
G37*
G36*
G01*
X159925000Y-89225000D02*
X159925000Y-89075000D01*
G75*
G02*
X160000000Y-89000000I75000J0D01*
G01*
X161450000Y-89000000D01*
G75*
G02*
X161525000Y-89075000I0J-75000D01*
G01*
X161525000Y-89225000D01*
G75*
G02*
X161450000Y-89300000I-75000J0D01*
G01*
X160000000Y-89300000D01*
G75*
G02*
X159925000Y-89225000I0J75000D01*
G01*
G37*
G36*
G01*
X159925000Y-89725000D02*
X159925000Y-89575000D01*
G75*
G02*
X160000000Y-89500000I75000J0D01*
G01*
X161450000Y-89500000D01*
G75*
G02*
X161525000Y-89575000I0J-75000D01*
G01*
X161525000Y-89725000D01*
G75*
G02*
X161450000Y-89800000I-75000J0D01*
G01*
X160000000Y-89800000D01*
G75*
G02*
X159925000Y-89725000I0J75000D01*
G01*
G37*
G36*
G01*
X159925000Y-90225000D02*
X159925000Y-90075000D01*
G75*
G02*
X160000000Y-90000000I75000J0D01*
G01*
X161450000Y-90000000D01*
G75*
G02*
X161525000Y-90075000I0J-75000D01*
G01*
X161525000Y-90225000D01*
G75*
G02*
X161450000Y-90300000I-75000J0D01*
G01*
X160000000Y-90300000D01*
G75*
G02*
X159925000Y-90225000I0J75000D01*
G01*
G37*
G36*
G01*
X159925000Y-90725000D02*
X159925000Y-90575000D01*
G75*
G02*
X160000000Y-90500000I75000J0D01*
G01*
X161450000Y-90500000D01*
G75*
G02*
X161525000Y-90575000I0J-75000D01*
G01*
X161525000Y-90725000D01*
G75*
G02*
X161450000Y-90800000I-75000J0D01*
G01*
X160000000Y-90800000D01*
G75*
G02*
X159925000Y-90725000I0J75000D01*
G01*
G37*
G36*
G01*
X159925000Y-91225000D02*
X159925000Y-91075000D01*
G75*
G02*
X160000000Y-91000000I75000J0D01*
G01*
X161450000Y-91000000D01*
G75*
G02*
X161525000Y-91075000I0J-75000D01*
G01*
X161525000Y-91225000D01*
G75*
G02*
X161450000Y-91300000I-75000J0D01*
G01*
X160000000Y-91300000D01*
G75*
G02*
X159925000Y-91225000I0J75000D01*
G01*
G37*
G36*
G01*
X159925000Y-91725000D02*
X159925000Y-91575000D01*
G75*
G02*
X160000000Y-91500000I75000J0D01*
G01*
X161450000Y-91500000D01*
G75*
G02*
X161525000Y-91575000I0J-75000D01*
G01*
X161525000Y-91725000D01*
G75*
G02*
X161450000Y-91800000I-75000J0D01*
G01*
X160000000Y-91800000D01*
G75*
G02*
X159925000Y-91725000I0J75000D01*
G01*
G37*
G36*
G01*
X159925000Y-92225000D02*
X159925000Y-92075000D01*
G75*
G02*
X160000000Y-92000000I75000J0D01*
G01*
X161450000Y-92000000D01*
G75*
G02*
X161525000Y-92075000I0J-75000D01*
G01*
X161525000Y-92225000D01*
G75*
G02*
X161450000Y-92300000I-75000J0D01*
G01*
X160000000Y-92300000D01*
G75*
G02*
X159925000Y-92225000I0J75000D01*
G01*
G37*
G36*
G01*
X159925000Y-92725000D02*
X159925000Y-92575000D01*
G75*
G02*
X160000000Y-92500000I75000J0D01*
G01*
X161450000Y-92500000D01*
G75*
G02*
X161525000Y-92575000I0J-75000D01*
G01*
X161525000Y-92725000D01*
G75*
G02*
X161450000Y-92800000I-75000J0D01*
G01*
X160000000Y-92800000D01*
G75*
G02*
X159925000Y-92725000I0J75000D01*
G01*
G37*
G36*
G01*
X159925000Y-93225000D02*
X159925000Y-93075000D01*
G75*
G02*
X160000000Y-93000000I75000J0D01*
G01*
X161450000Y-93000000D01*
G75*
G02*
X161525000Y-93075000I0J-75000D01*
G01*
X161525000Y-93225000D01*
G75*
G02*
X161450000Y-93300000I-75000J0D01*
G01*
X160000000Y-93300000D01*
G75*
G02*
X159925000Y-93225000I0J75000D01*
G01*
G37*
G36*
G01*
X159925000Y-93725000D02*
X159925000Y-93575000D01*
G75*
G02*
X160000000Y-93500000I75000J0D01*
G01*
X161450000Y-93500000D01*
G75*
G02*
X161525000Y-93575000I0J-75000D01*
G01*
X161525000Y-93725000D01*
G75*
G02*
X161450000Y-93800000I-75000J0D01*
G01*
X160000000Y-93800000D01*
G75*
G02*
X159925000Y-93725000I0J75000D01*
G01*
G37*
G36*
G01*
X159925000Y-94225000D02*
X159925000Y-94075000D01*
G75*
G02*
X160000000Y-94000000I75000J0D01*
G01*
X161450000Y-94000000D01*
G75*
G02*
X161525000Y-94075000I0J-75000D01*
G01*
X161525000Y-94225000D01*
G75*
G02*
X161450000Y-94300000I-75000J0D01*
G01*
X160000000Y-94300000D01*
G75*
G02*
X159925000Y-94225000I0J75000D01*
G01*
G37*
G36*
G01*
X159925000Y-94725000D02*
X159925000Y-94575000D01*
G75*
G02*
X160000000Y-94500000I75000J0D01*
G01*
X161450000Y-94500000D01*
G75*
G02*
X161525000Y-94575000I0J-75000D01*
G01*
X161525000Y-94725000D01*
G75*
G02*
X161450000Y-94800000I-75000J0D01*
G01*
X160000000Y-94800000D01*
G75*
G02*
X159925000Y-94725000I0J75000D01*
G01*
G37*
G36*
G01*
X158900000Y-97050000D02*
X158900000Y-95600000D01*
G75*
G02*
X158975000Y-95525000I75000J0D01*
G01*
X159125000Y-95525000D01*
G75*
G02*
X159200000Y-95600000I0J-75000D01*
G01*
X159200000Y-97050000D01*
G75*
G02*
X159125000Y-97125000I-75000J0D01*
G01*
X158975000Y-97125000D01*
G75*
G02*
X158900000Y-97050000I0J75000D01*
G01*
G37*
G36*
G01*
X158400000Y-97050000D02*
X158400000Y-95600000D01*
G75*
G02*
X158475000Y-95525000I75000J0D01*
G01*
X158625000Y-95525000D01*
G75*
G02*
X158700000Y-95600000I0J-75000D01*
G01*
X158700000Y-97050000D01*
G75*
G02*
X158625000Y-97125000I-75000J0D01*
G01*
X158475000Y-97125000D01*
G75*
G02*
X158400000Y-97050000I0J75000D01*
G01*
G37*
G36*
G01*
X157900000Y-97050000D02*
X157900000Y-95600000D01*
G75*
G02*
X157975000Y-95525000I75000J0D01*
G01*
X158125000Y-95525000D01*
G75*
G02*
X158200000Y-95600000I0J-75000D01*
G01*
X158200000Y-97050000D01*
G75*
G02*
X158125000Y-97125000I-75000J0D01*
G01*
X157975000Y-97125000D01*
G75*
G02*
X157900000Y-97050000I0J75000D01*
G01*
G37*
G36*
G01*
X157400000Y-97050000D02*
X157400000Y-95600000D01*
G75*
G02*
X157475000Y-95525000I75000J0D01*
G01*
X157625000Y-95525000D01*
G75*
G02*
X157700000Y-95600000I0J-75000D01*
G01*
X157700000Y-97050000D01*
G75*
G02*
X157625000Y-97125000I-75000J0D01*
G01*
X157475000Y-97125000D01*
G75*
G02*
X157400000Y-97050000I0J75000D01*
G01*
G37*
G36*
G01*
X156900000Y-97050000D02*
X156900000Y-95600000D01*
G75*
G02*
X156975000Y-95525000I75000J0D01*
G01*
X157125000Y-95525000D01*
G75*
G02*
X157200000Y-95600000I0J-75000D01*
G01*
X157200000Y-97050000D01*
G75*
G02*
X157125000Y-97125000I-75000J0D01*
G01*
X156975000Y-97125000D01*
G75*
G02*
X156900000Y-97050000I0J75000D01*
G01*
G37*
G36*
G01*
X156400000Y-97050000D02*
X156400000Y-95600000D01*
G75*
G02*
X156475000Y-95525000I75000J0D01*
G01*
X156625000Y-95525000D01*
G75*
G02*
X156700000Y-95600000I0J-75000D01*
G01*
X156700000Y-97050000D01*
G75*
G02*
X156625000Y-97125000I-75000J0D01*
G01*
X156475000Y-97125000D01*
G75*
G02*
X156400000Y-97050000I0J75000D01*
G01*
G37*
G36*
G01*
X155900000Y-97050000D02*
X155900000Y-95600000D01*
G75*
G02*
X155975000Y-95525000I75000J0D01*
G01*
X156125000Y-95525000D01*
G75*
G02*
X156200000Y-95600000I0J-75000D01*
G01*
X156200000Y-97050000D01*
G75*
G02*
X156125000Y-97125000I-75000J0D01*
G01*
X155975000Y-97125000D01*
G75*
G02*
X155900000Y-97050000I0J75000D01*
G01*
G37*
G36*
G01*
X155400000Y-97050000D02*
X155400000Y-95600000D01*
G75*
G02*
X155475000Y-95525000I75000J0D01*
G01*
X155625000Y-95525000D01*
G75*
G02*
X155700000Y-95600000I0J-75000D01*
G01*
X155700000Y-97050000D01*
G75*
G02*
X155625000Y-97125000I-75000J0D01*
G01*
X155475000Y-97125000D01*
G75*
G02*
X155400000Y-97050000I0J75000D01*
G01*
G37*
G36*
G01*
X154900000Y-97050000D02*
X154900000Y-95600000D01*
G75*
G02*
X154975000Y-95525000I75000J0D01*
G01*
X155125000Y-95525000D01*
G75*
G02*
X155200000Y-95600000I0J-75000D01*
G01*
X155200000Y-97050000D01*
G75*
G02*
X155125000Y-97125000I-75000J0D01*
G01*
X154975000Y-97125000D01*
G75*
G02*
X154900000Y-97050000I0J75000D01*
G01*
G37*
G36*
G01*
X154400000Y-97050000D02*
X154400000Y-95600000D01*
G75*
G02*
X154475000Y-95525000I75000J0D01*
G01*
X154625000Y-95525000D01*
G75*
G02*
X154700000Y-95600000I0J-75000D01*
G01*
X154700000Y-97050000D01*
G75*
G02*
X154625000Y-97125000I-75000J0D01*
G01*
X154475000Y-97125000D01*
G75*
G02*
X154400000Y-97050000I0J75000D01*
G01*
G37*
G36*
G01*
X153900000Y-97050000D02*
X153900000Y-95600000D01*
G75*
G02*
X153975000Y-95525000I75000J0D01*
G01*
X154125000Y-95525000D01*
G75*
G02*
X154200000Y-95600000I0J-75000D01*
G01*
X154200000Y-97050000D01*
G75*
G02*
X154125000Y-97125000I-75000J0D01*
G01*
X153975000Y-97125000D01*
G75*
G02*
X153900000Y-97050000I0J75000D01*
G01*
G37*
G36*
G01*
X153400000Y-97050000D02*
X153400000Y-95600000D01*
G75*
G02*
X153475000Y-95525000I75000J0D01*
G01*
X153625000Y-95525000D01*
G75*
G02*
X153700000Y-95600000I0J-75000D01*
G01*
X153700000Y-97050000D01*
G75*
G02*
X153625000Y-97125000I-75000J0D01*
G01*
X153475000Y-97125000D01*
G75*
G02*
X153400000Y-97050000I0J75000D01*
G01*
G37*
G36*
G01*
X152900000Y-97050000D02*
X152900000Y-95600000D01*
G75*
G02*
X152975000Y-95525000I75000J0D01*
G01*
X153125000Y-95525000D01*
G75*
G02*
X153200000Y-95600000I0J-75000D01*
G01*
X153200000Y-97050000D01*
G75*
G02*
X153125000Y-97125000I-75000J0D01*
G01*
X152975000Y-97125000D01*
G75*
G02*
X152900000Y-97050000I0J75000D01*
G01*
G37*
G36*
G01*
X152400000Y-97050000D02*
X152400000Y-95600000D01*
G75*
G02*
X152475000Y-95525000I75000J0D01*
G01*
X152625000Y-95525000D01*
G75*
G02*
X152700000Y-95600000I0J-75000D01*
G01*
X152700000Y-97050000D01*
G75*
G02*
X152625000Y-97125000I-75000J0D01*
G01*
X152475000Y-97125000D01*
G75*
G02*
X152400000Y-97050000I0J75000D01*
G01*
G37*
G36*
G01*
X151900000Y-97050000D02*
X151900000Y-95600000D01*
G75*
G02*
X151975000Y-95525000I75000J0D01*
G01*
X152125000Y-95525000D01*
G75*
G02*
X152200000Y-95600000I0J-75000D01*
G01*
X152200000Y-97050000D01*
G75*
G02*
X152125000Y-97125000I-75000J0D01*
G01*
X151975000Y-97125000D01*
G75*
G02*
X151900000Y-97050000I0J75000D01*
G01*
G37*
G36*
G01*
X151400000Y-97050000D02*
X151400000Y-95600000D01*
G75*
G02*
X151475000Y-95525000I75000J0D01*
G01*
X151625000Y-95525000D01*
G75*
G02*
X151700000Y-95600000I0J-75000D01*
G01*
X151700000Y-97050000D01*
G75*
G02*
X151625000Y-97125000I-75000J0D01*
G01*
X151475000Y-97125000D01*
G75*
G02*
X151400000Y-97050000I0J75000D01*
G01*
G37*
G36*
G01*
X150900000Y-97050000D02*
X150900000Y-95600000D01*
G75*
G02*
X150975000Y-95525000I75000J0D01*
G01*
X151125000Y-95525000D01*
G75*
G02*
X151200000Y-95600000I0J-75000D01*
G01*
X151200000Y-97050000D01*
G75*
G02*
X151125000Y-97125000I-75000J0D01*
G01*
X150975000Y-97125000D01*
G75*
G02*
X150900000Y-97050000I0J75000D01*
G01*
G37*
G36*
G01*
X150400000Y-97050000D02*
X150400000Y-95600000D01*
G75*
G02*
X150475000Y-95525000I75000J0D01*
G01*
X150625000Y-95525000D01*
G75*
G02*
X150700000Y-95600000I0J-75000D01*
G01*
X150700000Y-97050000D01*
G75*
G02*
X150625000Y-97125000I-75000J0D01*
G01*
X150475000Y-97125000D01*
G75*
G02*
X150400000Y-97050000I0J75000D01*
G01*
G37*
G36*
G01*
X149900000Y-97050000D02*
X149900000Y-95600000D01*
G75*
G02*
X149975000Y-95525000I75000J0D01*
G01*
X150125000Y-95525000D01*
G75*
G02*
X150200000Y-95600000I0J-75000D01*
G01*
X150200000Y-97050000D01*
G75*
G02*
X150125000Y-97125000I-75000J0D01*
G01*
X149975000Y-97125000D01*
G75*
G02*
X149900000Y-97050000I0J75000D01*
G01*
G37*
G36*
G01*
X149400000Y-97050000D02*
X149400000Y-95600000D01*
G75*
G02*
X149475000Y-95525000I75000J0D01*
G01*
X149625000Y-95525000D01*
G75*
G02*
X149700000Y-95600000I0J-75000D01*
G01*
X149700000Y-97050000D01*
G75*
G02*
X149625000Y-97125000I-75000J0D01*
G01*
X149475000Y-97125000D01*
G75*
G02*
X149400000Y-97050000I0J75000D01*
G01*
G37*
G36*
G01*
X148900000Y-97050000D02*
X148900000Y-95600000D01*
G75*
G02*
X148975000Y-95525000I75000J0D01*
G01*
X149125000Y-95525000D01*
G75*
G02*
X149200000Y-95600000I0J-75000D01*
G01*
X149200000Y-97050000D01*
G75*
G02*
X149125000Y-97125000I-75000J0D01*
G01*
X148975000Y-97125000D01*
G75*
G02*
X148900000Y-97050000I0J75000D01*
G01*
G37*
G36*
G01*
X148400000Y-97050000D02*
X148400000Y-95600000D01*
G75*
G02*
X148475000Y-95525000I75000J0D01*
G01*
X148625000Y-95525000D01*
G75*
G02*
X148700000Y-95600000I0J-75000D01*
G01*
X148700000Y-97050000D01*
G75*
G02*
X148625000Y-97125000I-75000J0D01*
G01*
X148475000Y-97125000D01*
G75*
G02*
X148400000Y-97050000I0J75000D01*
G01*
G37*
G36*
G01*
X147900000Y-97050000D02*
X147900000Y-95600000D01*
G75*
G02*
X147975000Y-95525000I75000J0D01*
G01*
X148125000Y-95525000D01*
G75*
G02*
X148200000Y-95600000I0J-75000D01*
G01*
X148200000Y-97050000D01*
G75*
G02*
X148125000Y-97125000I-75000J0D01*
G01*
X147975000Y-97125000D01*
G75*
G02*
X147900000Y-97050000I0J75000D01*
G01*
G37*
G36*
G01*
X147400000Y-97050000D02*
X147400000Y-95600000D01*
G75*
G02*
X147475000Y-95525000I75000J0D01*
G01*
X147625000Y-95525000D01*
G75*
G02*
X147700000Y-95600000I0J-75000D01*
G01*
X147700000Y-97050000D01*
G75*
G02*
X147625000Y-97125000I-75000J0D01*
G01*
X147475000Y-97125000D01*
G75*
G02*
X147400000Y-97050000I0J75000D01*
G01*
G37*
G36*
G01*
X146900000Y-97050000D02*
X146900000Y-95600000D01*
G75*
G02*
X146975000Y-95525000I75000J0D01*
G01*
X147125000Y-95525000D01*
G75*
G02*
X147200000Y-95600000I0J-75000D01*
G01*
X147200000Y-97050000D01*
G75*
G02*
X147125000Y-97125000I-75000J0D01*
G01*
X146975000Y-97125000D01*
G75*
G02*
X146900000Y-97050000I0J75000D01*
G01*
G37*
G36*
G01*
X144575000Y-94725000D02*
X144575000Y-94575000D01*
G75*
G02*
X144650000Y-94500000I75000J0D01*
G01*
X146100000Y-94500000D01*
G75*
G02*
X146175000Y-94575000I0J-75000D01*
G01*
X146175000Y-94725000D01*
G75*
G02*
X146100000Y-94800000I-75000J0D01*
G01*
X144650000Y-94800000D01*
G75*
G02*
X144575000Y-94725000I0J75000D01*
G01*
G37*
G36*
G01*
X144575000Y-94225000D02*
X144575000Y-94075000D01*
G75*
G02*
X144650000Y-94000000I75000J0D01*
G01*
X146100000Y-94000000D01*
G75*
G02*
X146175000Y-94075000I0J-75000D01*
G01*
X146175000Y-94225000D01*
G75*
G02*
X146100000Y-94300000I-75000J0D01*
G01*
X144650000Y-94300000D01*
G75*
G02*
X144575000Y-94225000I0J75000D01*
G01*
G37*
G36*
G01*
X144575000Y-93725000D02*
X144575000Y-93575000D01*
G75*
G02*
X144650000Y-93500000I75000J0D01*
G01*
X146100000Y-93500000D01*
G75*
G02*
X146175000Y-93575000I0J-75000D01*
G01*
X146175000Y-93725000D01*
G75*
G02*
X146100000Y-93800000I-75000J0D01*
G01*
X144650000Y-93800000D01*
G75*
G02*
X144575000Y-93725000I0J75000D01*
G01*
G37*
G36*
G01*
X144575000Y-93225000D02*
X144575000Y-93075000D01*
G75*
G02*
X144650000Y-93000000I75000J0D01*
G01*
X146100000Y-93000000D01*
G75*
G02*
X146175000Y-93075000I0J-75000D01*
G01*
X146175000Y-93225000D01*
G75*
G02*
X146100000Y-93300000I-75000J0D01*
G01*
X144650000Y-93300000D01*
G75*
G02*
X144575000Y-93225000I0J75000D01*
G01*
G37*
G36*
G01*
X144575000Y-92725000D02*
X144575000Y-92575000D01*
G75*
G02*
X144650000Y-92500000I75000J0D01*
G01*
X146100000Y-92500000D01*
G75*
G02*
X146175000Y-92575000I0J-75000D01*
G01*
X146175000Y-92725000D01*
G75*
G02*
X146100000Y-92800000I-75000J0D01*
G01*
X144650000Y-92800000D01*
G75*
G02*
X144575000Y-92725000I0J75000D01*
G01*
G37*
G36*
G01*
X144575000Y-92225000D02*
X144575000Y-92075000D01*
G75*
G02*
X144650000Y-92000000I75000J0D01*
G01*
X146100000Y-92000000D01*
G75*
G02*
X146175000Y-92075000I0J-75000D01*
G01*
X146175000Y-92225000D01*
G75*
G02*
X146100000Y-92300000I-75000J0D01*
G01*
X144650000Y-92300000D01*
G75*
G02*
X144575000Y-92225000I0J75000D01*
G01*
G37*
G36*
G01*
X144575000Y-91725000D02*
X144575000Y-91575000D01*
G75*
G02*
X144650000Y-91500000I75000J0D01*
G01*
X146100000Y-91500000D01*
G75*
G02*
X146175000Y-91575000I0J-75000D01*
G01*
X146175000Y-91725000D01*
G75*
G02*
X146100000Y-91800000I-75000J0D01*
G01*
X144650000Y-91800000D01*
G75*
G02*
X144575000Y-91725000I0J75000D01*
G01*
G37*
G36*
G01*
X144575000Y-91225000D02*
X144575000Y-91075000D01*
G75*
G02*
X144650000Y-91000000I75000J0D01*
G01*
X146100000Y-91000000D01*
G75*
G02*
X146175000Y-91075000I0J-75000D01*
G01*
X146175000Y-91225000D01*
G75*
G02*
X146100000Y-91300000I-75000J0D01*
G01*
X144650000Y-91300000D01*
G75*
G02*
X144575000Y-91225000I0J75000D01*
G01*
G37*
G36*
G01*
X144575000Y-90725000D02*
X144575000Y-90575000D01*
G75*
G02*
X144650000Y-90500000I75000J0D01*
G01*
X146100000Y-90500000D01*
G75*
G02*
X146175000Y-90575000I0J-75000D01*
G01*
X146175000Y-90725000D01*
G75*
G02*
X146100000Y-90800000I-75000J0D01*
G01*
X144650000Y-90800000D01*
G75*
G02*
X144575000Y-90725000I0J75000D01*
G01*
G37*
G36*
G01*
X144575000Y-90225000D02*
X144575000Y-90075000D01*
G75*
G02*
X144650000Y-90000000I75000J0D01*
G01*
X146100000Y-90000000D01*
G75*
G02*
X146175000Y-90075000I0J-75000D01*
G01*
X146175000Y-90225000D01*
G75*
G02*
X146100000Y-90300000I-75000J0D01*
G01*
X144650000Y-90300000D01*
G75*
G02*
X144575000Y-90225000I0J75000D01*
G01*
G37*
G36*
G01*
X144575000Y-89725000D02*
X144575000Y-89575000D01*
G75*
G02*
X144650000Y-89500000I75000J0D01*
G01*
X146100000Y-89500000D01*
G75*
G02*
X146175000Y-89575000I0J-75000D01*
G01*
X146175000Y-89725000D01*
G75*
G02*
X146100000Y-89800000I-75000J0D01*
G01*
X144650000Y-89800000D01*
G75*
G02*
X144575000Y-89725000I0J75000D01*
G01*
G37*
G36*
G01*
X144575000Y-89225000D02*
X144575000Y-89075000D01*
G75*
G02*
X144650000Y-89000000I75000J0D01*
G01*
X146100000Y-89000000D01*
G75*
G02*
X146175000Y-89075000I0J-75000D01*
G01*
X146175000Y-89225000D01*
G75*
G02*
X146100000Y-89300000I-75000J0D01*
G01*
X144650000Y-89300000D01*
G75*
G02*
X144575000Y-89225000I0J75000D01*
G01*
G37*
G36*
G01*
X144575000Y-88725000D02*
X144575000Y-88575000D01*
G75*
G02*
X144650000Y-88500000I75000J0D01*
G01*
X146100000Y-88500000D01*
G75*
G02*
X146175000Y-88575000I0J-75000D01*
G01*
X146175000Y-88725000D01*
G75*
G02*
X146100000Y-88800000I-75000J0D01*
G01*
X144650000Y-88800000D01*
G75*
G02*
X144575000Y-88725000I0J75000D01*
G01*
G37*
G36*
G01*
X144575000Y-88225000D02*
X144575000Y-88075000D01*
G75*
G02*
X144650000Y-88000000I75000J0D01*
G01*
X146100000Y-88000000D01*
G75*
G02*
X146175000Y-88075000I0J-75000D01*
G01*
X146175000Y-88225000D01*
G75*
G02*
X146100000Y-88300000I-75000J0D01*
G01*
X144650000Y-88300000D01*
G75*
G02*
X144575000Y-88225000I0J75000D01*
G01*
G37*
G36*
G01*
X144575000Y-87725000D02*
X144575000Y-87575000D01*
G75*
G02*
X144650000Y-87500000I75000J0D01*
G01*
X146100000Y-87500000D01*
G75*
G02*
X146175000Y-87575000I0J-75000D01*
G01*
X146175000Y-87725000D01*
G75*
G02*
X146100000Y-87800000I-75000J0D01*
G01*
X144650000Y-87800000D01*
G75*
G02*
X144575000Y-87725000I0J75000D01*
G01*
G37*
G36*
G01*
X144575000Y-87225000D02*
X144575000Y-87075000D01*
G75*
G02*
X144650000Y-87000000I75000J0D01*
G01*
X146100000Y-87000000D01*
G75*
G02*
X146175000Y-87075000I0J-75000D01*
G01*
X146175000Y-87225000D01*
G75*
G02*
X146100000Y-87300000I-75000J0D01*
G01*
X144650000Y-87300000D01*
G75*
G02*
X144575000Y-87225000I0J75000D01*
G01*
G37*
G36*
G01*
X144575000Y-86725000D02*
X144575000Y-86575000D01*
G75*
G02*
X144650000Y-86500000I75000J0D01*
G01*
X146100000Y-86500000D01*
G75*
G02*
X146175000Y-86575000I0J-75000D01*
G01*
X146175000Y-86725000D01*
G75*
G02*
X146100000Y-86800000I-75000J0D01*
G01*
X144650000Y-86800000D01*
G75*
G02*
X144575000Y-86725000I0J75000D01*
G01*
G37*
G36*
G01*
X144575000Y-86225000D02*
X144575000Y-86075000D01*
G75*
G02*
X144650000Y-86000000I75000J0D01*
G01*
X146100000Y-86000000D01*
G75*
G02*
X146175000Y-86075000I0J-75000D01*
G01*
X146175000Y-86225000D01*
G75*
G02*
X146100000Y-86300000I-75000J0D01*
G01*
X144650000Y-86300000D01*
G75*
G02*
X144575000Y-86225000I0J75000D01*
G01*
G37*
G36*
G01*
X144575000Y-85725000D02*
X144575000Y-85575000D01*
G75*
G02*
X144650000Y-85500000I75000J0D01*
G01*
X146100000Y-85500000D01*
G75*
G02*
X146175000Y-85575000I0J-75000D01*
G01*
X146175000Y-85725000D01*
G75*
G02*
X146100000Y-85800000I-75000J0D01*
G01*
X144650000Y-85800000D01*
G75*
G02*
X144575000Y-85725000I0J75000D01*
G01*
G37*
G36*
G01*
X144575000Y-85225000D02*
X144575000Y-85075000D01*
G75*
G02*
X144650000Y-85000000I75000J0D01*
G01*
X146100000Y-85000000D01*
G75*
G02*
X146175000Y-85075000I0J-75000D01*
G01*
X146175000Y-85225000D01*
G75*
G02*
X146100000Y-85300000I-75000J0D01*
G01*
X144650000Y-85300000D01*
G75*
G02*
X144575000Y-85225000I0J75000D01*
G01*
G37*
G36*
G01*
X144575000Y-84725000D02*
X144575000Y-84575000D01*
G75*
G02*
X144650000Y-84500000I75000J0D01*
G01*
X146100000Y-84500000D01*
G75*
G02*
X146175000Y-84575000I0J-75000D01*
G01*
X146175000Y-84725000D01*
G75*
G02*
X146100000Y-84800000I-75000J0D01*
G01*
X144650000Y-84800000D01*
G75*
G02*
X144575000Y-84725000I0J75000D01*
G01*
G37*
G36*
G01*
X144575000Y-84225000D02*
X144575000Y-84075000D01*
G75*
G02*
X144650000Y-84000000I75000J0D01*
G01*
X146100000Y-84000000D01*
G75*
G02*
X146175000Y-84075000I0J-75000D01*
G01*
X146175000Y-84225000D01*
G75*
G02*
X146100000Y-84300000I-75000J0D01*
G01*
X144650000Y-84300000D01*
G75*
G02*
X144575000Y-84225000I0J75000D01*
G01*
G37*
G36*
G01*
X144575000Y-83725000D02*
X144575000Y-83575000D01*
G75*
G02*
X144650000Y-83500000I75000J0D01*
G01*
X146100000Y-83500000D01*
G75*
G02*
X146175000Y-83575000I0J-75000D01*
G01*
X146175000Y-83725000D01*
G75*
G02*
X146100000Y-83800000I-75000J0D01*
G01*
X144650000Y-83800000D01*
G75*
G02*
X144575000Y-83725000I0J75000D01*
G01*
G37*
G36*
G01*
X144575000Y-83225000D02*
X144575000Y-83075000D01*
G75*
G02*
X144650000Y-83000000I75000J0D01*
G01*
X146100000Y-83000000D01*
G75*
G02*
X146175000Y-83075000I0J-75000D01*
G01*
X146175000Y-83225000D01*
G75*
G02*
X146100000Y-83300000I-75000J0D01*
G01*
X144650000Y-83300000D01*
G75*
G02*
X144575000Y-83225000I0J75000D01*
G01*
G37*
G36*
G01*
X144575000Y-82725000D02*
X144575000Y-82575000D01*
G75*
G02*
X144650000Y-82500000I75000J0D01*
G01*
X146100000Y-82500000D01*
G75*
G02*
X146175000Y-82575000I0J-75000D01*
G01*
X146175000Y-82725000D01*
G75*
G02*
X146100000Y-82800000I-75000J0D01*
G01*
X144650000Y-82800000D01*
G75*
G02*
X144575000Y-82725000I0J75000D01*
G01*
G37*
D19*
X164450000Y-127750000D03*
X164450000Y-102150000D03*
M02*
