G04 #@! TF.GenerationSoftware,KiCad,Pcbnew,5.1.9-73d0e3b20d~88~ubuntu20.04.1*
G04 #@! TF.CreationDate,2021-05-05T00:04:50+02:00*
G04 #@! TF.ProjectId,DAC ADC PWM IO,44414320-4144-4432-9050-574d20494f2e,rev?*
G04 #@! TF.SameCoordinates,Original*
G04 #@! TF.FileFunction,Legend,Bot*
G04 #@! TF.FilePolarity,Positive*
%FSLAX46Y46*%
G04 Gerber Fmt 4.6, Leading zero omitted, Abs format (unit mm)*
G04 Created by KiCad (PCBNEW 5.1.9-73d0e3b20d~88~ubuntu20.04.1) date 2021-05-05 00:04:50*
%MOMM*%
%LPD*%
G01*
G04 APERTURE LIST*
%ADD10O,1.700000X1.700000*%
%ADD11R,1.700000X1.700000*%
%ADD12C,4.700000*%
%ADD13C,2.600000*%
%ADD14R,2.600000X2.600000*%
%ADD15C,1.600000*%
%ADD16R,1.600000X1.500000*%
%ADD17C,3.000000*%
G04 APERTURE END LIST*
%LPC*%
D10*
X140650000Y-104200000D03*
X138110000Y-104200000D03*
X135570000Y-104200000D03*
X133030000Y-104200000D03*
X130490000Y-104200000D03*
D11*
X127950000Y-104200000D03*
D10*
X139710000Y-71600000D03*
D11*
X142250000Y-71600000D03*
D10*
X169300000Y-71880000D03*
X169300000Y-69340000D03*
X169300000Y-66800000D03*
X169300000Y-64260000D03*
X169300000Y-61720000D03*
X169300000Y-59180000D03*
X169300000Y-56640000D03*
D11*
X169300000Y-54100000D03*
D10*
X164100000Y-71880000D03*
X164100000Y-69340000D03*
X164100000Y-66800000D03*
X164100000Y-64260000D03*
X164100000Y-61720000D03*
X164100000Y-59180000D03*
X164100000Y-56640000D03*
D11*
X164100000Y-54100000D03*
D10*
X174450000Y-71850000D03*
X174450000Y-69310000D03*
X174450000Y-66770000D03*
X174450000Y-64230000D03*
X174450000Y-61690000D03*
D11*
X174450000Y-59150000D03*
D12*
X129100000Y-82550000D03*
X172050000Y-77400000D03*
X130500000Y-123350000D03*
X173750000Y-126900000D03*
D13*
X112700000Y-56900000D03*
X117700000Y-56900000D03*
X122700000Y-56900000D03*
X127700000Y-56900000D03*
X132700000Y-56900000D03*
X137700000Y-56900000D03*
X142700000Y-56900000D03*
X147700000Y-56900000D03*
X152700000Y-56900000D03*
D14*
X157700000Y-56900000D03*
D13*
X102100000Y-129400000D03*
X102100000Y-124400000D03*
X102100000Y-119400000D03*
X102100000Y-114400000D03*
X102100000Y-109400000D03*
X102100000Y-104400000D03*
X102100000Y-99400000D03*
X102100000Y-94400000D03*
X102100000Y-89400000D03*
X102100000Y-84400000D03*
X102100000Y-79400000D03*
X102100000Y-74400000D03*
X102100000Y-69400000D03*
X102100000Y-64400000D03*
X102100000Y-59400000D03*
D14*
X102100000Y-54400000D03*
D13*
X190000000Y-82300000D03*
X190000000Y-87300000D03*
X190000000Y-92300000D03*
X190000000Y-97300000D03*
X190000000Y-102300000D03*
X190000000Y-107300000D03*
X190000000Y-112300000D03*
X190000000Y-117300000D03*
X190000000Y-122300000D03*
D14*
X190000000Y-127300000D03*
D13*
X192400000Y-145000000D03*
X187400000Y-145000000D03*
X182400000Y-145000000D03*
X177400000Y-145000000D03*
X172400000Y-145000000D03*
X167400000Y-145000000D03*
X162400000Y-145000000D03*
X157400000Y-145000000D03*
X152400000Y-145000000D03*
X147400000Y-145000000D03*
X142400000Y-145000000D03*
X137400000Y-145000000D03*
X132400000Y-145000000D03*
X127400000Y-145000000D03*
X122400000Y-145000000D03*
D14*
X117400000Y-145000000D03*
D15*
X182950000Y-65150000D03*
X185450000Y-65150000D03*
X187450000Y-65150000D03*
D16*
X189950000Y-65150000D03*
D17*
X179880000Y-62440000D03*
X193020000Y-62440000D03*
M02*
