M48
; DRILL file {KiCad 5.1.9-73d0e3b20d~88~ubuntu20.04.1} date Wed May  5 00:04:58 2021
; FORMAT={-:-/ absolute / metric / decimal}
; #@! TF.CreationDate,2021-05-05T00:04:58+02:00
; #@! TF.GenerationSoftware,Kicad,Pcbnew,5.1.9-73d0e3b20d~88~ubuntu20.04.1
; #@! TF.FileFunction,Plated,1,4,PTH
FMAT,2
METRIC
T1C0.300
T2C0.950
T3C1.000
T4C1.300
T5C2.300
T6C2.700
%
G90
G05
T1
X97.05Y-140.05
X97.15Y-136.4
X97.5Y-52.5
X97.5Y-55.0
X97.5Y-57.5
X97.5Y-60.0
X97.5Y-62.5
X97.5Y-65.0
X97.5Y-67.5
X97.5Y-70.0
X97.5Y-72.5
X97.5Y-75.0
X97.5Y-77.5
X97.5Y-80.0
X97.5Y-82.5
X97.5Y-85.0
X97.5Y-87.5
X97.5Y-90.0
X97.5Y-92.5
X97.5Y-95.0
X97.5Y-97.5
X97.5Y-100.0
X97.5Y-102.5
X97.5Y-105.0
X97.5Y-107.5
X97.5Y-110.0
X97.5Y-112.5
X97.5Y-115.0
X97.5Y-117.5
X97.5Y-120.0
X97.5Y-122.5
X97.5Y-125.0
X97.5Y-127.5
X97.5Y-130.0
X97.5Y-132.5
X97.5Y-135.0
X97.5Y-137.5
X98.15Y-133.6
X98.65Y-150.05
X98.95Y-143.05
X99.25Y-139.2
X100.0Y-52.5
X100.0Y-57.5
X100.0Y-62.5
X100.0Y-67.5
X100.0Y-72.5
X100.0Y-77.5
X100.0Y-82.5
X100.0Y-87.5
X100.0Y-92.5
X100.0Y-97.5
X100.0Y-102.5
X100.0Y-107.5
X100.0Y-112.5
X100.0Y-117.5
X100.0Y-122.5
X100.0Y-127.5
X100.3Y-133.6
X101.18Y-138.98
X101.95Y-150.05
X102.45Y-143.05
X102.8Y-138.25
X103.7Y-143.25
X103.72Y-131.73
X103.72Y-138.98
X104.99Y-134.61
X105.0Y-55.0
X105.0Y-60.0
X105.0Y-67.5
X105.0Y-120.0
X105.0Y-125.0
X105.0Y-127.5
X105.0Y-132.5
X105.0Y-139.35
X105.45Y-150.05
X106.25Y-133.35
X107.5Y-97.5
X107.5Y-105.0
X107.5Y-112.5
X107.5Y-117.5
X107.5Y-120.0
X107.5Y-125.0
X107.5Y-132.5
X107.5Y-142.5
X107.9Y-144.45
X108.0Y-150.2
X108.8Y-137.45
X108.8Y-139.35
X109.4Y-142.4
X109.625Y-61.675
X109.7Y-60.55
X110.0Y-52.5
X110.0Y-62.5
X110.0Y-77.5
X110.0Y-85.0
X110.0Y-90.0
X110.0Y-92.5
X110.0Y-97.5
X110.0Y-105.0
X110.0Y-112.5
X110.0Y-117.5
X110.0Y-120.0
X110.0Y-125.0
X110.0Y-143.9
X110.0Y-150.15
X110.25Y-135.95
X110.35Y-69.3
X110.35Y-76.1
X110.6Y-70.5
X110.6Y-147.8
X111.0Y-149.6
X111.45Y-141.95
X111.5Y-66.85
X112.5Y-52.5
X112.5Y-82.5
X112.5Y-85.0
X112.5Y-90.0
X112.5Y-92.5
X112.5Y-97.5
X112.5Y-105.0
X112.5Y-112.5
X112.5Y-117.5
X112.5Y-120.0
X112.5Y-125.0
X112.5Y-127.5
X112.5Y-145.0
X112.6Y-140.7
X114.575Y-134.925
X114.6Y-133.35
X115.0Y-52.5
X115.0Y-55.0
X115.0Y-65.0
X115.0Y-67.5
X115.0Y-72.5
X115.0Y-75.0
X115.0Y-147.5
X115.0Y-150.0
X116.2Y-66.95
X116.2Y-70.5
X116.2Y-76.1
X116.95Y-77.7
X117.5Y-52.5
X117.5Y-147.5
X117.5Y-150.0
X118.1Y-66.8
X118.25Y-71.8
X119.15Y-66.85
X119.45Y-74.25
X119.75Y-61.9
X120.0Y-52.5
X120.0Y-55.0
X120.0Y-67.5
X120.0Y-147.5
X120.0Y-150.0
X120.75Y-71.65
X120.75Y-76.8
X120.85Y-84.4
X121.2Y-136.75
X122.5Y-52.5
X122.5Y-67.5
X122.5Y-87.5
X122.5Y-90.0
X122.5Y-95.0
X122.5Y-97.5
X122.5Y-102.5
X122.5Y-105.0
X122.5Y-110.0
X122.5Y-115.0
X122.5Y-117.5
X122.5Y-122.5
X122.5Y-125.0
X122.5Y-130.0
X122.5Y-147.5
X122.5Y-150.0
X124.05Y-77.4
X124.25Y-90.05
X125.0Y-52.5
X125.0Y-55.0
X125.0Y-57.5
X125.0Y-72.5
X125.0Y-75.0
X125.0Y-82.5
X125.0Y-88.0
X125.0Y-95.0
X125.0Y-97.5
X125.0Y-102.5
X125.0Y-105.0
X125.0Y-110.0
X125.0Y-115.0
X125.0Y-117.5
X125.0Y-122.5
X125.0Y-125.0
X125.0Y-130.0
X125.0Y-147.5
X125.0Y-150.0
X126.2Y-91.15
X126.2Y-93.5
X126.2Y-98.5
X126.25Y-113.35
X126.3Y-106.5
X126.3Y-120.15
X126.35Y-127.0
X127.5Y-52.5
X127.5Y-72.5
X127.5Y-95.0
X127.5Y-97.5
X127.5Y-100.0
X127.5Y-102.5
X127.5Y-115.0
X127.5Y-117.5
X127.5Y-122.5
X127.5Y-125.0
X127.5Y-130.0
X127.5Y-142.5
X127.5Y-147.5
X127.5Y-150.0
X127.8Y-77.2
X127.95Y-107.55
X127.95Y-112.55
X128.2Y-140.45
X128.55Y-67.55
X128.8Y-114.2
X129.225Y-77.275
X129.5Y-132.4
X130.0Y-52.5
X130.0Y-55.0
X130.0Y-72.5
X130.0Y-97.5
X130.0Y-100.0
X130.0Y-102.5
X130.0Y-117.5
X130.0Y-130.0
X130.0Y-147.5
X130.0Y-150.0
X130.49Y-107.51
X130.49Y-112.51
X131.0Y-129.5
X131.475Y-114.025
X132.0Y-77.1
X132.5Y-52.5
X132.5Y-72.5
X132.5Y-84.1
X132.5Y-95.0
X132.5Y-97.5
X132.5Y-100.0
X132.5Y-102.5
X132.5Y-117.5
X132.5Y-142.5
X132.5Y-147.5
X132.5Y-150.0
X132.95Y-66.95
X133.03Y-107.47
X134.75Y-140.35
X134.95Y-132.4
X135.0Y-52.5
X135.0Y-52.5
X135.0Y-55.0
X135.0Y-67.5
X135.0Y-70.0
X135.0Y-72.5
X135.0Y-75.0
X135.0Y-77.5
X135.0Y-95.0
X135.0Y-97.5
X135.0Y-100.0
X135.0Y-102.5
X135.0Y-110.0
X135.0Y-117.5
X135.0Y-122.5
X135.0Y-125.0
X135.0Y-147.5
X135.0Y-150.0
X135.57Y-107.43
X136.5Y-68.3
X136.5Y-74.15
X136.6Y-128.7
X137.33Y-79.22
X137.5Y-52.5
X137.5Y-95.0
X137.5Y-97.5
X137.5Y-100.0
X137.5Y-102.5
X137.5Y-110.0
X137.5Y-117.5
X137.5Y-122.5
X137.5Y-125.0
X137.5Y-142.5
X137.5Y-147.5
X137.5Y-150.0
X138.11Y-107.39
X138.633Y-78.259
X139.0Y-87.1
X139.3Y-74.45
X139.8Y-140.5
X139.85Y-86.65
X140.0Y-52.5
X140.0Y-55.0
X140.0Y-100.0
X140.0Y-102.5
X140.0Y-117.5
X140.0Y-122.5
X140.0Y-125.0
X140.0Y-147.5
X140.0Y-150.0
X140.25Y-64.2
X140.7Y-132.6
X140.75Y-91.95
X140.8Y-81.6
X140.85Y-80.65
X140.9Y-82.55
X141.15Y-107.35
X141.3Y-83.45
X141.35Y-73.9
X141.7Y-85.25
X141.75Y-84.25
X141.8Y-67.15
X141.8Y-68.9
X142.2Y-128.0
X142.45Y-114.05
X142.5Y-52.5
X142.5Y-60.0
X142.5Y-80.0
X142.5Y-117.5
X142.5Y-122.5
X142.5Y-125.0
X142.5Y-142.5
X142.5Y-147.5
X142.5Y-150.0
X142.9Y-108.1
X143.0Y-64.2
X143.05Y-106.5
X143.1Y-109.4
X143.15Y-115.35
X143.25Y-113.35
X143.3Y-110.7
X143.35Y-96.25
X143.4Y-112.1
X143.575Y-92.225
X143.7Y-90.05
X143.75Y-91.15
X143.925Y-76.475
X144.3Y-95.95
X144.7Y-71.5
X145.0Y-52.5
X145.0Y-55.0
X145.0Y-120.0
X145.0Y-122.5
X145.0Y-125.0
X145.0Y-147.5
X145.0Y-150.0
X145.05Y-140.6
X145.8Y-80.0
X145.8Y-113.35
X146.3Y-132.7
X146.5Y-130.2
X146.85Y-94.55
X146.9Y-66.9
X146.9Y-68.0
X147.0Y-69.7
X147.05Y-97.9
X147.3Y-71.15
X147.3Y-91.85
X147.35Y-91.0
X147.5Y-52.5
X147.5Y-60.0
X147.5Y-87.5
X147.5Y-142.5
X147.5Y-147.5
X147.5Y-150.0
X147.7Y-106.5
X147.7Y-114.05
X147.7Y-115.35
X147.75Y-108.1
X147.75Y-109.4
X147.75Y-110.7
X147.75Y-112.1
X147.8Y-127.2
X148.05Y-93.05
X148.075Y-100.625
X148.25Y-103.8
X148.3Y-91.85
X148.4Y-130.2
X148.6Y-89.9
X148.7Y-94.6
X149.05Y-82.55
X149.05Y-131.55
X149.3Y-78.1
X149.65Y-93.85
X149.8Y-74.0
X149.8Y-130.85
X149.95Y-85.15
X150.0Y-52.5
X150.0Y-55.0
X150.0Y-90.0
X150.0Y-147.5
X150.0Y-150.0
X150.2Y-78.7
X150.55Y-93.3
X150.6Y-140.6
X150.85Y-79.4
X151.1Y-130.55
X151.4Y-93.9
X151.55Y-129.5
X151.75Y-132.1
X151.8Y-67.9
X152.2Y-70.85
X152.2Y-128.7
X152.3Y-93.85
X152.5Y-52.5
X152.5Y-85.0
X152.5Y-87.5
X152.5Y-142.5
X152.5Y-147.5
X152.5Y-150.0
X152.7Y-128.0
X153.2Y-127.2
X153.9Y-94.25
X154.3Y-129.65
X154.416Y-82.399
X154.5Y-77.45
X154.8Y-103.0
X155.0Y-52.5
X155.0Y-55.0
X155.0Y-60.0
X155.0Y-85.0
X155.0Y-87.5
X155.0Y-92.5
X155.0Y-147.5
X155.0Y-150.0
X155.05Y-128.9
X155.05Y-131.7
X155.381Y-89.15
X155.7Y-102.7
X155.8Y-101.7
X155.9Y-128.25
X155.9Y-131.0
X156.25Y-140.75
X156.3Y-100.95
X156.55Y-83.0
X156.7Y-98.25
X157.3Y-66.55
X157.475Y-64.925
X157.5Y-52.5
X157.5Y-60.0
X157.5Y-85.0
X157.5Y-87.5
X157.5Y-92.5
X157.5Y-132.5
X157.5Y-142.5
X157.5Y-147.5
X157.5Y-150.0
X157.55Y-98.2
X157.6Y-83.2
X158.05Y-79.05
X158.2Y-78.0
X158.35Y-98.15
X158.872Y-84.872
X158.921Y-82.893
X159.0Y-129.65
X159.046Y-87.16
X159.075Y-100.675
X160.0Y-52.5
X160.0Y-55.0
X160.0Y-57.5
X160.0Y-60.0
X160.0Y-105.0
X160.0Y-125.0
X160.0Y-140.0
X160.0Y-147.5
X160.0Y-150.0
X160.2Y-128.35
X160.2Y-130.15
X160.65Y-102.15
X160.65Y-126.45
X160.9Y-72.3
X160.9Y-73.45
X162.0Y-140.75
X162.45Y-132.45
X162.5Y-52.5
X162.5Y-97.5
X162.5Y-142.5
X162.5Y-147.5
X162.5Y-150.0
X162.604Y-87.296
X163.85Y-79.3
X163.9Y-87.4
X164.6Y-131.7
X164.775Y-94.625
X165.0Y-97.5
X165.0Y-147.5
X165.0Y-150.0
X165.25Y-83.45
X165.3Y-82.15
X166.25Y-131.85
X166.75Y-79.15
X166.9Y-85.95
X167.4Y-140.6
X167.5Y-52.5
X167.5Y-87.5
X167.5Y-95.0
X167.5Y-97.5
X167.5Y-142.5
X167.5Y-147.5
X167.5Y-150.0
X167.6Y-86.65
X168.85Y-129.0
X168.85Y-131.85
X169.6Y-87.55
X170.0Y-80.0
X170.0Y-82.5
X170.0Y-95.0
X170.0Y-97.5
X170.0Y-100.0
X170.0Y-102.5
X170.0Y-105.0
X170.0Y-125.0
X170.0Y-147.5
X170.0Y-150.0
X170.2Y-131.0
X170.8Y-93.65
X171.2Y-81.45
X171.5Y-93.025
X172.2Y-92.4
X172.5Y-52.5
X172.5Y-55.0
X172.5Y-57.5
X172.5Y-60.0
X172.5Y-82.5
X172.5Y-140.0
X172.5Y-142.5
X172.5Y-147.5
X172.5Y-150.0
X172.85Y-91.75
X173.15Y-140.9
X173.4Y-132.6
X173.575Y-91.125
X174.4Y-90.5
X175.0Y-52.5
X175.0Y-55.0
X175.0Y-100.0
X175.0Y-102.5
X175.0Y-105.0
X175.0Y-107.5
X175.0Y-110.0
X175.0Y-112.5
X175.0Y-117.5
X175.0Y-122.5
X175.0Y-142.5
X175.0Y-147.5
X175.0Y-150.0
X175.275Y-89.875
X175.8Y-131.85
X176.5Y-85.65
X176.6Y-96.05
X176.6Y-101.65
X176.7Y-90.5
X176.75Y-107.2
X176.8Y-97.8
X176.85Y-92.2
X176.85Y-103.4
X176.9Y-112.85
X176.9Y-118.45
X176.95Y-123.95
X176.95Y-129.0
X177.1Y-120.2
X177.15Y-109.0
X177.15Y-114.6
X177.2Y-80.3
X177.5Y-52.5
X177.5Y-55.0
X177.5Y-57.5
X177.5Y-60.0
X177.5Y-62.5
X177.5Y-65.0
X177.5Y-67.5
X177.5Y-70.0
X177.5Y-122.5
X177.5Y-140.0
X177.5Y-142.5
X177.5Y-147.5
X177.5Y-150.0
X177.65Y-125.8
X177.65Y-131.95
X178.7Y-140.55
X180.0Y-52.5
X180.0Y-55.0
X180.0Y-57.5
X180.0Y-60.0
X180.0Y-65.0
X180.0Y-67.5
X180.0Y-72.5
X180.0Y-142.5
X180.0Y-147.5
X180.0Y-150.0
X181.4Y-131.2
X182.5Y-52.5
X182.5Y-55.0
X182.5Y-57.5
X182.5Y-60.0
X182.5Y-62.5
X182.5Y-70.0
X182.5Y-72.5
X182.5Y-140.0
X182.5Y-142.5
X182.5Y-147.5
X182.5Y-150.0
X183.05Y-131.85
X184.15Y-140.55
X185.0Y-52.5
X185.0Y-55.0
X185.0Y-57.5
X185.0Y-60.0
X185.0Y-62.5
X185.0Y-70.0
X185.0Y-72.5
X185.0Y-142.5
X185.0Y-147.5
X185.0Y-150.0
X185.6Y-75.25
X185.6Y-125.8
X185.65Y-80.95
X185.65Y-120.25
X185.7Y-109.15
X185.7Y-114.7
X185.75Y-97.8
X185.8Y-92.2
X185.85Y-86.75
X185.95Y-103.35
X187.0Y-130.35
X187.5Y-52.5
X187.5Y-55.0
X187.5Y-57.5
X187.5Y-60.0
X187.5Y-62.5
X187.5Y-77.5
X187.5Y-82.5
X187.5Y-87.5
X187.5Y-92.5
X187.5Y-97.5
X187.5Y-105.0
X187.5Y-107.5
X187.5Y-110.0
X187.5Y-115.0
X187.5Y-120.0
X187.5Y-125.0
X187.5Y-127.5
X187.5Y-147.5
X187.5Y-150.0
X188.7Y-131.85
X188.75Y-70.35
X190.0Y-52.5
X190.0Y-55.0
X190.0Y-57.5
X190.0Y-60.0
X190.0Y-62.5
X190.0Y-80.0
X190.0Y-95.0
X190.0Y-100.0
X190.0Y-142.5
X190.0Y-147.5
X190.0Y-150.0
X190.025Y-75.325
X190.025Y-76.075
X190.025Y-76.825
X190.05Y-140.45
X192.5Y-52.5
X192.5Y-55.0
X192.5Y-57.5
X192.5Y-60.0
X192.5Y-65.0
X192.5Y-67.5
X192.5Y-70.0
X192.5Y-72.5
X192.5Y-75.0
X192.5Y-80.0
X192.5Y-82.5
X192.5Y-85.0
X192.5Y-87.5
X192.5Y-90.0
X192.5Y-92.5
X192.5Y-95.0
X192.5Y-97.5
X192.5Y-100.0
X192.5Y-102.5
X192.5Y-105.0
X192.5Y-107.5
X192.5Y-110.0
X192.5Y-112.5
X192.5Y-115.0
X192.5Y-117.5
X192.5Y-120.0
X192.5Y-122.5
X192.5Y-125.0
X192.5Y-147.5
X192.5Y-150.0
X192.575Y-129.725
X195.0Y-52.5
X195.0Y-55.0
X195.0Y-57.5
X195.0Y-60.0
X195.0Y-65.0
X195.0Y-67.5
X195.0Y-70.0
X195.0Y-72.5
X195.0Y-75.0
X195.0Y-77.5
X195.0Y-80.0
X195.0Y-82.5
X195.0Y-85.0
X195.0Y-87.5
X195.0Y-90.0
X195.0Y-92.5
X195.0Y-95.0
X195.0Y-97.5
X195.0Y-100.0
X195.0Y-102.5
X195.0Y-105.0
X195.0Y-107.5
X195.0Y-110.0
X195.0Y-112.5
X195.0Y-115.0
X195.0Y-117.5
X195.0Y-120.0
X195.0Y-122.5
X195.0Y-125.0
X195.0Y-127.5
X195.0Y-130.0
X195.0Y-132.5
X195.0Y-135.0
X195.0Y-137.5
X195.0Y-140.0
X195.0Y-142.5
X195.0Y-145.0
X195.0Y-147.5
X195.0Y-150.0
T2
X182.95Y-65.15
X185.45Y-65.15
X187.45Y-65.15
X189.95Y-65.15
T3
X127.95Y-104.2
X130.49Y-104.2
X133.03Y-104.2
X135.57Y-104.2
X138.11Y-104.2
X139.71Y-71.6
X140.65Y-104.2
X142.25Y-71.6
X164.1Y-54.1
X164.1Y-56.64
X164.1Y-59.18
X164.1Y-61.72
X164.1Y-64.26
X164.1Y-66.8
X164.1Y-69.34
X164.1Y-71.88
X169.3Y-54.1
X169.3Y-56.64
X169.3Y-59.18
X169.3Y-61.72
X169.3Y-64.26
X169.3Y-66.8
X169.3Y-69.34
X169.3Y-71.88
X174.45Y-59.15
X174.45Y-61.69
X174.45Y-64.23
X174.45Y-66.77
X174.45Y-69.31
X174.45Y-71.85
T4
X102.1Y-54.4
X102.1Y-59.4
X102.1Y-64.4
X102.1Y-69.4
X102.1Y-74.4
X102.1Y-79.4
X102.1Y-84.4
X102.1Y-89.4
X102.1Y-94.4
X102.1Y-99.4
X102.1Y-104.4
X102.1Y-109.4
X102.1Y-114.4
X102.1Y-119.4
X102.1Y-124.4
X102.1Y-129.4
X112.7Y-56.9
X117.4Y-145.0
X117.7Y-56.9
X122.4Y-145.0
X122.7Y-56.9
X127.4Y-145.0
X127.7Y-56.9
X132.4Y-145.0
X132.7Y-56.9
X137.4Y-145.0
X137.7Y-56.9
X142.4Y-145.0
X142.7Y-56.9
X147.4Y-145.0
X147.7Y-56.9
X152.4Y-145.0
X152.7Y-56.9
X157.4Y-145.0
X157.7Y-56.9
X162.4Y-145.0
X167.4Y-145.0
X172.4Y-145.0
X177.4Y-145.0
X182.4Y-145.0
X187.4Y-145.0
X190.0Y-82.3
X190.0Y-87.3
X190.0Y-92.3
X190.0Y-97.3
X190.0Y-102.3
X190.0Y-107.3
X190.0Y-112.3
X190.0Y-117.3
X190.0Y-122.3
X190.0Y-127.3
X192.4Y-145.0
T5
X179.88Y-62.44
X193.02Y-62.44
T6
X129.1Y-82.55
X130.5Y-123.35
X172.05Y-77.4
X173.75Y-126.9
T0
M30
